G04 #@! TF.GenerationSoftware,KiCad,Pcbnew,9.0.7*
G04 #@! TF.CreationDate,2026-02-15T20:38:08+11:00*
G04 #@! TF.ProjectId,AmigaUSBFloppy,416d6967-6155-4534-9246-6c6f7070792e,rev?*
G04 #@! TF.SameCoordinates,Original*
G04 #@! TF.FileFunction,Soldermask,Bot*
G04 #@! TF.FilePolarity,Negative*
%FSLAX46Y46*%
G04 Gerber Fmt 4.6, Leading zero omitted, Abs format (unit mm)*
G04 Created by KiCad (PCBNEW 9.0.7) date 2026-02-15 20:38:08*
%MOMM*%
%LPD*%
G01*
G04 APERTURE LIST*
G04 Aperture macros list*
%AMRoundRect*
0 Rectangle with rounded corners*
0 $1 Rounding radius*
0 $2 $3 $4 $5 $6 $7 $8 $9 X,Y pos of 4 corners*
0 Add a 4 corners polygon primitive as box body*
4,1,4,$2,$3,$4,$5,$6,$7,$8,$9,$2,$3,0*
0 Add four circle primitives for the rounded corners*
1,1,$1+$1,$2,$3*
1,1,$1+$1,$4,$5*
1,1,$1+$1,$6,$7*
1,1,$1+$1,$8,$9*
0 Add four rect primitives between the rounded corners*
20,1,$1+$1,$2,$3,$4,$5,0*
20,1,$1+$1,$4,$5,$6,$7,0*
20,1,$1+$1,$6,$7,$8,$9,0*
20,1,$1+$1,$8,$9,$2,$3,0*%
G04 Aperture macros list end*
%ADD10R,1.700000X1.700000*%
%ADD11C,1.700000*%
%ADD12RoundRect,0.250000X0.600000X-0.600000X0.600000X0.600000X-0.600000X0.600000X-0.600000X-0.600000X0*%
%ADD13R,1.800000X1.800000*%
%ADD14C,1.800000*%
%ADD15R,1.500000X1.600000*%
%ADD16C,1.600000*%
%ADD17C,3.000000*%
%ADD18O,1.600000X2.000000*%
%ADD19C,4.800000*%
%ADD20C,1.650000*%
%ADD21RoundRect,0.250000X0.550000X-0.550000X0.550000X0.550000X-0.550000X0.550000X-0.550000X-0.550000X0*%
%ADD22C,2.500000*%
%ADD23C,1.400000*%
%ADD24RoundRect,0.200000X-0.275000X0.200000X-0.275000X-0.200000X0.275000X-0.200000X0.275000X0.200000X0*%
%ADD25R,1.000000X1.000000*%
%ADD26RoundRect,0.225000X-0.250000X0.225000X-0.250000X-0.225000X0.250000X-0.225000X0.250000X0.225000X0*%
%ADD27RoundRect,0.200000X-0.200000X-0.275000X0.200000X-0.275000X0.200000X0.275000X-0.200000X0.275000X0*%
G04 APERTURE END LIST*
D10*
X122600000Y-59137500D03*
D11*
X125140000Y-59137500D03*
X127680000Y-59137500D03*
X130220000Y-59137500D03*
X132760000Y-59137500D03*
D12*
X137630000Y-109687500D03*
D11*
X137630000Y-107147500D03*
X140170000Y-109687500D03*
X140170000Y-107147500D03*
X142710000Y-109687500D03*
X142710000Y-107147500D03*
X145250000Y-109687500D03*
X145250000Y-107147500D03*
X147790000Y-109687500D03*
X147790000Y-107147500D03*
X150330000Y-109687500D03*
X150330000Y-107147500D03*
X152870000Y-109687500D03*
X152870000Y-107147500D03*
X155410000Y-109687500D03*
X155410000Y-107147500D03*
X157950000Y-109687500D03*
X157950000Y-107147500D03*
X160490000Y-109687500D03*
X160490000Y-107147500D03*
X163030000Y-109687500D03*
X163030000Y-107147500D03*
X165570000Y-109687500D03*
X165570000Y-107147500D03*
X168110000Y-109687500D03*
X168110000Y-107147500D03*
X170650000Y-109687500D03*
X170650000Y-107147500D03*
X173190000Y-109687500D03*
X173190000Y-107147500D03*
X175730000Y-109687500D03*
X175730000Y-107147500D03*
X178270000Y-109687500D03*
X178270000Y-107147500D03*
D13*
X125700000Y-103137500D03*
D14*
X123200000Y-103137500D03*
X120700000Y-103137500D03*
X118200000Y-103137500D03*
D15*
X120410000Y-83337500D03*
D16*
X120410000Y-85837500D03*
X120410000Y-87837500D03*
X120410000Y-90337500D03*
D17*
X117700000Y-80267500D03*
X117700000Y-93407500D03*
D10*
X132760000Y-90787500D03*
D11*
X132760000Y-93327500D03*
D17*
X141600000Y-66187500D03*
X141600000Y-88087500D03*
X163600000Y-66187500D03*
X163600000Y-88087500D03*
D18*
X148790000Y-65387500D03*
X151330000Y-65387500D03*
X153870000Y-65387500D03*
X156410000Y-65387500D03*
D19*
X176650000Y-80237500D03*
X188050000Y-80237500D03*
D20*
X179850000Y-73237500D03*
X184850000Y-73237500D03*
X179850000Y-87737500D03*
X184850000Y-87737500D03*
X182350000Y-87737500D03*
D21*
X122200000Y-98737500D03*
D16*
X122200000Y-96237500D03*
D22*
X111240000Y-110737500D03*
D23*
X112800000Y-71287500D03*
X112800000Y-67287500D03*
D22*
X189900000Y-110737500D03*
X111240000Y-59837500D03*
X189900000Y-59837500D03*
D10*
X147790000Y-99659735D03*
D11*
X147790000Y-97119735D03*
X150330000Y-99659735D03*
X150330000Y-97119735D03*
X152870000Y-99659735D03*
X152870000Y-97119735D03*
X155410000Y-99659735D03*
X155410000Y-97119735D03*
X157950000Y-99659735D03*
X157950000Y-97119735D03*
D10*
X170310000Y-59137500D03*
D11*
X172850000Y-59137500D03*
X175390000Y-59137500D03*
X177930000Y-59137500D03*
X180470000Y-59137500D03*
D24*
X170650000Y-103637500D03*
X170650000Y-105287500D03*
D25*
X146775000Y-75012500D03*
D24*
X137630000Y-103637500D03*
X137630000Y-105287500D03*
X163030000Y-103637500D03*
X163030000Y-105287500D03*
X173190000Y-103637500D03*
X173190000Y-105287500D03*
D26*
X160900000Y-80737499D03*
X160900000Y-82287499D03*
D24*
X165570000Y-103637500D03*
X165570000Y-105287500D03*
X168110000Y-103637500D03*
X168110000Y-105287500D03*
X160450000Y-103637500D03*
X160450000Y-105287500D03*
D27*
X148680000Y-93487500D03*
X150330000Y-93487500D03*
D24*
X158600000Y-69887500D03*
X158600000Y-71537500D03*
D25*
X146775000Y-77062500D03*
D24*
X157950000Y-103637500D03*
X157950000Y-105287500D03*
X175730000Y-103637500D03*
X175730000Y-105287500D03*
X155410000Y-103637500D03*
X155410000Y-105287500D03*
X178270000Y-103637500D03*
X178270000Y-105287500D03*
D26*
X158375000Y-76187500D03*
X158375000Y-77737500D03*
D24*
X145250000Y-103637500D03*
X145250000Y-105287500D03*
M02*
