M48
; DRILL file {KiCad 9.0.7} date 2026-02-15T20:38:00+1100
; FORMAT={-:-/ absolute / metric / decimal}
; #@! TF.CreationDate,2026-02-15T20:38:00+11:00
; #@! TF.GenerationSoftware,Kicad,Pcbnew,9.0.7
; #@! TF.FileFunction,Plated,1,2,PTH
FMAT,2
METRIC
; #@! TA.AperFunction,Plated,PTH,ViaDrill
T1C0.300
; #@! TA.AperFunction,Plated,PTH,ComponentDrill
T2C0.800
; #@! TA.AperFunction,Plated,PTH,ComponentDrill
T3C0.900
; #@! TA.AperFunction,Plated,PTH,ComponentDrill
T4C0.950
; #@! TA.AperFunction,Plated,PTH,ComponentDrill
T5C1.000
; #@! TA.AperFunction,Plated,PTH,ComponentDrill
T6C1.100
; #@! TA.AperFunction,Plated,PTH,ComponentDrill
T7C1.200
; #@! TA.AperFunction,Plated,PTH,ComponentDrill
T8C2.300
%
G90
G05
T1
X119.75Y-64.138
X120.41Y-76.487
X121.65Y-81.537
X123.4Y-76.162
X125.2Y-85.787
X125.2Y-87.837
X125.425Y-96.037
X127.6Y-63.412
X128.65Y-74.438
X129.375Y-65.513
X129.75Y-100.262
X131.2Y-101.887
X131.5Y-104.087
X131.775Y-84.138
X132.025Y-63.482
X132.4Y-99.062
X133.675Y-83.662
X134.05Y-72.912
X134.123Y-100.244
X135.125Y-85.237
X135.7Y-69.688
X135.875Y-74.737
X135.911Y-97.744
X136.55Y-86.638
X137.4Y-76.462
X138.623Y-99.094
X138.925Y-69.888
X139.3Y-61.737
X139.425Y-56.987
X140.5Y-102.737
X140.5Y-104.537
X140.562Y-100.244
X140.862Y-71.55
X140.95Y-60.312
X142.35Y-97.744
X142.875Y-73.562
X143.625Y-70.812
X144.575Y-84.138
X144.6Y-64.462
X144.65Y-94.662
X145.062Y-99.094
X145.175Y-66.962
X145.55Y-65.412
X146.0Y-68.737
X146.6Y-102.188
X146.65Y-81.688
X146.775Y-62.487
X148.316Y-80.269
X148.35Y-79.287
X148.628Y-75.836
X148.628Y-77.062
X148.85Y-69.888
X149.325Y-81.287
X149.35Y-72.688
X149.675Y-76.462
X150.375Y-80.438
X150.425Y-74.013
X150.834Y-81.242
X150.848Y-85.09
X151.1Y-76.412
X151.275Y-84.013
X152.025Y-90.562
X152.185Y-81.337
X152.415Y-83.987
X153.009Y-80.977
X153.407Y-88.605
X153.75Y-102.737
X153.75Y-104.537
X153.834Y-81.337
X153.887Y-90.45
X154.075Y-77.612
X154.1Y-94.512
X154.8Y-73.312
X154.809Y-76.322
X155.375Y-69.888
X155.775Y-78.562
X155.783Y-80.395
X155.85Y-72.587
X156.175Y-86.188
X156.778Y-77.334
X156.8Y-80.287
X156.85Y-75.237
X157.425Y-86.438
X157.975Y-59.137
X158.25Y-68.737
X158.475Y-86.862
X159.325Y-85.873
X159.7Y-80.712
X159.775Y-69.888
X160.25Y-72.938
X160.25Y-75.188
X160.625Y-86.388
X160.95Y-85.287
X161.588Y-94.475
X161.75Y-72.438
X162.0Y-83.188
X163.375Y-83.888
X163.386Y-100.244
X163.8Y-80.562
X164.3Y-102.737
X164.3Y-104.537
X164.75Y-73.537
X165.173Y-97.744
X166.566Y-89.379
X166.575Y-93.763
X167.2Y-60.312
X167.886Y-99.094
X169.35Y-100.244
X171.137Y-97.744
X171.9Y-102.737
X171.9Y-104.537
X173.5Y-89.362
X173.85Y-99.094
X174.5Y-104.637
X176.492Y-100.244
X176.8Y-101.919
X178.28Y-97.744
X180.992Y-99.094
X183.117Y-100.244
X183.291Y-101.963
X184.905Y-97.744
X187.617Y-99.094
T2
X122.2Y-96.237
X122.2Y-98.737
T3
X112.8Y-67.287
X112.8Y-71.287
T4
X120.41Y-83.337
X120.41Y-85.837
X120.41Y-87.837
X120.41Y-90.337
T5
X122.6Y-59.137
X125.14Y-59.137
X127.68Y-59.137
X130.22Y-59.137
X132.76Y-59.137
X132.76Y-90.787
X132.76Y-93.328
X137.63Y-107.147
X137.63Y-109.688
X140.17Y-107.147
X140.17Y-109.688
X142.71Y-107.147
X142.71Y-109.688
X145.25Y-107.147
X145.25Y-109.688
X147.79Y-97.12
X147.79Y-99.66
X147.79Y-107.147
X147.79Y-109.688
X148.79Y-65.388
X150.33Y-97.12
X150.33Y-99.66
X150.33Y-107.147
X150.33Y-109.688
X151.33Y-65.388
X152.87Y-97.12
X152.87Y-99.66
X152.87Y-107.147
X152.87Y-109.688
X153.87Y-65.388
X155.41Y-97.12
X155.41Y-99.66
X155.41Y-107.147
X155.41Y-109.688
X156.41Y-65.388
X157.95Y-97.12
X157.95Y-99.66
X157.95Y-107.147
X157.95Y-109.688
X160.49Y-107.147
X160.49Y-109.688
X163.03Y-107.147
X163.03Y-109.688
X165.57Y-107.147
X165.57Y-109.688
X168.11Y-107.147
X168.11Y-109.688
X170.31Y-59.137
X170.65Y-107.147
X170.65Y-109.688
X172.85Y-59.137
X173.19Y-107.147
X173.19Y-109.688
X175.39Y-59.137
X175.73Y-107.147
X175.73Y-109.688
X177.93Y-59.137
X178.27Y-107.147
X178.27Y-109.688
X180.47Y-59.137
T6
X179.85Y-73.237
X179.85Y-87.737
X182.35Y-87.737
X184.85Y-73.237
X184.85Y-87.737
T7
X118.2Y-103.137
X120.7Y-103.137
X123.2Y-103.137
X125.7Y-103.137
T8
X117.7Y-80.267
X117.7Y-93.407
M30
