G04 #@! TF.GenerationSoftware,KiCad,Pcbnew,9.0.7*
G04 #@! TF.CreationDate,2026-02-15T20:38:08+11:00*
G04 #@! TF.ProjectId,AmigaUSBFloppy,416d6967-6155-4534-9246-6c6f7070792e,rev?*
G04 #@! TF.SameCoordinates,Original*
G04 #@! TF.FileFunction,Paste,Top*
G04 #@! TF.FilePolarity,Positive*
%FSLAX46Y46*%
G04 Gerber Fmt 4.6, Leading zero omitted, Abs format (unit mm)*
G04 Created by KiCad (PCBNEW 9.0.7) date 2026-02-15 20:38:08*
%MOMM*%
%LPD*%
G01*
G04 APERTURE LIST*
G04 Aperture macros list*
%AMRoundRect*
0 Rectangle with rounded corners*
0 $1 Rounding radius*
0 $2 $3 $4 $5 $6 $7 $8 $9 X,Y pos of 4 corners*
0 Add a 4 corners polygon primitive as box body*
4,1,4,$2,$3,$4,$5,$6,$7,$8,$9,$2,$3,0*
0 Add four circle primitives for the rounded corners*
1,1,$1+$1,$2,$3*
1,1,$1+$1,$4,$5*
1,1,$1+$1,$6,$7*
1,1,$1+$1,$8,$9*
0 Add four rect primitives between the rounded corners*
20,1,$1+$1,$2,$3,$4,$5,0*
20,1,$1+$1,$4,$5,$6,$7,0*
20,1,$1+$1,$6,$7,$8,$9,0*
20,1,$1+$1,$8,$9,$2,$3,0*%
G04 Aperture macros list end*
%ADD10RoundRect,0.250000X-0.450000X-0.350000X0.450000X-0.350000X0.450000X0.350000X-0.450000X0.350000X0*%
%ADD11RoundRect,0.225000X-0.375000X0.225000X-0.375000X-0.225000X0.375000X-0.225000X0.375000X0.225000X0*%
%ADD12RoundRect,0.225000X0.225000X0.250000X-0.225000X0.250000X-0.225000X-0.250000X0.225000X-0.250000X0*%
%ADD13RoundRect,0.200000X0.200000X0.275000X-0.200000X0.275000X-0.200000X-0.275000X0.200000X-0.275000X0*%
%ADD14RoundRect,0.225000X-0.225000X-0.250000X0.225000X-0.250000X0.225000X0.250000X-0.225000X0.250000X0*%
%ADD15RoundRect,0.225000X0.250000X-0.225000X0.250000X0.225000X-0.250000X0.225000X-0.250000X-0.225000X0*%
%ADD16R,0.950000X1.400000*%
%ADD17RoundRect,0.100000X-0.562500X-0.100000X0.562500X-0.100000X0.562500X0.100000X-0.562500X0.100000X0*%
%ADD18RoundRect,0.200000X0.275000X-0.200000X0.275000X0.200000X-0.275000X0.200000X-0.275000X-0.200000X0*%
%ADD19RoundRect,0.200000X-0.275000X0.200000X-0.275000X-0.200000X0.275000X-0.200000X0.275000X0.200000X0*%
%ADD20RoundRect,0.375000X-0.375000X0.625000X-0.375000X-0.625000X0.375000X-0.625000X0.375000X0.625000X0*%
%ADD21RoundRect,0.500000X-1.400000X0.500000X-1.400000X-0.500000X1.400000X-0.500000X1.400000X0.500000X0*%
%ADD22RoundRect,0.225000X-0.250000X0.225000X-0.250000X-0.225000X0.250000X-0.225000X0.250000X0.225000X0*%
%ADD23RoundRect,0.250000X-0.250000X-0.475000X0.250000X-0.475000X0.250000X0.475000X-0.250000X0.475000X0*%
%ADD24RoundRect,0.150000X0.587500X0.150000X-0.587500X0.150000X-0.587500X-0.150000X0.587500X-0.150000X0*%
%ADD25RoundRect,0.075000X0.700000X0.075000X-0.700000X0.075000X-0.700000X-0.075000X0.700000X-0.075000X0*%
%ADD26RoundRect,0.075000X0.075000X0.700000X-0.075000X0.700000X-0.075000X-0.700000X0.075000X-0.700000X0*%
%ADD27R,1.400000X0.950000*%
G04 APERTURE END LIST*
D10*
X160900000Y-78737500D03*
X163300002Y-78737500D03*
X163300002Y-76837500D03*
X160900000Y-76837500D03*
D11*
X119762500Y-69287500D03*
X119762500Y-72587500D03*
D12*
X137460888Y-99071725D03*
X135910888Y-99071725D03*
D13*
X144175000Y-79687500D03*
X142525000Y-79687500D03*
D12*
X163300002Y-73537500D03*
X161750002Y-73537500D03*
X162450000Y-80537500D03*
X160900000Y-80537500D03*
X179830000Y-99071725D03*
X178280000Y-99071725D03*
D14*
X161750002Y-75087500D03*
X163300002Y-75087500D03*
D12*
X172687500Y-99071725D03*
X171137500Y-99071725D03*
D15*
X144575000Y-82737500D03*
X144575000Y-81187500D03*
D16*
X184870000Y-64012500D03*
X182970000Y-64012500D03*
D17*
X135798388Y-100594225D03*
X135798388Y-101244225D03*
X135798388Y-101894225D03*
X137573388Y-101894225D03*
X137573388Y-100594225D03*
D14*
X147300001Y-68712500D03*
X148850001Y-68712500D03*
D12*
X143900000Y-99071725D03*
X142350000Y-99071725D03*
D18*
X179870000Y-91912500D03*
X179870000Y-90262500D03*
D19*
X128650000Y-91677500D03*
X128650000Y-93327500D03*
D20*
X127600000Y-65512500D03*
X125300000Y-65512500D03*
D21*
X125300000Y-71812500D03*
D20*
X123000000Y-65512500D03*
D12*
X186454627Y-99071725D03*
X184904627Y-99071725D03*
D17*
X165060888Y-100594225D03*
X165060888Y-101244225D03*
X165060888Y-101894225D03*
X166835888Y-101894225D03*
X166835888Y-100594225D03*
D18*
X184870000Y-91912500D03*
X184870000Y-90262500D03*
D17*
X184792127Y-100594225D03*
X184792127Y-101244225D03*
X184792127Y-101894225D03*
X186567127Y-101894225D03*
X186567127Y-100594225D03*
D22*
X119762500Y-65512500D03*
X119762500Y-67062500D03*
D23*
X123400000Y-74437500D03*
X125300000Y-74437500D03*
D13*
X144175000Y-78187500D03*
X142525000Y-78187500D03*
D24*
X114675000Y-77737500D03*
X114675000Y-75837500D03*
X112800000Y-76787500D03*
D17*
X171025000Y-100594225D03*
X171025000Y-101244225D03*
X171025000Y-101894225D03*
X172800000Y-101894225D03*
X172800000Y-100594225D03*
X178167500Y-100594225D03*
X178167500Y-101244225D03*
X178167500Y-101894225D03*
X179942500Y-101894225D03*
X179942500Y-100594225D03*
D12*
X166723388Y-99071725D03*
X165173388Y-99071725D03*
D25*
X158275000Y-80737499D03*
X158275000Y-80237500D03*
X158275000Y-79737500D03*
X158275000Y-79237500D03*
X158275000Y-78737500D03*
X158275000Y-78237499D03*
X158275000Y-77737500D03*
X158275000Y-77237500D03*
X158275000Y-76737500D03*
X158275000Y-76237500D03*
X158275000Y-75737501D03*
X158275000Y-75237500D03*
X158275000Y-74737500D03*
X158275000Y-74237500D03*
X158275000Y-73737500D03*
X158275000Y-73237501D03*
D26*
X156349999Y-71312500D03*
X155850000Y-71312500D03*
X155350000Y-71312500D03*
X154850000Y-71312500D03*
X154350000Y-71312500D03*
X153849999Y-71312500D03*
X153350000Y-71312500D03*
X152850000Y-71312500D03*
X152350000Y-71312500D03*
X151850000Y-71312500D03*
X151350001Y-71312500D03*
X150850000Y-71312500D03*
X150350000Y-71312500D03*
X149850000Y-71312500D03*
X149350000Y-71312500D03*
X148850001Y-71312500D03*
D25*
X146925000Y-73237501D03*
X146925000Y-73737500D03*
X146925000Y-74237500D03*
X146925000Y-74737500D03*
X146925000Y-75237500D03*
X146925000Y-75737501D03*
X146925000Y-76237500D03*
X146925000Y-76737500D03*
X146925000Y-77237500D03*
X146925000Y-77737500D03*
X146925000Y-78237499D03*
X146925000Y-78737500D03*
X146925000Y-79237500D03*
X146925000Y-79737500D03*
X146925000Y-80237500D03*
X146925000Y-80737499D03*
D26*
X148850001Y-82662500D03*
X149350000Y-82662500D03*
X149850000Y-82662500D03*
X150350000Y-82662500D03*
X150850000Y-82662500D03*
X151350001Y-82662500D03*
X151850000Y-82662500D03*
X152350000Y-82662500D03*
X152850000Y-82662500D03*
X153350000Y-82662500D03*
X153849999Y-82662500D03*
X154350000Y-82662500D03*
X154850000Y-82662500D03*
X155350000Y-82662500D03*
X155850000Y-82662500D03*
X156349999Y-82662500D03*
D12*
X157899999Y-84637500D03*
X156349999Y-84637500D03*
D19*
X129615000Y-105462500D03*
X129615000Y-107112500D03*
D27*
X129615000Y-112137500D03*
X129615000Y-110237500D03*
D17*
X142237500Y-100594225D03*
X142237500Y-101244225D03*
X142237500Y-101894225D03*
X144012500Y-101894225D03*
X144012500Y-100594225D03*
D12*
X156900000Y-68712500D03*
X155350000Y-68712500D03*
D19*
X184870000Y-69112500D03*
X184870000Y-70762500D03*
M02*
