%TF.GenerationSoftware,KiCad,Pcbnew,9.0.7*%
%TF.CreationDate,2026-02-15T20:38:00+11:00*%
%TF.ProjectId,AmigaUSBFloppy,416d6967-6155-4534-9246-6c6f7070792e,rev?*%
%TF.SameCoordinates,Original*%
%TF.FileFunction,Drillmap*%
%TF.FilePolarity,Positive*%
%FSLAX45Y45*%
G04 Gerber Fmt 4.5, Leading zero omitted, Abs format (unit mm)*
G04 Created by KiCad (PCBNEW 9.0.7) date 2026-02-15 20:38:00*
%MOMM*%
%LPD*%
G01*
G04 APERTURE LIST*
%ADD10C,0.100000*%
%ADD11C,0.200000*%
%ADD12C,0.110000*%
%ADD13C,0.120000*%
%ADD14C,0.230000*%
G04 APERTURE END LIST*
D10*
X10724000Y-5583750D02*
X19390000Y-5583750D01*
X19390000Y-11473750D01*
X10724000Y-11473750D01*
X10724000Y-5583750D01*
D11*
D10*
X11960000Y-6398750D02*
X11990000Y-6428750D01*
X11990000Y-6398750D02*
X11960000Y-6428750D01*
X12026000Y-7633750D02*
X12056000Y-7663750D01*
X12056000Y-7633750D02*
X12026000Y-7663750D01*
X12150000Y-8138750D02*
X12180000Y-8168750D01*
X12180000Y-8138750D02*
X12150000Y-8168750D01*
X12325000Y-7601250D02*
X12355000Y-7631250D01*
X12355000Y-7601250D02*
X12325000Y-7631250D01*
X12505000Y-8563750D02*
X12535000Y-8593750D01*
X12535000Y-8563750D02*
X12505000Y-8593750D01*
X12505000Y-8768750D02*
X12535000Y-8798750D01*
X12535000Y-8768750D02*
X12505000Y-8798750D01*
X12527500Y-9588750D02*
X12557500Y-9618750D01*
X12557500Y-9588750D02*
X12527500Y-9618750D01*
X12745000Y-6326250D02*
X12775000Y-6356250D01*
X12775000Y-6326250D02*
X12745000Y-6356250D01*
X12850000Y-7428750D02*
X12880000Y-7458750D01*
X12880000Y-7428750D02*
X12850000Y-7458750D01*
X12922500Y-6536250D02*
X12952500Y-6566250D01*
X12952500Y-6536250D02*
X12922500Y-6566250D01*
X12960000Y-10011250D02*
X12990000Y-10041250D01*
X12990000Y-10011250D02*
X12960000Y-10041250D01*
X13105000Y-10173750D02*
X13135000Y-10203750D01*
X13135000Y-10173750D02*
X13105000Y-10203750D01*
X13135000Y-10393750D02*
X13165000Y-10423750D01*
X13165000Y-10393750D02*
X13135000Y-10423750D01*
X13162500Y-8398750D02*
X13192500Y-8428750D01*
X13192500Y-8398750D02*
X13162500Y-8428750D01*
X13187500Y-6333250D02*
X13217500Y-6363250D01*
X13217500Y-6333250D02*
X13187500Y-6363250D01*
X13225000Y-9891250D02*
X13255000Y-9921250D01*
X13255000Y-9891250D02*
X13225000Y-9921250D01*
X13352500Y-8351250D02*
X13382500Y-8381250D01*
X13382500Y-8351250D02*
X13352500Y-8381250D01*
X13390000Y-7276250D02*
X13420000Y-7306250D01*
X13420000Y-7276250D02*
X13390000Y-7306250D01*
X13397339Y-10009423D02*
X13427339Y-10039423D01*
X13427339Y-10009423D02*
X13397339Y-10039423D01*
X13497500Y-8508750D02*
X13527500Y-8538750D01*
X13527500Y-8508750D02*
X13497500Y-8538750D01*
X13555000Y-6953750D02*
X13585000Y-6983750D01*
X13585000Y-6953750D02*
X13555000Y-6983750D01*
X13572500Y-7458750D02*
X13602500Y-7488750D01*
X13602500Y-7458750D02*
X13572500Y-7488750D01*
X13576089Y-9759423D02*
X13606089Y-9789423D01*
X13606089Y-9759423D02*
X13576089Y-9789423D01*
X13640000Y-8648750D02*
X13670000Y-8678750D01*
X13670000Y-8648750D02*
X13640000Y-8678750D01*
X13725000Y-7631250D02*
X13755000Y-7661250D01*
X13755000Y-7631250D02*
X13725000Y-7661250D01*
X13847339Y-9894423D02*
X13877339Y-9924423D01*
X13877339Y-9894423D02*
X13847339Y-9924423D01*
X13877500Y-6973750D02*
X13907500Y-7003750D01*
X13907500Y-6973750D02*
X13877500Y-7003750D01*
X13915000Y-6158750D02*
X13945000Y-6188750D01*
X13945000Y-6158750D02*
X13915000Y-6188750D01*
X13927500Y-5683750D02*
X13957500Y-5713750D01*
X13957500Y-5683750D02*
X13927500Y-5713750D01*
X14035000Y-10258750D02*
X14065000Y-10288750D01*
X14065000Y-10258750D02*
X14035000Y-10288750D01*
X14035000Y-10438750D02*
X14065000Y-10468750D01*
X14065000Y-10438750D02*
X14035000Y-10468750D01*
X14041250Y-10009423D02*
X14071250Y-10039423D01*
X14071250Y-10009423D02*
X14041250Y-10039423D01*
X14071250Y-7140000D02*
X14101250Y-7170000D01*
X14101250Y-7140000D02*
X14071250Y-7170000D01*
X14080000Y-6016250D02*
X14110000Y-6046250D01*
X14110000Y-6016250D02*
X14080000Y-6046250D01*
X14220000Y-9759423D02*
X14250000Y-9789423D01*
X14250000Y-9759423D02*
X14220000Y-9789423D01*
X14272500Y-7341250D02*
X14302500Y-7371250D01*
X14302500Y-7341250D02*
X14272500Y-7371250D01*
X14347500Y-7066250D02*
X14377500Y-7096250D01*
X14377500Y-7066250D02*
X14347500Y-7096250D01*
X14442500Y-8398750D02*
X14472500Y-8428750D01*
X14472500Y-8398750D02*
X14442500Y-8428750D01*
X14445000Y-6431250D02*
X14475000Y-6461250D01*
X14475000Y-6431250D02*
X14445000Y-6461250D01*
X14450000Y-9451250D02*
X14480000Y-9481250D01*
X14480000Y-9451250D02*
X14450000Y-9481250D01*
X14491250Y-9894423D02*
X14521250Y-9924423D01*
X14521250Y-9894423D02*
X14491250Y-9924423D01*
X14502500Y-6681250D02*
X14532500Y-6711250D01*
X14532500Y-6681250D02*
X14502500Y-6711250D01*
X14540000Y-6526250D02*
X14570000Y-6556250D01*
X14570000Y-6526250D02*
X14540000Y-6556250D01*
X14585000Y-6858750D02*
X14615000Y-6888750D01*
X14615000Y-6858750D02*
X14585000Y-6888750D01*
X14645000Y-10203750D02*
X14675000Y-10233750D01*
X14675000Y-10203750D02*
X14645000Y-10233750D01*
X14650000Y-8153750D02*
X14680000Y-8183750D01*
X14680000Y-8153750D02*
X14650000Y-8183750D01*
X14662500Y-6233750D02*
X14692500Y-6263750D01*
X14692500Y-6233750D02*
X14662500Y-6263750D01*
X14816615Y-8011896D02*
X14846615Y-8041896D01*
X14846615Y-8011896D02*
X14816615Y-8041896D01*
X14820000Y-7913750D02*
X14850000Y-7943750D01*
X14850000Y-7913750D02*
X14820000Y-7943750D01*
X14847830Y-7568620D02*
X14877830Y-7598620D01*
X14877830Y-7568620D02*
X14847830Y-7598620D01*
X14847830Y-7691250D02*
X14877830Y-7721250D01*
X14877830Y-7691250D02*
X14847830Y-7721250D01*
X14870000Y-6973750D02*
X14900000Y-7003750D01*
X14900000Y-6973750D02*
X14870000Y-7003750D01*
X14917500Y-8113750D02*
X14947500Y-8143750D01*
X14947500Y-8113750D02*
X14917500Y-8143750D01*
X14920000Y-7253750D02*
X14950000Y-7283750D01*
X14950000Y-7253750D02*
X14920000Y-7283750D01*
X14952500Y-7631250D02*
X14982500Y-7661250D01*
X14982500Y-7631250D02*
X14952500Y-7661250D01*
X15022500Y-8028750D02*
X15052500Y-8058750D01*
X15052500Y-8028750D02*
X15022500Y-8058750D01*
X15027500Y-7386250D02*
X15057500Y-7416250D01*
X15057500Y-7386250D02*
X15027500Y-7416250D01*
X15068376Y-8109218D02*
X15098376Y-8139218D01*
X15098376Y-8109218D02*
X15068376Y-8139218D01*
X15069770Y-8493980D02*
X15099770Y-8523980D01*
X15099770Y-8493980D02*
X15069770Y-8523980D01*
X15095000Y-7626250D02*
X15125000Y-7656250D01*
X15125000Y-7626250D02*
X15095000Y-7656250D01*
X15112500Y-8386250D02*
X15142500Y-8416250D01*
X15142500Y-8386250D02*
X15112500Y-8416250D01*
X15187500Y-9041250D02*
X15217500Y-9071250D01*
X15217500Y-9041250D02*
X15187500Y-9071250D01*
X15203476Y-8118750D02*
X15233476Y-8148750D01*
X15233476Y-8118750D02*
X15203476Y-8148750D01*
X15226458Y-8383750D02*
X15256458Y-8413750D01*
X15256458Y-8383750D02*
X15226458Y-8413750D01*
X15285919Y-8082651D02*
X15315919Y-8112651D01*
X15315919Y-8082651D02*
X15285919Y-8112651D01*
X15325720Y-8845530D02*
X15355720Y-8875530D01*
X15355720Y-8845530D02*
X15325720Y-8875530D01*
X15360000Y-10258750D02*
X15390000Y-10288750D01*
X15390000Y-10258750D02*
X15360000Y-10288750D01*
X15360000Y-10438750D02*
X15390000Y-10468750D01*
X15390000Y-10438750D02*
X15360000Y-10468750D01*
X15368362Y-8118750D02*
X15398362Y-8148750D01*
X15398362Y-8118750D02*
X15368362Y-8148750D01*
X15373750Y-9030000D02*
X15403750Y-9060000D01*
X15403750Y-9030000D02*
X15373750Y-9060000D01*
X15392500Y-7746250D02*
X15422500Y-7776250D01*
X15422500Y-7746250D02*
X15392500Y-7776250D01*
X15395000Y-9436250D02*
X15425000Y-9466250D01*
X15425000Y-9436250D02*
X15395000Y-9466250D01*
X15465000Y-7316250D02*
X15495000Y-7346250D01*
X15495000Y-7316250D02*
X15465000Y-7346250D01*
X15465949Y-7617199D02*
X15495949Y-7647199D01*
X15495949Y-7617199D02*
X15465949Y-7647199D01*
X15522500Y-6973750D02*
X15552500Y-7003750D01*
X15552500Y-6973750D02*
X15522500Y-7003750D01*
X15562500Y-7841250D02*
X15592500Y-7871250D01*
X15592500Y-7841250D02*
X15562500Y-7871250D01*
X15563290Y-8024540D02*
X15593290Y-8054540D01*
X15593290Y-8024540D02*
X15563290Y-8054540D01*
X15570000Y-7243750D02*
X15600000Y-7273750D01*
X15600000Y-7243750D02*
X15570000Y-7273750D01*
X15602500Y-8603750D02*
X15632500Y-8633750D01*
X15632500Y-8603750D02*
X15602500Y-8633750D01*
X15662800Y-7718449D02*
X15692800Y-7748449D01*
X15692800Y-7718449D02*
X15662800Y-7748449D01*
X15665000Y-8013750D02*
X15695000Y-8043750D01*
X15695000Y-8013750D02*
X15665000Y-8043750D01*
X15670000Y-7508750D02*
X15700000Y-7538750D01*
X15700000Y-7508750D02*
X15670000Y-7538750D01*
X15727500Y-8628750D02*
X15757500Y-8658750D01*
X15757500Y-8628750D02*
X15727500Y-8658750D01*
X15782500Y-5898750D02*
X15812500Y-5928750D01*
X15812500Y-5898750D02*
X15782500Y-5928750D01*
X15810000Y-6858750D02*
X15840000Y-6888750D01*
X15840000Y-6858750D02*
X15810000Y-6888750D01*
X15832500Y-8671250D02*
X15862500Y-8701250D01*
X15862500Y-8671250D02*
X15832500Y-8701250D01*
X15917500Y-8572287D02*
X15947500Y-8602287D01*
X15947500Y-8572287D02*
X15917500Y-8602287D01*
X15955000Y-8056250D02*
X15985000Y-8086250D01*
X15985000Y-8056250D02*
X15955000Y-8086250D01*
X15962500Y-6973750D02*
X15992500Y-7003750D01*
X15992500Y-6973750D02*
X15962500Y-7003750D01*
X16010000Y-7278750D02*
X16040000Y-7308750D01*
X16040000Y-7278750D02*
X16010000Y-7308750D01*
X16010000Y-7503750D02*
X16040000Y-7533750D01*
X16040000Y-7503750D02*
X16010000Y-7533750D01*
X16047500Y-8623750D02*
X16077500Y-8653750D01*
X16077500Y-8623750D02*
X16047500Y-8653750D01*
X16080000Y-8513750D02*
X16110000Y-8543750D01*
X16110000Y-8513750D02*
X16080000Y-8543750D01*
X16143750Y-9432500D02*
X16173750Y-9462500D01*
X16173750Y-9432500D02*
X16143750Y-9462500D01*
X16160000Y-7228750D02*
X16190000Y-7258750D01*
X16190000Y-7228750D02*
X16160000Y-7258750D01*
X16185000Y-8303750D02*
X16215000Y-8333750D01*
X16215000Y-8303750D02*
X16185000Y-8333750D01*
X16322500Y-8373750D02*
X16352500Y-8403750D01*
X16352500Y-8373750D02*
X16322500Y-8403750D01*
X16323589Y-10009423D02*
X16353589Y-10039423D01*
X16353589Y-10009423D02*
X16323589Y-10039423D01*
X16365000Y-8041250D02*
X16395000Y-8071250D01*
X16395000Y-8041250D02*
X16365000Y-8071250D01*
X16415000Y-10258750D02*
X16445000Y-10288750D01*
X16445000Y-10258750D02*
X16415000Y-10288750D01*
X16415000Y-10438750D02*
X16445000Y-10468750D01*
X16445000Y-10438750D02*
X16415000Y-10468750D01*
X16460000Y-7338750D02*
X16490000Y-7368750D01*
X16490000Y-7338750D02*
X16460000Y-7368750D01*
X16502339Y-9759423D02*
X16532339Y-9789423D01*
X16532339Y-9759423D02*
X16502339Y-9789423D01*
X16641606Y-8922873D02*
X16671606Y-8952873D01*
X16671606Y-8922873D02*
X16641606Y-8952873D01*
X16642500Y-9361250D02*
X16672500Y-9391250D01*
X16672500Y-9361250D02*
X16642500Y-9391250D01*
X16705000Y-6016250D02*
X16735000Y-6046250D01*
X16735000Y-6016250D02*
X16705000Y-6046250D01*
X16773589Y-9894423D02*
X16803589Y-9924423D01*
X16803589Y-9894423D02*
X16773589Y-9924423D01*
X16920000Y-10009423D02*
X16950000Y-10039423D01*
X16950000Y-10009423D02*
X16920000Y-10039423D01*
X17098750Y-9759423D02*
X17128750Y-9789423D01*
X17128750Y-9759423D02*
X17098750Y-9789423D01*
X17175000Y-10258750D02*
X17205000Y-10288750D01*
X17205000Y-10258750D02*
X17175000Y-10288750D01*
X17175000Y-10438750D02*
X17205000Y-10468750D01*
X17205000Y-10438750D02*
X17175000Y-10468750D01*
X17335000Y-8921250D02*
X17365000Y-8951250D01*
X17365000Y-8921250D02*
X17335000Y-8951250D01*
X17370000Y-9894423D02*
X17400000Y-9924423D01*
X17400000Y-9894423D02*
X17370000Y-9924423D01*
X17435000Y-10448750D02*
X17465000Y-10478750D01*
X17465000Y-10448750D02*
X17435000Y-10478750D01*
X17634250Y-10009423D02*
X17664250Y-10039423D01*
X17664250Y-10009423D02*
X17634250Y-10039423D01*
X17665000Y-10176923D02*
X17695000Y-10206923D01*
X17695000Y-10176923D02*
X17665000Y-10206923D01*
X17813000Y-9759423D02*
X17843000Y-9789423D01*
X17843000Y-9759423D02*
X17813000Y-9789423D01*
X18084250Y-9894423D02*
X18114250Y-9924423D01*
X18114250Y-9894423D02*
X18084250Y-9924423D01*
X18296713Y-10009423D02*
X18326713Y-10039423D01*
X18326713Y-10009423D02*
X18296713Y-10039423D01*
X18314150Y-10181313D02*
X18344150Y-10211313D01*
X18344150Y-10181313D02*
X18314150Y-10211313D01*
X18475463Y-9759423D02*
X18505463Y-9789423D01*
X18505463Y-9759423D02*
X18475463Y-9789423D01*
X18746713Y-9894423D02*
X18776713Y-9924423D01*
X18776713Y-9894423D02*
X18746713Y-9924423D01*
X12260000Y-9623750D02*
G75*
G02*
X12180000Y-9623750I-40000J0D01*
G01*
X12180000Y-9623750D02*
G75*
G02*
X12260000Y-9623750I40000J0D01*
G01*
X12260000Y-9873750D02*
G75*
G02*
X12180000Y-9873750I-40000J0D01*
G01*
X12180000Y-9873750D02*
G75*
G02*
X12260000Y-9873750I40000J0D01*
G01*
X11280000Y-6683750D02*
X11280000Y-6773750D01*
X11235000Y-6728750D02*
X11325000Y-6728750D01*
X11280000Y-7083750D02*
X11280000Y-7173750D01*
X11235000Y-7128750D02*
X11325000Y-7128750D01*
X12074588Y-8367338D02*
X12074588Y-8300162D01*
X12007412Y-8300162D01*
X12007412Y-8367338D01*
X12074588Y-8367338D01*
X12074588Y-8617338D02*
X12074588Y-8550162D01*
X12007412Y-8550162D01*
X12007412Y-8617338D01*
X12074588Y-8617338D01*
X12074588Y-8817338D02*
X12074588Y-8750162D01*
X12007412Y-8750162D01*
X12007412Y-8817338D01*
X12074588Y-8817338D01*
X12074588Y-9067338D02*
X12074588Y-9000162D01*
X12007412Y-9000162D01*
X12007412Y-9067338D01*
X12074588Y-9067338D01*
X12260000Y-5963750D02*
X12310000Y-5913750D01*
X12260000Y-5863750D01*
X12210000Y-5913750D01*
X12260000Y-5963750D01*
X12514000Y-5963750D02*
X12564000Y-5913750D01*
X12514000Y-5863750D01*
X12464000Y-5913750D01*
X12514000Y-5963750D01*
X12768000Y-5963750D02*
X12818000Y-5913750D01*
X12768000Y-5863750D01*
X12718000Y-5913750D01*
X12768000Y-5963750D01*
X13022000Y-5963750D02*
X13072000Y-5913750D01*
X13022000Y-5863750D01*
X12972000Y-5913750D01*
X13022000Y-5963750D01*
X13276000Y-5963750D02*
X13326000Y-5913750D01*
X13276000Y-5863750D01*
X13226000Y-5913750D01*
X13276000Y-5963750D01*
X13276000Y-9128750D02*
X13326000Y-9078750D01*
X13276000Y-9028750D01*
X13226000Y-9078750D01*
X13276000Y-9128750D01*
X13276000Y-9382750D02*
X13326000Y-9332750D01*
X13276000Y-9282750D01*
X13226000Y-9332750D01*
X13276000Y-9382750D01*
X13763000Y-10764750D02*
X13813000Y-10714750D01*
X13763000Y-10664750D01*
X13713000Y-10714750D01*
X13763000Y-10764750D01*
X13763000Y-11018750D02*
X13813000Y-10968750D01*
X13763000Y-10918750D01*
X13713000Y-10968750D01*
X13763000Y-11018750D01*
X14017000Y-10764750D02*
X14067000Y-10714750D01*
X14017000Y-10664750D01*
X13967000Y-10714750D01*
X14017000Y-10764750D01*
X14017000Y-11018750D02*
X14067000Y-10968750D01*
X14017000Y-10918750D01*
X13967000Y-10968750D01*
X14017000Y-11018750D01*
X14271000Y-10764750D02*
X14321000Y-10714750D01*
X14271000Y-10664750D01*
X14221000Y-10714750D01*
X14271000Y-10764750D01*
X14271000Y-11018750D02*
X14321000Y-10968750D01*
X14271000Y-10918750D01*
X14221000Y-10968750D01*
X14271000Y-11018750D01*
X14525000Y-10764750D02*
X14575000Y-10714750D01*
X14525000Y-10664750D01*
X14475000Y-10714750D01*
X14525000Y-10764750D01*
X14525000Y-11018750D02*
X14575000Y-10968750D01*
X14525000Y-10918750D01*
X14475000Y-10968750D01*
X14525000Y-11018750D01*
X14779000Y-9761974D02*
X14829000Y-9711974D01*
X14779000Y-9661974D01*
X14729000Y-9711974D01*
X14779000Y-9761974D01*
X14779000Y-10015974D02*
X14829000Y-9965974D01*
X14779000Y-9915974D01*
X14729000Y-9965974D01*
X14779000Y-10015974D01*
X14779000Y-10764750D02*
X14829000Y-10714750D01*
X14779000Y-10664750D01*
X14729000Y-10714750D01*
X14779000Y-10764750D01*
X14779000Y-11018750D02*
X14829000Y-10968750D01*
X14779000Y-10918750D01*
X14729000Y-10968750D01*
X14779000Y-11018750D01*
X14879000Y-6588750D02*
X14929000Y-6538750D01*
X14879000Y-6488750D01*
X14829000Y-6538750D01*
X14879000Y-6588750D01*
X15033000Y-9761974D02*
X15083000Y-9711974D01*
X15033000Y-9661974D01*
X14983000Y-9711974D01*
X15033000Y-9761974D01*
X15033000Y-10015974D02*
X15083000Y-9965974D01*
X15033000Y-9915974D01*
X14983000Y-9965974D01*
X15033000Y-10015974D01*
X15033000Y-10764750D02*
X15083000Y-10714750D01*
X15033000Y-10664750D01*
X14983000Y-10714750D01*
X15033000Y-10764750D01*
X15033000Y-11018750D02*
X15083000Y-10968750D01*
X15033000Y-10918750D01*
X14983000Y-10968750D01*
X15033000Y-11018750D01*
X15133000Y-6588750D02*
X15183000Y-6538750D01*
X15133000Y-6488750D01*
X15083000Y-6538750D01*
X15133000Y-6588750D01*
X15287000Y-9761974D02*
X15337000Y-9711974D01*
X15287000Y-9661974D01*
X15237000Y-9711974D01*
X15287000Y-9761974D01*
X15287000Y-10015974D02*
X15337000Y-9965974D01*
X15287000Y-9915974D01*
X15237000Y-9965974D01*
X15287000Y-10015974D01*
X15287000Y-10764750D02*
X15337000Y-10714750D01*
X15287000Y-10664750D01*
X15237000Y-10714750D01*
X15287000Y-10764750D01*
X15287000Y-11018750D02*
X15337000Y-10968750D01*
X15287000Y-10918750D01*
X15237000Y-10968750D01*
X15287000Y-11018750D01*
X15387000Y-6588750D02*
X15437000Y-6538750D01*
X15387000Y-6488750D01*
X15337000Y-6538750D01*
X15387000Y-6588750D01*
X15541000Y-9761974D02*
X15591000Y-9711974D01*
X15541000Y-9661974D01*
X15491000Y-9711974D01*
X15541000Y-9761974D01*
X15541000Y-10015974D02*
X15591000Y-9965974D01*
X15541000Y-9915974D01*
X15491000Y-9965974D01*
X15541000Y-10015974D01*
X15541000Y-10764750D02*
X15591000Y-10714750D01*
X15541000Y-10664750D01*
X15491000Y-10714750D01*
X15541000Y-10764750D01*
X15541000Y-11018750D02*
X15591000Y-10968750D01*
X15541000Y-10918750D01*
X15491000Y-10968750D01*
X15541000Y-11018750D01*
X15641000Y-6588750D02*
X15691000Y-6538750D01*
X15641000Y-6488750D01*
X15591000Y-6538750D01*
X15641000Y-6588750D01*
X15795000Y-9761974D02*
X15845000Y-9711974D01*
X15795000Y-9661974D01*
X15745000Y-9711974D01*
X15795000Y-9761974D01*
X15795000Y-10015974D02*
X15845000Y-9965974D01*
X15795000Y-9915974D01*
X15745000Y-9965974D01*
X15795000Y-10015974D01*
X15795000Y-10764750D02*
X15845000Y-10714750D01*
X15795000Y-10664750D01*
X15745000Y-10714750D01*
X15795000Y-10764750D01*
X15795000Y-11018750D02*
X15845000Y-10968750D01*
X15795000Y-10918750D01*
X15745000Y-10968750D01*
X15795000Y-11018750D01*
X16049000Y-10764750D02*
X16099000Y-10714750D01*
X16049000Y-10664750D01*
X15999000Y-10714750D01*
X16049000Y-10764750D01*
X16049000Y-11018750D02*
X16099000Y-10968750D01*
X16049000Y-10918750D01*
X15999000Y-10968750D01*
X16049000Y-11018750D01*
X16303000Y-10764750D02*
X16353000Y-10714750D01*
X16303000Y-10664750D01*
X16253000Y-10714750D01*
X16303000Y-10764750D01*
X16303000Y-11018750D02*
X16353000Y-10968750D01*
X16303000Y-10918750D01*
X16253000Y-10968750D01*
X16303000Y-11018750D01*
X16557000Y-10764750D02*
X16607000Y-10714750D01*
X16557000Y-10664750D01*
X16507000Y-10714750D01*
X16557000Y-10764750D01*
X16557000Y-11018750D02*
X16607000Y-10968750D01*
X16557000Y-10918750D01*
X16507000Y-10968750D01*
X16557000Y-11018750D01*
X16811000Y-10764750D02*
X16861000Y-10714750D01*
X16811000Y-10664750D01*
X16761000Y-10714750D01*
X16811000Y-10764750D01*
X16811000Y-11018750D02*
X16861000Y-10968750D01*
X16811000Y-10918750D01*
X16761000Y-10968750D01*
X16811000Y-11018750D01*
X17031000Y-5963750D02*
X17081000Y-5913750D01*
X17031000Y-5863750D01*
X16981000Y-5913750D01*
X17031000Y-5963750D01*
X17065000Y-10764750D02*
X17115000Y-10714750D01*
X17065000Y-10664750D01*
X17015000Y-10714750D01*
X17065000Y-10764750D01*
X17065000Y-11018750D02*
X17115000Y-10968750D01*
X17065000Y-10918750D01*
X17015000Y-10968750D01*
X17065000Y-11018750D01*
X17285000Y-5963750D02*
X17335000Y-5913750D01*
X17285000Y-5863750D01*
X17235000Y-5913750D01*
X17285000Y-5963750D01*
X17319000Y-10764750D02*
X17369000Y-10714750D01*
X17319000Y-10664750D01*
X17269000Y-10714750D01*
X17319000Y-10764750D01*
X17319000Y-11018750D02*
X17369000Y-10968750D01*
X17319000Y-10918750D01*
X17269000Y-10968750D01*
X17319000Y-11018750D01*
X17539000Y-5963750D02*
X17589000Y-5913750D01*
X17539000Y-5863750D01*
X17489000Y-5913750D01*
X17539000Y-5963750D01*
X17573000Y-10764750D02*
X17623000Y-10714750D01*
X17573000Y-10664750D01*
X17523000Y-10714750D01*
X17573000Y-10764750D01*
X17573000Y-11018750D02*
X17623000Y-10968750D01*
X17573000Y-10918750D01*
X17523000Y-10968750D01*
X17573000Y-11018750D01*
X17793000Y-5963750D02*
X17843000Y-5913750D01*
X17793000Y-5863750D01*
X17743000Y-5913750D01*
X17793000Y-5963750D01*
X17827000Y-10764750D02*
X17877000Y-10714750D01*
X17827000Y-10664750D01*
X17777000Y-10714750D01*
X17827000Y-10764750D01*
X17827000Y-11018750D02*
X17877000Y-10968750D01*
X17827000Y-10918750D01*
X17777000Y-10968750D01*
X17827000Y-11018750D01*
X18047000Y-5963750D02*
X18097000Y-5913750D01*
X18047000Y-5863750D01*
X17997000Y-5913750D01*
X18047000Y-5963750D01*
D12*
X17930000Y-7268750D02*
X18040000Y-7378750D01*
X18040000Y-7268750D02*
X17930000Y-7378750D01*
X18040000Y-7323750D02*
G75*
G02*
X17930000Y-7323750I-55000J0D01*
G01*
X17930000Y-7323750D02*
G75*
G02*
X18040000Y-7323750I55000J0D01*
G01*
X17930000Y-8718750D02*
X18040000Y-8828750D01*
X18040000Y-8718750D02*
X17930000Y-8828750D01*
X18040000Y-8773750D02*
G75*
G02*
X17930000Y-8773750I-55000J0D01*
G01*
X17930000Y-8773750D02*
G75*
G02*
X18040000Y-8773750I55000J0D01*
G01*
X18180000Y-8718750D02*
X18290000Y-8828750D01*
X18290000Y-8718750D02*
X18180000Y-8828750D01*
X18290000Y-8773750D02*
G75*
G02*
X18180000Y-8773750I-55000J0D01*
G01*
X18180000Y-8773750D02*
G75*
G02*
X18290000Y-8773750I55000J0D01*
G01*
X18430000Y-7268750D02*
X18540000Y-7378750D01*
X18540000Y-7268750D02*
X18430000Y-7378750D01*
X18540000Y-7323750D02*
G75*
G02*
X18430000Y-7323750I-55000J0D01*
G01*
X18430000Y-7323750D02*
G75*
G02*
X18540000Y-7323750I55000J0D01*
G01*
X18430000Y-8718750D02*
X18540000Y-8828750D01*
X18540000Y-8718750D02*
X18430000Y-8828750D01*
X18540000Y-8773750D02*
G75*
G02*
X18430000Y-8773750I-55000J0D01*
G01*
X18430000Y-8773750D02*
G75*
G02*
X18540000Y-8773750I55000J0D01*
G01*
D13*
X11760000Y-10253750D02*
X11880000Y-10373750D01*
X11880000Y-10253750D02*
X11760000Y-10373750D01*
X11820000Y-10253750D02*
X11820000Y-10373750D01*
X11760000Y-10313750D02*
X11880000Y-10313750D01*
X12010000Y-10253750D02*
X12130000Y-10373750D01*
X12130000Y-10253750D02*
X12010000Y-10373750D01*
X12070000Y-10253750D02*
X12070000Y-10373750D01*
X12010000Y-10313750D02*
X12130000Y-10313750D01*
X12260000Y-10253750D02*
X12380000Y-10373750D01*
X12380000Y-10253750D02*
X12260000Y-10373750D01*
X12320000Y-10253750D02*
X12320000Y-10373750D01*
X12260000Y-10313750D02*
X12380000Y-10313750D01*
X12510000Y-10253750D02*
X12630000Y-10373750D01*
X12630000Y-10253750D02*
X12510000Y-10373750D01*
X12570000Y-10253750D02*
X12570000Y-10373750D01*
X12510000Y-10313750D02*
X12630000Y-10313750D01*
D14*
X11655000Y-7911750D02*
X11885000Y-8141750D01*
X11885000Y-7911750D02*
X11655000Y-8141750D01*
X11851318Y-8108068D02*
X11851318Y-7945432D01*
X11688682Y-7945432D01*
X11688682Y-8108068D01*
X11851318Y-8108068D01*
X11655000Y-9225750D02*
X11885000Y-9455750D01*
X11885000Y-9225750D02*
X11655000Y-9455750D01*
X11851318Y-9422068D02*
X11851318Y-9259432D01*
X11688682Y-9259432D01*
X11688682Y-9422068D01*
X11851318Y-9422068D01*
D11*
X10979777Y-11790234D02*
X10979777Y-11590234D01*
X10979777Y-11590234D02*
X11027396Y-11590234D01*
X11027396Y-11590234D02*
X11055967Y-11599758D01*
X11055967Y-11599758D02*
X11075015Y-11618805D01*
X11075015Y-11618805D02*
X11084539Y-11637853D01*
X11084539Y-11637853D02*
X11094063Y-11675948D01*
X11094063Y-11675948D02*
X11094063Y-11704519D01*
X11094063Y-11704519D02*
X11084539Y-11742615D01*
X11084539Y-11742615D02*
X11075015Y-11761662D01*
X11075015Y-11761662D02*
X11055967Y-11780710D01*
X11055967Y-11780710D02*
X11027396Y-11790234D01*
X11027396Y-11790234D02*
X10979777Y-11790234D01*
X11179777Y-11790234D02*
X11179777Y-11656900D01*
X11179777Y-11694996D02*
X11189301Y-11675948D01*
X11189301Y-11675948D02*
X11198824Y-11666424D01*
X11198824Y-11666424D02*
X11217872Y-11656900D01*
X11217872Y-11656900D02*
X11236920Y-11656900D01*
X11303586Y-11790234D02*
X11303586Y-11656900D01*
X11303586Y-11590234D02*
X11294062Y-11599758D01*
X11294062Y-11599758D02*
X11303586Y-11609281D01*
X11303586Y-11609281D02*
X11313110Y-11599758D01*
X11313110Y-11599758D02*
X11303586Y-11590234D01*
X11303586Y-11590234D02*
X11303586Y-11609281D01*
X11427396Y-11790234D02*
X11408348Y-11780710D01*
X11408348Y-11780710D02*
X11398824Y-11761662D01*
X11398824Y-11761662D02*
X11398824Y-11590234D01*
X11532158Y-11790234D02*
X11513110Y-11780710D01*
X11513110Y-11780710D02*
X11503586Y-11761662D01*
X11503586Y-11761662D02*
X11503586Y-11590234D01*
X11760729Y-11790234D02*
X11760729Y-11590234D01*
X11760729Y-11590234D02*
X11827396Y-11733091D01*
X11827396Y-11733091D02*
X11894062Y-11590234D01*
X11894062Y-11590234D02*
X11894062Y-11790234D01*
X12075015Y-11790234D02*
X12075015Y-11685472D01*
X12075015Y-11685472D02*
X12065491Y-11666424D01*
X12065491Y-11666424D02*
X12046443Y-11656900D01*
X12046443Y-11656900D02*
X12008348Y-11656900D01*
X12008348Y-11656900D02*
X11989301Y-11666424D01*
X12075015Y-11780710D02*
X12055967Y-11790234D01*
X12055967Y-11790234D02*
X12008348Y-11790234D01*
X12008348Y-11790234D02*
X11989301Y-11780710D01*
X11989301Y-11780710D02*
X11979777Y-11761662D01*
X11979777Y-11761662D02*
X11979777Y-11742615D01*
X11979777Y-11742615D02*
X11989301Y-11723567D01*
X11989301Y-11723567D02*
X12008348Y-11714043D01*
X12008348Y-11714043D02*
X12055967Y-11714043D01*
X12055967Y-11714043D02*
X12075015Y-11704519D01*
X12170253Y-11656900D02*
X12170253Y-11856900D01*
X12170253Y-11666424D02*
X12189301Y-11656900D01*
X12189301Y-11656900D02*
X12227396Y-11656900D01*
X12227396Y-11656900D02*
X12246443Y-11666424D01*
X12246443Y-11666424D02*
X12255967Y-11675948D01*
X12255967Y-11675948D02*
X12265491Y-11694996D01*
X12265491Y-11694996D02*
X12265491Y-11752138D01*
X12265491Y-11752138D02*
X12255967Y-11771186D01*
X12255967Y-11771186D02*
X12246443Y-11780710D01*
X12246443Y-11780710D02*
X12227396Y-11790234D01*
X12227396Y-11790234D02*
X12189301Y-11790234D01*
X12189301Y-11790234D02*
X12170253Y-11780710D01*
X12351205Y-11771186D02*
X12360729Y-11780710D01*
X12360729Y-11780710D02*
X12351205Y-11790234D01*
X12351205Y-11790234D02*
X12341682Y-11780710D01*
X12341682Y-11780710D02*
X12351205Y-11771186D01*
X12351205Y-11771186D02*
X12351205Y-11790234D01*
X12351205Y-11666424D02*
X12360729Y-11675948D01*
X12360729Y-11675948D02*
X12351205Y-11685472D01*
X12351205Y-11685472D02*
X12341682Y-11675948D01*
X12341682Y-11675948D02*
X12351205Y-11666424D01*
X12351205Y-11666424D02*
X12351205Y-11685472D01*
D10*
X10689000Y-12103750D02*
X10719000Y-12133750D01*
X10719000Y-12103750D02*
X10689000Y-12133750D01*
D11*
X11017872Y-12010234D02*
X11036920Y-12010234D01*
X11036920Y-12010234D02*
X11055967Y-12019758D01*
X11055967Y-12019758D02*
X11065491Y-12029281D01*
X11065491Y-12029281D02*
X11075015Y-12048329D01*
X11075015Y-12048329D02*
X11084539Y-12086424D01*
X11084539Y-12086424D02*
X11084539Y-12134043D01*
X11084539Y-12134043D02*
X11075015Y-12172138D01*
X11075015Y-12172138D02*
X11065491Y-12191186D01*
X11065491Y-12191186D02*
X11055967Y-12200710D01*
X11055967Y-12200710D02*
X11036920Y-12210234D01*
X11036920Y-12210234D02*
X11017872Y-12210234D01*
X11017872Y-12210234D02*
X10998824Y-12200710D01*
X10998824Y-12200710D02*
X10989301Y-12191186D01*
X10989301Y-12191186D02*
X10979777Y-12172138D01*
X10979777Y-12172138D02*
X10970253Y-12134043D01*
X10970253Y-12134043D02*
X10970253Y-12086424D01*
X10970253Y-12086424D02*
X10979777Y-12048329D01*
X10979777Y-12048329D02*
X10989301Y-12029281D01*
X10989301Y-12029281D02*
X10998824Y-12019758D01*
X10998824Y-12019758D02*
X11017872Y-12010234D01*
X11170253Y-12191186D02*
X11179777Y-12200710D01*
X11179777Y-12200710D02*
X11170253Y-12210234D01*
X11170253Y-12210234D02*
X11160729Y-12200710D01*
X11160729Y-12200710D02*
X11170253Y-12191186D01*
X11170253Y-12191186D02*
X11170253Y-12210234D01*
X11246443Y-12010234D02*
X11370253Y-12010234D01*
X11370253Y-12010234D02*
X11303586Y-12086424D01*
X11303586Y-12086424D02*
X11332158Y-12086424D01*
X11332158Y-12086424D02*
X11351205Y-12095948D01*
X11351205Y-12095948D02*
X11360729Y-12105472D01*
X11360729Y-12105472D02*
X11370253Y-12124519D01*
X11370253Y-12124519D02*
X11370253Y-12172138D01*
X11370253Y-12172138D02*
X11360729Y-12191186D01*
X11360729Y-12191186D02*
X11351205Y-12200710D01*
X11351205Y-12200710D02*
X11332158Y-12210234D01*
X11332158Y-12210234D02*
X11275015Y-12210234D01*
X11275015Y-12210234D02*
X11255967Y-12200710D01*
X11255967Y-12200710D02*
X11246443Y-12191186D01*
X11494062Y-12010234D02*
X11513110Y-12010234D01*
X11513110Y-12010234D02*
X11532158Y-12019758D01*
X11532158Y-12019758D02*
X11541682Y-12029281D01*
X11541682Y-12029281D02*
X11551205Y-12048329D01*
X11551205Y-12048329D02*
X11560729Y-12086424D01*
X11560729Y-12086424D02*
X11560729Y-12134043D01*
X11560729Y-12134043D02*
X11551205Y-12172138D01*
X11551205Y-12172138D02*
X11541682Y-12191186D01*
X11541682Y-12191186D02*
X11532158Y-12200710D01*
X11532158Y-12200710D02*
X11513110Y-12210234D01*
X11513110Y-12210234D02*
X11494062Y-12210234D01*
X11494062Y-12210234D02*
X11475015Y-12200710D01*
X11475015Y-12200710D02*
X11465491Y-12191186D01*
X11465491Y-12191186D02*
X11455967Y-12172138D01*
X11455967Y-12172138D02*
X11446443Y-12134043D01*
X11446443Y-12134043D02*
X11446443Y-12086424D01*
X11446443Y-12086424D02*
X11455967Y-12048329D01*
X11455967Y-12048329D02*
X11465491Y-12029281D01*
X11465491Y-12029281D02*
X11475015Y-12019758D01*
X11475015Y-12019758D02*
X11494062Y-12010234D01*
X11684539Y-12010234D02*
X11703586Y-12010234D01*
X11703586Y-12010234D02*
X11722634Y-12019758D01*
X11722634Y-12019758D02*
X11732158Y-12029281D01*
X11732158Y-12029281D02*
X11741682Y-12048329D01*
X11741682Y-12048329D02*
X11751205Y-12086424D01*
X11751205Y-12086424D02*
X11751205Y-12134043D01*
X11751205Y-12134043D02*
X11741682Y-12172138D01*
X11741682Y-12172138D02*
X11732158Y-12191186D01*
X11732158Y-12191186D02*
X11722634Y-12200710D01*
X11722634Y-12200710D02*
X11703586Y-12210234D01*
X11703586Y-12210234D02*
X11684539Y-12210234D01*
X11684539Y-12210234D02*
X11665491Y-12200710D01*
X11665491Y-12200710D02*
X11655967Y-12191186D01*
X11655967Y-12191186D02*
X11646443Y-12172138D01*
X11646443Y-12172138D02*
X11636920Y-12134043D01*
X11636920Y-12134043D02*
X11636920Y-12086424D01*
X11636920Y-12086424D02*
X11646443Y-12048329D01*
X11646443Y-12048329D02*
X11655967Y-12029281D01*
X11655967Y-12029281D02*
X11665491Y-12019758D01*
X11665491Y-12019758D02*
X11684539Y-12010234D01*
X11836920Y-12210234D02*
X11836920Y-12076900D01*
X11836920Y-12095948D02*
X11846443Y-12086424D01*
X11846443Y-12086424D02*
X11865491Y-12076900D01*
X11865491Y-12076900D02*
X11894063Y-12076900D01*
X11894063Y-12076900D02*
X11913110Y-12086424D01*
X11913110Y-12086424D02*
X11922634Y-12105472D01*
X11922634Y-12105472D02*
X11922634Y-12210234D01*
X11922634Y-12105472D02*
X11932158Y-12086424D01*
X11932158Y-12086424D02*
X11951205Y-12076900D01*
X11951205Y-12076900D02*
X11979777Y-12076900D01*
X11979777Y-12076900D02*
X11998824Y-12086424D01*
X11998824Y-12086424D02*
X12008348Y-12105472D01*
X12008348Y-12105472D02*
X12008348Y-12210234D01*
X12103586Y-12210234D02*
X12103586Y-12076900D01*
X12103586Y-12095948D02*
X12113110Y-12086424D01*
X12113110Y-12086424D02*
X12132158Y-12076900D01*
X12132158Y-12076900D02*
X12160729Y-12076900D01*
X12160729Y-12076900D02*
X12179777Y-12086424D01*
X12179777Y-12086424D02*
X12189301Y-12105472D01*
X12189301Y-12105472D02*
X12189301Y-12210234D01*
X12189301Y-12105472D02*
X12198824Y-12086424D01*
X12198824Y-12086424D02*
X12217872Y-12076900D01*
X12217872Y-12076900D02*
X12246443Y-12076900D01*
X12246443Y-12076900D02*
X12265491Y-12086424D01*
X12265491Y-12086424D02*
X12275015Y-12105472D01*
X12275015Y-12105472D02*
X12275015Y-12210234D01*
X12665491Y-12000710D02*
X12494063Y-12257853D01*
X12922634Y-12010234D02*
X12941682Y-12010234D01*
X12941682Y-12010234D02*
X12960729Y-12019758D01*
X12960729Y-12019758D02*
X12970253Y-12029281D01*
X12970253Y-12029281D02*
X12979777Y-12048329D01*
X12979777Y-12048329D02*
X12989301Y-12086424D01*
X12989301Y-12086424D02*
X12989301Y-12134043D01*
X12989301Y-12134043D02*
X12979777Y-12172138D01*
X12979777Y-12172138D02*
X12970253Y-12191186D01*
X12970253Y-12191186D02*
X12960729Y-12200710D01*
X12960729Y-12200710D02*
X12941682Y-12210234D01*
X12941682Y-12210234D02*
X12922634Y-12210234D01*
X12922634Y-12210234D02*
X12903586Y-12200710D01*
X12903586Y-12200710D02*
X12894063Y-12191186D01*
X12894063Y-12191186D02*
X12884539Y-12172138D01*
X12884539Y-12172138D02*
X12875015Y-12134043D01*
X12875015Y-12134043D02*
X12875015Y-12086424D01*
X12875015Y-12086424D02*
X12884539Y-12048329D01*
X12884539Y-12048329D02*
X12894063Y-12029281D01*
X12894063Y-12029281D02*
X12903586Y-12019758D01*
X12903586Y-12019758D02*
X12922634Y-12010234D01*
X13075015Y-12191186D02*
X13084539Y-12200710D01*
X13084539Y-12200710D02*
X13075015Y-12210234D01*
X13075015Y-12210234D02*
X13065491Y-12200710D01*
X13065491Y-12200710D02*
X13075015Y-12191186D01*
X13075015Y-12191186D02*
X13075015Y-12210234D01*
X13208348Y-12010234D02*
X13227396Y-12010234D01*
X13227396Y-12010234D02*
X13246444Y-12019758D01*
X13246444Y-12019758D02*
X13255967Y-12029281D01*
X13255967Y-12029281D02*
X13265491Y-12048329D01*
X13265491Y-12048329D02*
X13275015Y-12086424D01*
X13275015Y-12086424D02*
X13275015Y-12134043D01*
X13275015Y-12134043D02*
X13265491Y-12172138D01*
X13265491Y-12172138D02*
X13255967Y-12191186D01*
X13255967Y-12191186D02*
X13246444Y-12200710D01*
X13246444Y-12200710D02*
X13227396Y-12210234D01*
X13227396Y-12210234D02*
X13208348Y-12210234D01*
X13208348Y-12210234D02*
X13189301Y-12200710D01*
X13189301Y-12200710D02*
X13179777Y-12191186D01*
X13179777Y-12191186D02*
X13170253Y-12172138D01*
X13170253Y-12172138D02*
X13160729Y-12134043D01*
X13160729Y-12134043D02*
X13160729Y-12086424D01*
X13160729Y-12086424D02*
X13170253Y-12048329D01*
X13170253Y-12048329D02*
X13179777Y-12029281D01*
X13179777Y-12029281D02*
X13189301Y-12019758D01*
X13189301Y-12019758D02*
X13208348Y-12010234D01*
X13465491Y-12210234D02*
X13351206Y-12210234D01*
X13408348Y-12210234D02*
X13408348Y-12010234D01*
X13408348Y-12010234D02*
X13389301Y-12038805D01*
X13389301Y-12038805D02*
X13370253Y-12057853D01*
X13370253Y-12057853D02*
X13351206Y-12067377D01*
X13655967Y-12210234D02*
X13541682Y-12210234D01*
X13598825Y-12210234D02*
X13598825Y-12010234D01*
X13598825Y-12010234D02*
X13579777Y-12038805D01*
X13579777Y-12038805D02*
X13560729Y-12057853D01*
X13560729Y-12057853D02*
X13541682Y-12067377D01*
X13770253Y-12095948D02*
X13751206Y-12086424D01*
X13751206Y-12086424D02*
X13741682Y-12076900D01*
X13741682Y-12076900D02*
X13732158Y-12057853D01*
X13732158Y-12057853D02*
X13732158Y-12048329D01*
X13732158Y-12048329D02*
X13741682Y-12029281D01*
X13741682Y-12029281D02*
X13751206Y-12019758D01*
X13751206Y-12019758D02*
X13770253Y-12010234D01*
X13770253Y-12010234D02*
X13808348Y-12010234D01*
X13808348Y-12010234D02*
X13827396Y-12019758D01*
X13827396Y-12019758D02*
X13836920Y-12029281D01*
X13836920Y-12029281D02*
X13846444Y-12048329D01*
X13846444Y-12048329D02*
X13846444Y-12057853D01*
X13846444Y-12057853D02*
X13836920Y-12076900D01*
X13836920Y-12076900D02*
X13827396Y-12086424D01*
X13827396Y-12086424D02*
X13808348Y-12095948D01*
X13808348Y-12095948D02*
X13770253Y-12095948D01*
X13770253Y-12095948D02*
X13751206Y-12105472D01*
X13751206Y-12105472D02*
X13741682Y-12114996D01*
X13741682Y-12114996D02*
X13732158Y-12134043D01*
X13732158Y-12134043D02*
X13732158Y-12172138D01*
X13732158Y-12172138D02*
X13741682Y-12191186D01*
X13741682Y-12191186D02*
X13751206Y-12200710D01*
X13751206Y-12200710D02*
X13770253Y-12210234D01*
X13770253Y-12210234D02*
X13808348Y-12210234D01*
X13808348Y-12210234D02*
X13827396Y-12200710D01*
X13827396Y-12200710D02*
X13836920Y-12191186D01*
X13836920Y-12191186D02*
X13846444Y-12172138D01*
X13846444Y-12172138D02*
X13846444Y-12134043D01*
X13846444Y-12134043D02*
X13836920Y-12114996D01*
X13836920Y-12114996D02*
X13827396Y-12105472D01*
X13827396Y-12105472D02*
X13808348Y-12095948D01*
X13922634Y-12010234D02*
X13922634Y-12048329D01*
X13998825Y-12010234D02*
X13998825Y-12048329D01*
X14294063Y-12286424D02*
X14284539Y-12276900D01*
X14284539Y-12276900D02*
X14265491Y-12248329D01*
X14265491Y-12248329D02*
X14255968Y-12229281D01*
X14255968Y-12229281D02*
X14246444Y-12200710D01*
X14246444Y-12200710D02*
X14236920Y-12153091D01*
X14236920Y-12153091D02*
X14236920Y-12114996D01*
X14236920Y-12114996D02*
X14246444Y-12067377D01*
X14246444Y-12067377D02*
X14255968Y-12038805D01*
X14255968Y-12038805D02*
X14265491Y-12019758D01*
X14265491Y-12019758D02*
X14284539Y-11991186D01*
X14284539Y-11991186D02*
X14294063Y-11981662D01*
X14475015Y-12210234D02*
X14360729Y-12210234D01*
X14417872Y-12210234D02*
X14417872Y-12010234D01*
X14417872Y-12010234D02*
X14398825Y-12038805D01*
X14398825Y-12038805D02*
X14379777Y-12057853D01*
X14379777Y-12057853D02*
X14360729Y-12067377D01*
X14551206Y-12029281D02*
X14560729Y-12019758D01*
X14560729Y-12019758D02*
X14579777Y-12010234D01*
X14579777Y-12010234D02*
X14627396Y-12010234D01*
X14627396Y-12010234D02*
X14646444Y-12019758D01*
X14646444Y-12019758D02*
X14655968Y-12029281D01*
X14655968Y-12029281D02*
X14665491Y-12048329D01*
X14665491Y-12048329D02*
X14665491Y-12067377D01*
X14665491Y-12067377D02*
X14655968Y-12095948D01*
X14655968Y-12095948D02*
X14541682Y-12210234D01*
X14541682Y-12210234D02*
X14665491Y-12210234D01*
X14741682Y-12029281D02*
X14751206Y-12019758D01*
X14751206Y-12019758D02*
X14770253Y-12010234D01*
X14770253Y-12010234D02*
X14817872Y-12010234D01*
X14817872Y-12010234D02*
X14836920Y-12019758D01*
X14836920Y-12019758D02*
X14846444Y-12029281D01*
X14846444Y-12029281D02*
X14855968Y-12048329D01*
X14855968Y-12048329D02*
X14855968Y-12067377D01*
X14855968Y-12067377D02*
X14846444Y-12095948D01*
X14846444Y-12095948D02*
X14732158Y-12210234D01*
X14732158Y-12210234D02*
X14855968Y-12210234D01*
X15094063Y-12210234D02*
X15094063Y-12010234D01*
X15179777Y-12210234D02*
X15179777Y-12105472D01*
X15179777Y-12105472D02*
X15170253Y-12086424D01*
X15170253Y-12086424D02*
X15151206Y-12076900D01*
X15151206Y-12076900D02*
X15122634Y-12076900D01*
X15122634Y-12076900D02*
X15103587Y-12086424D01*
X15103587Y-12086424D02*
X15094063Y-12095948D01*
X15303587Y-12210234D02*
X15284539Y-12200710D01*
X15284539Y-12200710D02*
X15275015Y-12191186D01*
X15275015Y-12191186D02*
X15265491Y-12172138D01*
X15265491Y-12172138D02*
X15265491Y-12114996D01*
X15265491Y-12114996D02*
X15275015Y-12095948D01*
X15275015Y-12095948D02*
X15284539Y-12086424D01*
X15284539Y-12086424D02*
X15303587Y-12076900D01*
X15303587Y-12076900D02*
X15332158Y-12076900D01*
X15332158Y-12076900D02*
X15351206Y-12086424D01*
X15351206Y-12086424D02*
X15360730Y-12095948D01*
X15360730Y-12095948D02*
X15370253Y-12114996D01*
X15370253Y-12114996D02*
X15370253Y-12172138D01*
X15370253Y-12172138D02*
X15360730Y-12191186D01*
X15360730Y-12191186D02*
X15351206Y-12200710D01*
X15351206Y-12200710D02*
X15332158Y-12210234D01*
X15332158Y-12210234D02*
X15303587Y-12210234D01*
X15484539Y-12210234D02*
X15465491Y-12200710D01*
X15465491Y-12200710D02*
X15455968Y-12181662D01*
X15455968Y-12181662D02*
X15455968Y-12010234D01*
X15636920Y-12200710D02*
X15617872Y-12210234D01*
X15617872Y-12210234D02*
X15579777Y-12210234D01*
X15579777Y-12210234D02*
X15560730Y-12200710D01*
X15560730Y-12200710D02*
X15551206Y-12181662D01*
X15551206Y-12181662D02*
X15551206Y-12105472D01*
X15551206Y-12105472D02*
X15560730Y-12086424D01*
X15560730Y-12086424D02*
X15579777Y-12076900D01*
X15579777Y-12076900D02*
X15617872Y-12076900D01*
X15617872Y-12076900D02*
X15636920Y-12086424D01*
X15636920Y-12086424D02*
X15646444Y-12105472D01*
X15646444Y-12105472D02*
X15646444Y-12124519D01*
X15646444Y-12124519D02*
X15551206Y-12143567D01*
X15722634Y-12200710D02*
X15741682Y-12210234D01*
X15741682Y-12210234D02*
X15779777Y-12210234D01*
X15779777Y-12210234D02*
X15798825Y-12200710D01*
X15798825Y-12200710D02*
X15808349Y-12181662D01*
X15808349Y-12181662D02*
X15808349Y-12172138D01*
X15808349Y-12172138D02*
X15798825Y-12153091D01*
X15798825Y-12153091D02*
X15779777Y-12143567D01*
X15779777Y-12143567D02*
X15751206Y-12143567D01*
X15751206Y-12143567D02*
X15732158Y-12134043D01*
X15732158Y-12134043D02*
X15722634Y-12114996D01*
X15722634Y-12114996D02*
X15722634Y-12105472D01*
X15722634Y-12105472D02*
X15732158Y-12086424D01*
X15732158Y-12086424D02*
X15751206Y-12076900D01*
X15751206Y-12076900D02*
X15779777Y-12076900D01*
X15779777Y-12076900D02*
X15798825Y-12086424D01*
X15875015Y-12286424D02*
X15884539Y-12276900D01*
X15884539Y-12276900D02*
X15903587Y-12248329D01*
X15903587Y-12248329D02*
X15913111Y-12229281D01*
X15913111Y-12229281D02*
X15922634Y-12200710D01*
X15922634Y-12200710D02*
X15932158Y-12153091D01*
X15932158Y-12153091D02*
X15932158Y-12114996D01*
X15932158Y-12114996D02*
X15922634Y-12067377D01*
X15922634Y-12067377D02*
X15913111Y-12038805D01*
X15913111Y-12038805D02*
X15903587Y-12019758D01*
X15903587Y-12019758D02*
X15884539Y-11991186D01*
X15884539Y-11991186D02*
X15875015Y-11981662D01*
D10*
X10719000Y-12382750D02*
G75*
G02*
X10639000Y-12382750I-40000J0D01*
G01*
X10639000Y-12382750D02*
G75*
G02*
X10719000Y-12382750I40000J0D01*
G01*
D11*
X11017872Y-12274234D02*
X11036920Y-12274234D01*
X11036920Y-12274234D02*
X11055967Y-12283758D01*
X11055967Y-12283758D02*
X11065491Y-12293281D01*
X11065491Y-12293281D02*
X11075015Y-12312329D01*
X11075015Y-12312329D02*
X11084539Y-12350424D01*
X11084539Y-12350424D02*
X11084539Y-12398043D01*
X11084539Y-12398043D02*
X11075015Y-12436138D01*
X11075015Y-12436138D02*
X11065491Y-12455186D01*
X11065491Y-12455186D02*
X11055967Y-12464710D01*
X11055967Y-12464710D02*
X11036920Y-12474234D01*
X11036920Y-12474234D02*
X11017872Y-12474234D01*
X11017872Y-12474234D02*
X10998824Y-12464710D01*
X10998824Y-12464710D02*
X10989301Y-12455186D01*
X10989301Y-12455186D02*
X10979777Y-12436138D01*
X10979777Y-12436138D02*
X10970253Y-12398043D01*
X10970253Y-12398043D02*
X10970253Y-12350424D01*
X10970253Y-12350424D02*
X10979777Y-12312329D01*
X10979777Y-12312329D02*
X10989301Y-12293281D01*
X10989301Y-12293281D02*
X10998824Y-12283758D01*
X10998824Y-12283758D02*
X11017872Y-12274234D01*
X11170253Y-12455186D02*
X11179777Y-12464710D01*
X11179777Y-12464710D02*
X11170253Y-12474234D01*
X11170253Y-12474234D02*
X11160729Y-12464710D01*
X11160729Y-12464710D02*
X11170253Y-12455186D01*
X11170253Y-12455186D02*
X11170253Y-12474234D01*
X11294062Y-12359948D02*
X11275015Y-12350424D01*
X11275015Y-12350424D02*
X11265491Y-12340900D01*
X11265491Y-12340900D02*
X11255967Y-12321853D01*
X11255967Y-12321853D02*
X11255967Y-12312329D01*
X11255967Y-12312329D02*
X11265491Y-12293281D01*
X11265491Y-12293281D02*
X11275015Y-12283758D01*
X11275015Y-12283758D02*
X11294062Y-12274234D01*
X11294062Y-12274234D02*
X11332158Y-12274234D01*
X11332158Y-12274234D02*
X11351205Y-12283758D01*
X11351205Y-12283758D02*
X11360729Y-12293281D01*
X11360729Y-12293281D02*
X11370253Y-12312329D01*
X11370253Y-12312329D02*
X11370253Y-12321853D01*
X11370253Y-12321853D02*
X11360729Y-12340900D01*
X11360729Y-12340900D02*
X11351205Y-12350424D01*
X11351205Y-12350424D02*
X11332158Y-12359948D01*
X11332158Y-12359948D02*
X11294062Y-12359948D01*
X11294062Y-12359948D02*
X11275015Y-12369472D01*
X11275015Y-12369472D02*
X11265491Y-12378996D01*
X11265491Y-12378996D02*
X11255967Y-12398043D01*
X11255967Y-12398043D02*
X11255967Y-12436138D01*
X11255967Y-12436138D02*
X11265491Y-12455186D01*
X11265491Y-12455186D02*
X11275015Y-12464710D01*
X11275015Y-12464710D02*
X11294062Y-12474234D01*
X11294062Y-12474234D02*
X11332158Y-12474234D01*
X11332158Y-12474234D02*
X11351205Y-12464710D01*
X11351205Y-12464710D02*
X11360729Y-12455186D01*
X11360729Y-12455186D02*
X11370253Y-12436138D01*
X11370253Y-12436138D02*
X11370253Y-12398043D01*
X11370253Y-12398043D02*
X11360729Y-12378996D01*
X11360729Y-12378996D02*
X11351205Y-12369472D01*
X11351205Y-12369472D02*
X11332158Y-12359948D01*
X11494062Y-12274234D02*
X11513110Y-12274234D01*
X11513110Y-12274234D02*
X11532158Y-12283758D01*
X11532158Y-12283758D02*
X11541682Y-12293281D01*
X11541682Y-12293281D02*
X11551205Y-12312329D01*
X11551205Y-12312329D02*
X11560729Y-12350424D01*
X11560729Y-12350424D02*
X11560729Y-12398043D01*
X11560729Y-12398043D02*
X11551205Y-12436138D01*
X11551205Y-12436138D02*
X11541682Y-12455186D01*
X11541682Y-12455186D02*
X11532158Y-12464710D01*
X11532158Y-12464710D02*
X11513110Y-12474234D01*
X11513110Y-12474234D02*
X11494062Y-12474234D01*
X11494062Y-12474234D02*
X11475015Y-12464710D01*
X11475015Y-12464710D02*
X11465491Y-12455186D01*
X11465491Y-12455186D02*
X11455967Y-12436138D01*
X11455967Y-12436138D02*
X11446443Y-12398043D01*
X11446443Y-12398043D02*
X11446443Y-12350424D01*
X11446443Y-12350424D02*
X11455967Y-12312329D01*
X11455967Y-12312329D02*
X11465491Y-12293281D01*
X11465491Y-12293281D02*
X11475015Y-12283758D01*
X11475015Y-12283758D02*
X11494062Y-12274234D01*
X11684539Y-12274234D02*
X11703586Y-12274234D01*
X11703586Y-12274234D02*
X11722634Y-12283758D01*
X11722634Y-12283758D02*
X11732158Y-12293281D01*
X11732158Y-12293281D02*
X11741682Y-12312329D01*
X11741682Y-12312329D02*
X11751205Y-12350424D01*
X11751205Y-12350424D02*
X11751205Y-12398043D01*
X11751205Y-12398043D02*
X11741682Y-12436138D01*
X11741682Y-12436138D02*
X11732158Y-12455186D01*
X11732158Y-12455186D02*
X11722634Y-12464710D01*
X11722634Y-12464710D02*
X11703586Y-12474234D01*
X11703586Y-12474234D02*
X11684539Y-12474234D01*
X11684539Y-12474234D02*
X11665491Y-12464710D01*
X11665491Y-12464710D02*
X11655967Y-12455186D01*
X11655967Y-12455186D02*
X11646443Y-12436138D01*
X11646443Y-12436138D02*
X11636920Y-12398043D01*
X11636920Y-12398043D02*
X11636920Y-12350424D01*
X11636920Y-12350424D02*
X11646443Y-12312329D01*
X11646443Y-12312329D02*
X11655967Y-12293281D01*
X11655967Y-12293281D02*
X11665491Y-12283758D01*
X11665491Y-12283758D02*
X11684539Y-12274234D01*
X11836920Y-12474234D02*
X11836920Y-12340900D01*
X11836920Y-12359948D02*
X11846443Y-12350424D01*
X11846443Y-12350424D02*
X11865491Y-12340900D01*
X11865491Y-12340900D02*
X11894063Y-12340900D01*
X11894063Y-12340900D02*
X11913110Y-12350424D01*
X11913110Y-12350424D02*
X11922634Y-12369472D01*
X11922634Y-12369472D02*
X11922634Y-12474234D01*
X11922634Y-12369472D02*
X11932158Y-12350424D01*
X11932158Y-12350424D02*
X11951205Y-12340900D01*
X11951205Y-12340900D02*
X11979777Y-12340900D01*
X11979777Y-12340900D02*
X11998824Y-12350424D01*
X11998824Y-12350424D02*
X12008348Y-12369472D01*
X12008348Y-12369472D02*
X12008348Y-12474234D01*
X12103586Y-12474234D02*
X12103586Y-12340900D01*
X12103586Y-12359948D02*
X12113110Y-12350424D01*
X12113110Y-12350424D02*
X12132158Y-12340900D01*
X12132158Y-12340900D02*
X12160729Y-12340900D01*
X12160729Y-12340900D02*
X12179777Y-12350424D01*
X12179777Y-12350424D02*
X12189301Y-12369472D01*
X12189301Y-12369472D02*
X12189301Y-12474234D01*
X12189301Y-12369472D02*
X12198824Y-12350424D01*
X12198824Y-12350424D02*
X12217872Y-12340900D01*
X12217872Y-12340900D02*
X12246443Y-12340900D01*
X12246443Y-12340900D02*
X12265491Y-12350424D01*
X12265491Y-12350424D02*
X12275015Y-12369472D01*
X12275015Y-12369472D02*
X12275015Y-12474234D01*
X12665491Y-12264710D02*
X12494063Y-12521853D01*
X12922634Y-12274234D02*
X12941682Y-12274234D01*
X12941682Y-12274234D02*
X12960729Y-12283758D01*
X12960729Y-12283758D02*
X12970253Y-12293281D01*
X12970253Y-12293281D02*
X12979777Y-12312329D01*
X12979777Y-12312329D02*
X12989301Y-12350424D01*
X12989301Y-12350424D02*
X12989301Y-12398043D01*
X12989301Y-12398043D02*
X12979777Y-12436138D01*
X12979777Y-12436138D02*
X12970253Y-12455186D01*
X12970253Y-12455186D02*
X12960729Y-12464710D01*
X12960729Y-12464710D02*
X12941682Y-12474234D01*
X12941682Y-12474234D02*
X12922634Y-12474234D01*
X12922634Y-12474234D02*
X12903586Y-12464710D01*
X12903586Y-12464710D02*
X12894063Y-12455186D01*
X12894063Y-12455186D02*
X12884539Y-12436138D01*
X12884539Y-12436138D02*
X12875015Y-12398043D01*
X12875015Y-12398043D02*
X12875015Y-12350424D01*
X12875015Y-12350424D02*
X12884539Y-12312329D01*
X12884539Y-12312329D02*
X12894063Y-12293281D01*
X12894063Y-12293281D02*
X12903586Y-12283758D01*
X12903586Y-12283758D02*
X12922634Y-12274234D01*
X13075015Y-12455186D02*
X13084539Y-12464710D01*
X13084539Y-12464710D02*
X13075015Y-12474234D01*
X13075015Y-12474234D02*
X13065491Y-12464710D01*
X13065491Y-12464710D02*
X13075015Y-12455186D01*
X13075015Y-12455186D02*
X13075015Y-12474234D01*
X13208348Y-12274234D02*
X13227396Y-12274234D01*
X13227396Y-12274234D02*
X13246444Y-12283758D01*
X13246444Y-12283758D02*
X13255967Y-12293281D01*
X13255967Y-12293281D02*
X13265491Y-12312329D01*
X13265491Y-12312329D02*
X13275015Y-12350424D01*
X13275015Y-12350424D02*
X13275015Y-12398043D01*
X13275015Y-12398043D02*
X13265491Y-12436138D01*
X13265491Y-12436138D02*
X13255967Y-12455186D01*
X13255967Y-12455186D02*
X13246444Y-12464710D01*
X13246444Y-12464710D02*
X13227396Y-12474234D01*
X13227396Y-12474234D02*
X13208348Y-12474234D01*
X13208348Y-12474234D02*
X13189301Y-12464710D01*
X13189301Y-12464710D02*
X13179777Y-12455186D01*
X13179777Y-12455186D02*
X13170253Y-12436138D01*
X13170253Y-12436138D02*
X13160729Y-12398043D01*
X13160729Y-12398043D02*
X13160729Y-12350424D01*
X13160729Y-12350424D02*
X13170253Y-12312329D01*
X13170253Y-12312329D02*
X13179777Y-12293281D01*
X13179777Y-12293281D02*
X13189301Y-12283758D01*
X13189301Y-12283758D02*
X13208348Y-12274234D01*
X13341682Y-12274234D02*
X13465491Y-12274234D01*
X13465491Y-12274234D02*
X13398825Y-12350424D01*
X13398825Y-12350424D02*
X13427396Y-12350424D01*
X13427396Y-12350424D02*
X13446444Y-12359948D01*
X13446444Y-12359948D02*
X13455967Y-12369472D01*
X13455967Y-12369472D02*
X13465491Y-12388519D01*
X13465491Y-12388519D02*
X13465491Y-12436138D01*
X13465491Y-12436138D02*
X13455967Y-12455186D01*
X13455967Y-12455186D02*
X13446444Y-12464710D01*
X13446444Y-12464710D02*
X13427396Y-12474234D01*
X13427396Y-12474234D02*
X13370253Y-12474234D01*
X13370253Y-12474234D02*
X13351206Y-12464710D01*
X13351206Y-12464710D02*
X13341682Y-12455186D01*
X13655967Y-12474234D02*
X13541682Y-12474234D01*
X13598825Y-12474234D02*
X13598825Y-12274234D01*
X13598825Y-12274234D02*
X13579777Y-12302805D01*
X13579777Y-12302805D02*
X13560729Y-12321853D01*
X13560729Y-12321853D02*
X13541682Y-12331377D01*
X13836920Y-12274234D02*
X13741682Y-12274234D01*
X13741682Y-12274234D02*
X13732158Y-12369472D01*
X13732158Y-12369472D02*
X13741682Y-12359948D01*
X13741682Y-12359948D02*
X13760729Y-12350424D01*
X13760729Y-12350424D02*
X13808348Y-12350424D01*
X13808348Y-12350424D02*
X13827396Y-12359948D01*
X13827396Y-12359948D02*
X13836920Y-12369472D01*
X13836920Y-12369472D02*
X13846444Y-12388519D01*
X13846444Y-12388519D02*
X13846444Y-12436138D01*
X13846444Y-12436138D02*
X13836920Y-12455186D01*
X13836920Y-12455186D02*
X13827396Y-12464710D01*
X13827396Y-12464710D02*
X13808348Y-12474234D01*
X13808348Y-12474234D02*
X13760729Y-12474234D01*
X13760729Y-12474234D02*
X13741682Y-12464710D01*
X13741682Y-12464710D02*
X13732158Y-12455186D01*
X13922634Y-12274234D02*
X13922634Y-12312329D01*
X13998825Y-12274234D02*
X13998825Y-12312329D01*
X14294063Y-12550424D02*
X14284539Y-12540900D01*
X14284539Y-12540900D02*
X14265491Y-12512329D01*
X14265491Y-12512329D02*
X14255968Y-12493281D01*
X14255968Y-12493281D02*
X14246444Y-12464710D01*
X14246444Y-12464710D02*
X14236920Y-12417091D01*
X14236920Y-12417091D02*
X14236920Y-12378996D01*
X14236920Y-12378996D02*
X14246444Y-12331377D01*
X14246444Y-12331377D02*
X14255968Y-12302805D01*
X14255968Y-12302805D02*
X14265491Y-12283758D01*
X14265491Y-12283758D02*
X14284539Y-12255186D01*
X14284539Y-12255186D02*
X14294063Y-12245662D01*
X14360729Y-12293281D02*
X14370253Y-12283758D01*
X14370253Y-12283758D02*
X14389301Y-12274234D01*
X14389301Y-12274234D02*
X14436920Y-12274234D01*
X14436920Y-12274234D02*
X14455968Y-12283758D01*
X14455968Y-12283758D02*
X14465491Y-12293281D01*
X14465491Y-12293281D02*
X14475015Y-12312329D01*
X14475015Y-12312329D02*
X14475015Y-12331377D01*
X14475015Y-12331377D02*
X14465491Y-12359948D01*
X14465491Y-12359948D02*
X14351206Y-12474234D01*
X14351206Y-12474234D02*
X14475015Y-12474234D01*
X14713110Y-12474234D02*
X14713110Y-12274234D01*
X14798825Y-12474234D02*
X14798825Y-12369472D01*
X14798825Y-12369472D02*
X14789301Y-12350424D01*
X14789301Y-12350424D02*
X14770253Y-12340900D01*
X14770253Y-12340900D02*
X14741682Y-12340900D01*
X14741682Y-12340900D02*
X14722634Y-12350424D01*
X14722634Y-12350424D02*
X14713110Y-12359948D01*
X14922634Y-12474234D02*
X14903587Y-12464710D01*
X14903587Y-12464710D02*
X14894063Y-12455186D01*
X14894063Y-12455186D02*
X14884539Y-12436138D01*
X14884539Y-12436138D02*
X14884539Y-12378996D01*
X14884539Y-12378996D02*
X14894063Y-12359948D01*
X14894063Y-12359948D02*
X14903587Y-12350424D01*
X14903587Y-12350424D02*
X14922634Y-12340900D01*
X14922634Y-12340900D02*
X14951206Y-12340900D01*
X14951206Y-12340900D02*
X14970253Y-12350424D01*
X14970253Y-12350424D02*
X14979777Y-12359948D01*
X14979777Y-12359948D02*
X14989301Y-12378996D01*
X14989301Y-12378996D02*
X14989301Y-12436138D01*
X14989301Y-12436138D02*
X14979777Y-12455186D01*
X14979777Y-12455186D02*
X14970253Y-12464710D01*
X14970253Y-12464710D02*
X14951206Y-12474234D01*
X14951206Y-12474234D02*
X14922634Y-12474234D01*
X15103587Y-12474234D02*
X15084539Y-12464710D01*
X15084539Y-12464710D02*
X15075015Y-12445662D01*
X15075015Y-12445662D02*
X15075015Y-12274234D01*
X15255968Y-12464710D02*
X15236920Y-12474234D01*
X15236920Y-12474234D02*
X15198825Y-12474234D01*
X15198825Y-12474234D02*
X15179777Y-12464710D01*
X15179777Y-12464710D02*
X15170253Y-12445662D01*
X15170253Y-12445662D02*
X15170253Y-12369472D01*
X15170253Y-12369472D02*
X15179777Y-12350424D01*
X15179777Y-12350424D02*
X15198825Y-12340900D01*
X15198825Y-12340900D02*
X15236920Y-12340900D01*
X15236920Y-12340900D02*
X15255968Y-12350424D01*
X15255968Y-12350424D02*
X15265491Y-12369472D01*
X15265491Y-12369472D02*
X15265491Y-12388519D01*
X15265491Y-12388519D02*
X15170253Y-12407567D01*
X15341682Y-12464710D02*
X15360730Y-12474234D01*
X15360730Y-12474234D02*
X15398825Y-12474234D01*
X15398825Y-12474234D02*
X15417872Y-12464710D01*
X15417872Y-12464710D02*
X15427396Y-12445662D01*
X15427396Y-12445662D02*
X15427396Y-12436138D01*
X15427396Y-12436138D02*
X15417872Y-12417091D01*
X15417872Y-12417091D02*
X15398825Y-12407567D01*
X15398825Y-12407567D02*
X15370253Y-12407567D01*
X15370253Y-12407567D02*
X15351206Y-12398043D01*
X15351206Y-12398043D02*
X15341682Y-12378996D01*
X15341682Y-12378996D02*
X15341682Y-12369472D01*
X15341682Y-12369472D02*
X15351206Y-12350424D01*
X15351206Y-12350424D02*
X15370253Y-12340900D01*
X15370253Y-12340900D02*
X15398825Y-12340900D01*
X15398825Y-12340900D02*
X15417872Y-12350424D01*
X15494063Y-12550424D02*
X15503587Y-12540900D01*
X15503587Y-12540900D02*
X15522634Y-12512329D01*
X15522634Y-12512329D02*
X15532158Y-12493281D01*
X15532158Y-12493281D02*
X15541682Y-12464710D01*
X15541682Y-12464710D02*
X15551206Y-12417091D01*
X15551206Y-12417091D02*
X15551206Y-12378996D01*
X15551206Y-12378996D02*
X15541682Y-12331377D01*
X15541682Y-12331377D02*
X15532158Y-12302805D01*
X15532158Y-12302805D02*
X15522634Y-12283758D01*
X15522634Y-12283758D02*
X15503587Y-12255186D01*
X15503587Y-12255186D02*
X15494063Y-12245662D01*
D10*
X10674000Y-12601750D02*
X10674000Y-12691750D01*
X10629000Y-12646750D02*
X10719000Y-12646750D01*
D11*
X11017872Y-12538234D02*
X11036920Y-12538234D01*
X11036920Y-12538234D02*
X11055967Y-12547758D01*
X11055967Y-12547758D02*
X11065491Y-12557281D01*
X11065491Y-12557281D02*
X11075015Y-12576329D01*
X11075015Y-12576329D02*
X11084539Y-12614424D01*
X11084539Y-12614424D02*
X11084539Y-12662043D01*
X11084539Y-12662043D02*
X11075015Y-12700138D01*
X11075015Y-12700138D02*
X11065491Y-12719186D01*
X11065491Y-12719186D02*
X11055967Y-12728710D01*
X11055967Y-12728710D02*
X11036920Y-12738234D01*
X11036920Y-12738234D02*
X11017872Y-12738234D01*
X11017872Y-12738234D02*
X10998824Y-12728710D01*
X10998824Y-12728710D02*
X10989301Y-12719186D01*
X10989301Y-12719186D02*
X10979777Y-12700138D01*
X10979777Y-12700138D02*
X10970253Y-12662043D01*
X10970253Y-12662043D02*
X10970253Y-12614424D01*
X10970253Y-12614424D02*
X10979777Y-12576329D01*
X10979777Y-12576329D02*
X10989301Y-12557281D01*
X10989301Y-12557281D02*
X10998824Y-12547758D01*
X10998824Y-12547758D02*
X11017872Y-12538234D01*
X11170253Y-12719186D02*
X11179777Y-12728710D01*
X11179777Y-12728710D02*
X11170253Y-12738234D01*
X11170253Y-12738234D02*
X11160729Y-12728710D01*
X11160729Y-12728710D02*
X11170253Y-12719186D01*
X11170253Y-12719186D02*
X11170253Y-12738234D01*
X11275015Y-12738234D02*
X11313110Y-12738234D01*
X11313110Y-12738234D02*
X11332158Y-12728710D01*
X11332158Y-12728710D02*
X11341682Y-12719186D01*
X11341682Y-12719186D02*
X11360729Y-12690615D01*
X11360729Y-12690615D02*
X11370253Y-12652519D01*
X11370253Y-12652519D02*
X11370253Y-12576329D01*
X11370253Y-12576329D02*
X11360729Y-12557281D01*
X11360729Y-12557281D02*
X11351205Y-12547758D01*
X11351205Y-12547758D02*
X11332158Y-12538234D01*
X11332158Y-12538234D02*
X11294062Y-12538234D01*
X11294062Y-12538234D02*
X11275015Y-12547758D01*
X11275015Y-12547758D02*
X11265491Y-12557281D01*
X11265491Y-12557281D02*
X11255967Y-12576329D01*
X11255967Y-12576329D02*
X11255967Y-12623948D01*
X11255967Y-12623948D02*
X11265491Y-12642996D01*
X11265491Y-12642996D02*
X11275015Y-12652519D01*
X11275015Y-12652519D02*
X11294062Y-12662043D01*
X11294062Y-12662043D02*
X11332158Y-12662043D01*
X11332158Y-12662043D02*
X11351205Y-12652519D01*
X11351205Y-12652519D02*
X11360729Y-12642996D01*
X11360729Y-12642996D02*
X11370253Y-12623948D01*
X11494062Y-12538234D02*
X11513110Y-12538234D01*
X11513110Y-12538234D02*
X11532158Y-12547758D01*
X11532158Y-12547758D02*
X11541682Y-12557281D01*
X11541682Y-12557281D02*
X11551205Y-12576329D01*
X11551205Y-12576329D02*
X11560729Y-12614424D01*
X11560729Y-12614424D02*
X11560729Y-12662043D01*
X11560729Y-12662043D02*
X11551205Y-12700138D01*
X11551205Y-12700138D02*
X11541682Y-12719186D01*
X11541682Y-12719186D02*
X11532158Y-12728710D01*
X11532158Y-12728710D02*
X11513110Y-12738234D01*
X11513110Y-12738234D02*
X11494062Y-12738234D01*
X11494062Y-12738234D02*
X11475015Y-12728710D01*
X11475015Y-12728710D02*
X11465491Y-12719186D01*
X11465491Y-12719186D02*
X11455967Y-12700138D01*
X11455967Y-12700138D02*
X11446443Y-12662043D01*
X11446443Y-12662043D02*
X11446443Y-12614424D01*
X11446443Y-12614424D02*
X11455967Y-12576329D01*
X11455967Y-12576329D02*
X11465491Y-12557281D01*
X11465491Y-12557281D02*
X11475015Y-12547758D01*
X11475015Y-12547758D02*
X11494062Y-12538234D01*
X11684539Y-12538234D02*
X11703586Y-12538234D01*
X11703586Y-12538234D02*
X11722634Y-12547758D01*
X11722634Y-12547758D02*
X11732158Y-12557281D01*
X11732158Y-12557281D02*
X11741682Y-12576329D01*
X11741682Y-12576329D02*
X11751205Y-12614424D01*
X11751205Y-12614424D02*
X11751205Y-12662043D01*
X11751205Y-12662043D02*
X11741682Y-12700138D01*
X11741682Y-12700138D02*
X11732158Y-12719186D01*
X11732158Y-12719186D02*
X11722634Y-12728710D01*
X11722634Y-12728710D02*
X11703586Y-12738234D01*
X11703586Y-12738234D02*
X11684539Y-12738234D01*
X11684539Y-12738234D02*
X11665491Y-12728710D01*
X11665491Y-12728710D02*
X11655967Y-12719186D01*
X11655967Y-12719186D02*
X11646443Y-12700138D01*
X11646443Y-12700138D02*
X11636920Y-12662043D01*
X11636920Y-12662043D02*
X11636920Y-12614424D01*
X11636920Y-12614424D02*
X11646443Y-12576329D01*
X11646443Y-12576329D02*
X11655967Y-12557281D01*
X11655967Y-12557281D02*
X11665491Y-12547758D01*
X11665491Y-12547758D02*
X11684539Y-12538234D01*
X11836920Y-12738234D02*
X11836920Y-12604900D01*
X11836920Y-12623948D02*
X11846443Y-12614424D01*
X11846443Y-12614424D02*
X11865491Y-12604900D01*
X11865491Y-12604900D02*
X11894063Y-12604900D01*
X11894063Y-12604900D02*
X11913110Y-12614424D01*
X11913110Y-12614424D02*
X11922634Y-12633472D01*
X11922634Y-12633472D02*
X11922634Y-12738234D01*
X11922634Y-12633472D02*
X11932158Y-12614424D01*
X11932158Y-12614424D02*
X11951205Y-12604900D01*
X11951205Y-12604900D02*
X11979777Y-12604900D01*
X11979777Y-12604900D02*
X11998824Y-12614424D01*
X11998824Y-12614424D02*
X12008348Y-12633472D01*
X12008348Y-12633472D02*
X12008348Y-12738234D01*
X12103586Y-12738234D02*
X12103586Y-12604900D01*
X12103586Y-12623948D02*
X12113110Y-12614424D01*
X12113110Y-12614424D02*
X12132158Y-12604900D01*
X12132158Y-12604900D02*
X12160729Y-12604900D01*
X12160729Y-12604900D02*
X12179777Y-12614424D01*
X12179777Y-12614424D02*
X12189301Y-12633472D01*
X12189301Y-12633472D02*
X12189301Y-12738234D01*
X12189301Y-12633472D02*
X12198824Y-12614424D01*
X12198824Y-12614424D02*
X12217872Y-12604900D01*
X12217872Y-12604900D02*
X12246443Y-12604900D01*
X12246443Y-12604900D02*
X12265491Y-12614424D01*
X12265491Y-12614424D02*
X12275015Y-12633472D01*
X12275015Y-12633472D02*
X12275015Y-12738234D01*
X12665491Y-12528710D02*
X12494063Y-12785853D01*
X12922634Y-12538234D02*
X12941682Y-12538234D01*
X12941682Y-12538234D02*
X12960729Y-12547758D01*
X12960729Y-12547758D02*
X12970253Y-12557281D01*
X12970253Y-12557281D02*
X12979777Y-12576329D01*
X12979777Y-12576329D02*
X12989301Y-12614424D01*
X12989301Y-12614424D02*
X12989301Y-12662043D01*
X12989301Y-12662043D02*
X12979777Y-12700138D01*
X12979777Y-12700138D02*
X12970253Y-12719186D01*
X12970253Y-12719186D02*
X12960729Y-12728710D01*
X12960729Y-12728710D02*
X12941682Y-12738234D01*
X12941682Y-12738234D02*
X12922634Y-12738234D01*
X12922634Y-12738234D02*
X12903586Y-12728710D01*
X12903586Y-12728710D02*
X12894063Y-12719186D01*
X12894063Y-12719186D02*
X12884539Y-12700138D01*
X12884539Y-12700138D02*
X12875015Y-12662043D01*
X12875015Y-12662043D02*
X12875015Y-12614424D01*
X12875015Y-12614424D02*
X12884539Y-12576329D01*
X12884539Y-12576329D02*
X12894063Y-12557281D01*
X12894063Y-12557281D02*
X12903586Y-12547758D01*
X12903586Y-12547758D02*
X12922634Y-12538234D01*
X13075015Y-12719186D02*
X13084539Y-12728710D01*
X13084539Y-12728710D02*
X13075015Y-12738234D01*
X13075015Y-12738234D02*
X13065491Y-12728710D01*
X13065491Y-12728710D02*
X13075015Y-12719186D01*
X13075015Y-12719186D02*
X13075015Y-12738234D01*
X13208348Y-12538234D02*
X13227396Y-12538234D01*
X13227396Y-12538234D02*
X13246444Y-12547758D01*
X13246444Y-12547758D02*
X13255967Y-12557281D01*
X13255967Y-12557281D02*
X13265491Y-12576329D01*
X13265491Y-12576329D02*
X13275015Y-12614424D01*
X13275015Y-12614424D02*
X13275015Y-12662043D01*
X13275015Y-12662043D02*
X13265491Y-12700138D01*
X13265491Y-12700138D02*
X13255967Y-12719186D01*
X13255967Y-12719186D02*
X13246444Y-12728710D01*
X13246444Y-12728710D02*
X13227396Y-12738234D01*
X13227396Y-12738234D02*
X13208348Y-12738234D01*
X13208348Y-12738234D02*
X13189301Y-12728710D01*
X13189301Y-12728710D02*
X13179777Y-12719186D01*
X13179777Y-12719186D02*
X13170253Y-12700138D01*
X13170253Y-12700138D02*
X13160729Y-12662043D01*
X13160729Y-12662043D02*
X13160729Y-12614424D01*
X13160729Y-12614424D02*
X13170253Y-12576329D01*
X13170253Y-12576329D02*
X13179777Y-12557281D01*
X13179777Y-12557281D02*
X13189301Y-12547758D01*
X13189301Y-12547758D02*
X13208348Y-12538234D01*
X13341682Y-12538234D02*
X13465491Y-12538234D01*
X13465491Y-12538234D02*
X13398825Y-12614424D01*
X13398825Y-12614424D02*
X13427396Y-12614424D01*
X13427396Y-12614424D02*
X13446444Y-12623948D01*
X13446444Y-12623948D02*
X13455967Y-12633472D01*
X13455967Y-12633472D02*
X13465491Y-12652519D01*
X13465491Y-12652519D02*
X13465491Y-12700138D01*
X13465491Y-12700138D02*
X13455967Y-12719186D01*
X13455967Y-12719186D02*
X13446444Y-12728710D01*
X13446444Y-12728710D02*
X13427396Y-12738234D01*
X13427396Y-12738234D02*
X13370253Y-12738234D01*
X13370253Y-12738234D02*
X13351206Y-12728710D01*
X13351206Y-12728710D02*
X13341682Y-12719186D01*
X13646444Y-12538234D02*
X13551206Y-12538234D01*
X13551206Y-12538234D02*
X13541682Y-12633472D01*
X13541682Y-12633472D02*
X13551206Y-12623948D01*
X13551206Y-12623948D02*
X13570253Y-12614424D01*
X13570253Y-12614424D02*
X13617872Y-12614424D01*
X13617872Y-12614424D02*
X13636920Y-12623948D01*
X13636920Y-12623948D02*
X13646444Y-12633472D01*
X13646444Y-12633472D02*
X13655967Y-12652519D01*
X13655967Y-12652519D02*
X13655967Y-12700138D01*
X13655967Y-12700138D02*
X13646444Y-12719186D01*
X13646444Y-12719186D02*
X13636920Y-12728710D01*
X13636920Y-12728710D02*
X13617872Y-12738234D01*
X13617872Y-12738234D02*
X13570253Y-12738234D01*
X13570253Y-12738234D02*
X13551206Y-12728710D01*
X13551206Y-12728710D02*
X13541682Y-12719186D01*
X13827396Y-12604900D02*
X13827396Y-12738234D01*
X13779777Y-12528710D02*
X13732158Y-12671567D01*
X13732158Y-12671567D02*
X13855967Y-12671567D01*
X13922634Y-12538234D02*
X13922634Y-12576329D01*
X13998825Y-12538234D02*
X13998825Y-12576329D01*
X14294063Y-12814424D02*
X14284539Y-12804900D01*
X14284539Y-12804900D02*
X14265491Y-12776329D01*
X14265491Y-12776329D02*
X14255968Y-12757281D01*
X14255968Y-12757281D02*
X14246444Y-12728710D01*
X14246444Y-12728710D02*
X14236920Y-12681091D01*
X14236920Y-12681091D02*
X14236920Y-12642996D01*
X14236920Y-12642996D02*
X14246444Y-12595377D01*
X14246444Y-12595377D02*
X14255968Y-12566805D01*
X14255968Y-12566805D02*
X14265491Y-12547758D01*
X14265491Y-12547758D02*
X14284539Y-12519186D01*
X14284539Y-12519186D02*
X14294063Y-12509662D01*
X14360729Y-12557281D02*
X14370253Y-12547758D01*
X14370253Y-12547758D02*
X14389301Y-12538234D01*
X14389301Y-12538234D02*
X14436920Y-12538234D01*
X14436920Y-12538234D02*
X14455968Y-12547758D01*
X14455968Y-12547758D02*
X14465491Y-12557281D01*
X14465491Y-12557281D02*
X14475015Y-12576329D01*
X14475015Y-12576329D02*
X14475015Y-12595377D01*
X14475015Y-12595377D02*
X14465491Y-12623948D01*
X14465491Y-12623948D02*
X14351206Y-12738234D01*
X14351206Y-12738234D02*
X14475015Y-12738234D01*
X14713110Y-12738234D02*
X14713110Y-12538234D01*
X14798825Y-12738234D02*
X14798825Y-12633472D01*
X14798825Y-12633472D02*
X14789301Y-12614424D01*
X14789301Y-12614424D02*
X14770253Y-12604900D01*
X14770253Y-12604900D02*
X14741682Y-12604900D01*
X14741682Y-12604900D02*
X14722634Y-12614424D01*
X14722634Y-12614424D02*
X14713110Y-12623948D01*
X14922634Y-12738234D02*
X14903587Y-12728710D01*
X14903587Y-12728710D02*
X14894063Y-12719186D01*
X14894063Y-12719186D02*
X14884539Y-12700138D01*
X14884539Y-12700138D02*
X14884539Y-12642996D01*
X14884539Y-12642996D02*
X14894063Y-12623948D01*
X14894063Y-12623948D02*
X14903587Y-12614424D01*
X14903587Y-12614424D02*
X14922634Y-12604900D01*
X14922634Y-12604900D02*
X14951206Y-12604900D01*
X14951206Y-12604900D02*
X14970253Y-12614424D01*
X14970253Y-12614424D02*
X14979777Y-12623948D01*
X14979777Y-12623948D02*
X14989301Y-12642996D01*
X14989301Y-12642996D02*
X14989301Y-12700138D01*
X14989301Y-12700138D02*
X14979777Y-12719186D01*
X14979777Y-12719186D02*
X14970253Y-12728710D01*
X14970253Y-12728710D02*
X14951206Y-12738234D01*
X14951206Y-12738234D02*
X14922634Y-12738234D01*
X15103587Y-12738234D02*
X15084539Y-12728710D01*
X15084539Y-12728710D02*
X15075015Y-12709662D01*
X15075015Y-12709662D02*
X15075015Y-12538234D01*
X15255968Y-12728710D02*
X15236920Y-12738234D01*
X15236920Y-12738234D02*
X15198825Y-12738234D01*
X15198825Y-12738234D02*
X15179777Y-12728710D01*
X15179777Y-12728710D02*
X15170253Y-12709662D01*
X15170253Y-12709662D02*
X15170253Y-12633472D01*
X15170253Y-12633472D02*
X15179777Y-12614424D01*
X15179777Y-12614424D02*
X15198825Y-12604900D01*
X15198825Y-12604900D02*
X15236920Y-12604900D01*
X15236920Y-12604900D02*
X15255968Y-12614424D01*
X15255968Y-12614424D02*
X15265491Y-12633472D01*
X15265491Y-12633472D02*
X15265491Y-12652519D01*
X15265491Y-12652519D02*
X15170253Y-12671567D01*
X15341682Y-12728710D02*
X15360730Y-12738234D01*
X15360730Y-12738234D02*
X15398825Y-12738234D01*
X15398825Y-12738234D02*
X15417872Y-12728710D01*
X15417872Y-12728710D02*
X15427396Y-12709662D01*
X15427396Y-12709662D02*
X15427396Y-12700138D01*
X15427396Y-12700138D02*
X15417872Y-12681091D01*
X15417872Y-12681091D02*
X15398825Y-12671567D01*
X15398825Y-12671567D02*
X15370253Y-12671567D01*
X15370253Y-12671567D02*
X15351206Y-12662043D01*
X15351206Y-12662043D02*
X15341682Y-12642996D01*
X15341682Y-12642996D02*
X15341682Y-12633472D01*
X15341682Y-12633472D02*
X15351206Y-12614424D01*
X15351206Y-12614424D02*
X15370253Y-12604900D01*
X15370253Y-12604900D02*
X15398825Y-12604900D01*
X15398825Y-12604900D02*
X15417872Y-12614424D01*
X15494063Y-12814424D02*
X15503587Y-12804900D01*
X15503587Y-12804900D02*
X15522634Y-12776329D01*
X15522634Y-12776329D02*
X15532158Y-12757281D01*
X15532158Y-12757281D02*
X15541682Y-12728710D01*
X15541682Y-12728710D02*
X15551206Y-12681091D01*
X15551206Y-12681091D02*
X15551206Y-12642996D01*
X15551206Y-12642996D02*
X15541682Y-12595377D01*
X15541682Y-12595377D02*
X15532158Y-12566805D01*
X15532158Y-12566805D02*
X15522634Y-12547758D01*
X15522634Y-12547758D02*
X15503587Y-12519186D01*
X15503587Y-12519186D02*
X15494063Y-12509662D01*
D10*
X10705088Y-12944338D02*
X10705088Y-12877162D01*
X10637912Y-12877162D01*
X10637912Y-12944338D01*
X10705088Y-12944338D01*
D11*
X11017872Y-12802234D02*
X11036920Y-12802234D01*
X11036920Y-12802234D02*
X11055967Y-12811758D01*
X11055967Y-12811758D02*
X11065491Y-12821281D01*
X11065491Y-12821281D02*
X11075015Y-12840329D01*
X11075015Y-12840329D02*
X11084539Y-12878424D01*
X11084539Y-12878424D02*
X11084539Y-12926043D01*
X11084539Y-12926043D02*
X11075015Y-12964138D01*
X11075015Y-12964138D02*
X11065491Y-12983186D01*
X11065491Y-12983186D02*
X11055967Y-12992710D01*
X11055967Y-12992710D02*
X11036920Y-13002234D01*
X11036920Y-13002234D02*
X11017872Y-13002234D01*
X11017872Y-13002234D02*
X10998824Y-12992710D01*
X10998824Y-12992710D02*
X10989301Y-12983186D01*
X10989301Y-12983186D02*
X10979777Y-12964138D01*
X10979777Y-12964138D02*
X10970253Y-12926043D01*
X10970253Y-12926043D02*
X10970253Y-12878424D01*
X10970253Y-12878424D02*
X10979777Y-12840329D01*
X10979777Y-12840329D02*
X10989301Y-12821281D01*
X10989301Y-12821281D02*
X10998824Y-12811758D01*
X10998824Y-12811758D02*
X11017872Y-12802234D01*
X11170253Y-12983186D02*
X11179777Y-12992710D01*
X11179777Y-12992710D02*
X11170253Y-13002234D01*
X11170253Y-13002234D02*
X11160729Y-12992710D01*
X11160729Y-12992710D02*
X11170253Y-12983186D01*
X11170253Y-12983186D02*
X11170253Y-13002234D01*
X11275015Y-13002234D02*
X11313110Y-13002234D01*
X11313110Y-13002234D02*
X11332158Y-12992710D01*
X11332158Y-12992710D02*
X11341682Y-12983186D01*
X11341682Y-12983186D02*
X11360729Y-12954615D01*
X11360729Y-12954615D02*
X11370253Y-12916519D01*
X11370253Y-12916519D02*
X11370253Y-12840329D01*
X11370253Y-12840329D02*
X11360729Y-12821281D01*
X11360729Y-12821281D02*
X11351205Y-12811758D01*
X11351205Y-12811758D02*
X11332158Y-12802234D01*
X11332158Y-12802234D02*
X11294062Y-12802234D01*
X11294062Y-12802234D02*
X11275015Y-12811758D01*
X11275015Y-12811758D02*
X11265491Y-12821281D01*
X11265491Y-12821281D02*
X11255967Y-12840329D01*
X11255967Y-12840329D02*
X11255967Y-12887948D01*
X11255967Y-12887948D02*
X11265491Y-12906996D01*
X11265491Y-12906996D02*
X11275015Y-12916519D01*
X11275015Y-12916519D02*
X11294062Y-12926043D01*
X11294062Y-12926043D02*
X11332158Y-12926043D01*
X11332158Y-12926043D02*
X11351205Y-12916519D01*
X11351205Y-12916519D02*
X11360729Y-12906996D01*
X11360729Y-12906996D02*
X11370253Y-12887948D01*
X11551205Y-12802234D02*
X11455967Y-12802234D01*
X11455967Y-12802234D02*
X11446443Y-12897472D01*
X11446443Y-12897472D02*
X11455967Y-12887948D01*
X11455967Y-12887948D02*
X11475015Y-12878424D01*
X11475015Y-12878424D02*
X11522634Y-12878424D01*
X11522634Y-12878424D02*
X11541682Y-12887948D01*
X11541682Y-12887948D02*
X11551205Y-12897472D01*
X11551205Y-12897472D02*
X11560729Y-12916519D01*
X11560729Y-12916519D02*
X11560729Y-12964138D01*
X11560729Y-12964138D02*
X11551205Y-12983186D01*
X11551205Y-12983186D02*
X11541682Y-12992710D01*
X11541682Y-12992710D02*
X11522634Y-13002234D01*
X11522634Y-13002234D02*
X11475015Y-13002234D01*
X11475015Y-13002234D02*
X11455967Y-12992710D01*
X11455967Y-12992710D02*
X11446443Y-12983186D01*
X11684539Y-12802234D02*
X11703586Y-12802234D01*
X11703586Y-12802234D02*
X11722634Y-12811758D01*
X11722634Y-12811758D02*
X11732158Y-12821281D01*
X11732158Y-12821281D02*
X11741682Y-12840329D01*
X11741682Y-12840329D02*
X11751205Y-12878424D01*
X11751205Y-12878424D02*
X11751205Y-12926043D01*
X11751205Y-12926043D02*
X11741682Y-12964138D01*
X11741682Y-12964138D02*
X11732158Y-12983186D01*
X11732158Y-12983186D02*
X11722634Y-12992710D01*
X11722634Y-12992710D02*
X11703586Y-13002234D01*
X11703586Y-13002234D02*
X11684539Y-13002234D01*
X11684539Y-13002234D02*
X11665491Y-12992710D01*
X11665491Y-12992710D02*
X11655967Y-12983186D01*
X11655967Y-12983186D02*
X11646443Y-12964138D01*
X11646443Y-12964138D02*
X11636920Y-12926043D01*
X11636920Y-12926043D02*
X11636920Y-12878424D01*
X11636920Y-12878424D02*
X11646443Y-12840329D01*
X11646443Y-12840329D02*
X11655967Y-12821281D01*
X11655967Y-12821281D02*
X11665491Y-12811758D01*
X11665491Y-12811758D02*
X11684539Y-12802234D01*
X11836920Y-13002234D02*
X11836920Y-12868900D01*
X11836920Y-12887948D02*
X11846443Y-12878424D01*
X11846443Y-12878424D02*
X11865491Y-12868900D01*
X11865491Y-12868900D02*
X11894063Y-12868900D01*
X11894063Y-12868900D02*
X11913110Y-12878424D01*
X11913110Y-12878424D02*
X11922634Y-12897472D01*
X11922634Y-12897472D02*
X11922634Y-13002234D01*
X11922634Y-12897472D02*
X11932158Y-12878424D01*
X11932158Y-12878424D02*
X11951205Y-12868900D01*
X11951205Y-12868900D02*
X11979777Y-12868900D01*
X11979777Y-12868900D02*
X11998824Y-12878424D01*
X11998824Y-12878424D02*
X12008348Y-12897472D01*
X12008348Y-12897472D02*
X12008348Y-13002234D01*
X12103586Y-13002234D02*
X12103586Y-12868900D01*
X12103586Y-12887948D02*
X12113110Y-12878424D01*
X12113110Y-12878424D02*
X12132158Y-12868900D01*
X12132158Y-12868900D02*
X12160729Y-12868900D01*
X12160729Y-12868900D02*
X12179777Y-12878424D01*
X12179777Y-12878424D02*
X12189301Y-12897472D01*
X12189301Y-12897472D02*
X12189301Y-13002234D01*
X12189301Y-12897472D02*
X12198824Y-12878424D01*
X12198824Y-12878424D02*
X12217872Y-12868900D01*
X12217872Y-12868900D02*
X12246443Y-12868900D01*
X12246443Y-12868900D02*
X12265491Y-12878424D01*
X12265491Y-12878424D02*
X12275015Y-12897472D01*
X12275015Y-12897472D02*
X12275015Y-13002234D01*
X12665491Y-12792710D02*
X12494063Y-13049853D01*
X12922634Y-12802234D02*
X12941682Y-12802234D01*
X12941682Y-12802234D02*
X12960729Y-12811758D01*
X12960729Y-12811758D02*
X12970253Y-12821281D01*
X12970253Y-12821281D02*
X12979777Y-12840329D01*
X12979777Y-12840329D02*
X12989301Y-12878424D01*
X12989301Y-12878424D02*
X12989301Y-12926043D01*
X12989301Y-12926043D02*
X12979777Y-12964138D01*
X12979777Y-12964138D02*
X12970253Y-12983186D01*
X12970253Y-12983186D02*
X12960729Y-12992710D01*
X12960729Y-12992710D02*
X12941682Y-13002234D01*
X12941682Y-13002234D02*
X12922634Y-13002234D01*
X12922634Y-13002234D02*
X12903586Y-12992710D01*
X12903586Y-12992710D02*
X12894063Y-12983186D01*
X12894063Y-12983186D02*
X12884539Y-12964138D01*
X12884539Y-12964138D02*
X12875015Y-12926043D01*
X12875015Y-12926043D02*
X12875015Y-12878424D01*
X12875015Y-12878424D02*
X12884539Y-12840329D01*
X12884539Y-12840329D02*
X12894063Y-12821281D01*
X12894063Y-12821281D02*
X12903586Y-12811758D01*
X12903586Y-12811758D02*
X12922634Y-12802234D01*
X13075015Y-12983186D02*
X13084539Y-12992710D01*
X13084539Y-12992710D02*
X13075015Y-13002234D01*
X13075015Y-13002234D02*
X13065491Y-12992710D01*
X13065491Y-12992710D02*
X13075015Y-12983186D01*
X13075015Y-12983186D02*
X13075015Y-13002234D01*
X13208348Y-12802234D02*
X13227396Y-12802234D01*
X13227396Y-12802234D02*
X13246444Y-12811758D01*
X13246444Y-12811758D02*
X13255967Y-12821281D01*
X13255967Y-12821281D02*
X13265491Y-12840329D01*
X13265491Y-12840329D02*
X13275015Y-12878424D01*
X13275015Y-12878424D02*
X13275015Y-12926043D01*
X13275015Y-12926043D02*
X13265491Y-12964138D01*
X13265491Y-12964138D02*
X13255967Y-12983186D01*
X13255967Y-12983186D02*
X13246444Y-12992710D01*
X13246444Y-12992710D02*
X13227396Y-13002234D01*
X13227396Y-13002234D02*
X13208348Y-13002234D01*
X13208348Y-13002234D02*
X13189301Y-12992710D01*
X13189301Y-12992710D02*
X13179777Y-12983186D01*
X13179777Y-12983186D02*
X13170253Y-12964138D01*
X13170253Y-12964138D02*
X13160729Y-12926043D01*
X13160729Y-12926043D02*
X13160729Y-12878424D01*
X13160729Y-12878424D02*
X13170253Y-12840329D01*
X13170253Y-12840329D02*
X13179777Y-12821281D01*
X13179777Y-12821281D02*
X13189301Y-12811758D01*
X13189301Y-12811758D02*
X13208348Y-12802234D01*
X13341682Y-12802234D02*
X13465491Y-12802234D01*
X13465491Y-12802234D02*
X13398825Y-12878424D01*
X13398825Y-12878424D02*
X13427396Y-12878424D01*
X13427396Y-12878424D02*
X13446444Y-12887948D01*
X13446444Y-12887948D02*
X13455967Y-12897472D01*
X13455967Y-12897472D02*
X13465491Y-12916519D01*
X13465491Y-12916519D02*
X13465491Y-12964138D01*
X13465491Y-12964138D02*
X13455967Y-12983186D01*
X13455967Y-12983186D02*
X13446444Y-12992710D01*
X13446444Y-12992710D02*
X13427396Y-13002234D01*
X13427396Y-13002234D02*
X13370253Y-13002234D01*
X13370253Y-13002234D02*
X13351206Y-12992710D01*
X13351206Y-12992710D02*
X13341682Y-12983186D01*
X13532158Y-12802234D02*
X13665491Y-12802234D01*
X13665491Y-12802234D02*
X13579777Y-13002234D01*
X13827396Y-12868900D02*
X13827396Y-13002234D01*
X13779777Y-12792710D02*
X13732158Y-12935567D01*
X13732158Y-12935567D02*
X13855967Y-12935567D01*
X13922634Y-12802234D02*
X13922634Y-12840329D01*
X13998825Y-12802234D02*
X13998825Y-12840329D01*
X14294063Y-13078424D02*
X14284539Y-13068900D01*
X14284539Y-13068900D02*
X14265491Y-13040329D01*
X14265491Y-13040329D02*
X14255968Y-13021281D01*
X14255968Y-13021281D02*
X14246444Y-12992710D01*
X14246444Y-12992710D02*
X14236920Y-12945091D01*
X14236920Y-12945091D02*
X14236920Y-12906996D01*
X14236920Y-12906996D02*
X14246444Y-12859377D01*
X14246444Y-12859377D02*
X14255968Y-12830805D01*
X14255968Y-12830805D02*
X14265491Y-12811758D01*
X14265491Y-12811758D02*
X14284539Y-12783186D01*
X14284539Y-12783186D02*
X14294063Y-12773662D01*
X14455968Y-12868900D02*
X14455968Y-13002234D01*
X14408348Y-12792710D02*
X14360729Y-12935567D01*
X14360729Y-12935567D02*
X14484539Y-12935567D01*
X14713110Y-13002234D02*
X14713110Y-12802234D01*
X14798825Y-13002234D02*
X14798825Y-12897472D01*
X14798825Y-12897472D02*
X14789301Y-12878424D01*
X14789301Y-12878424D02*
X14770253Y-12868900D01*
X14770253Y-12868900D02*
X14741682Y-12868900D01*
X14741682Y-12868900D02*
X14722634Y-12878424D01*
X14722634Y-12878424D02*
X14713110Y-12887948D01*
X14922634Y-13002234D02*
X14903587Y-12992710D01*
X14903587Y-12992710D02*
X14894063Y-12983186D01*
X14894063Y-12983186D02*
X14884539Y-12964138D01*
X14884539Y-12964138D02*
X14884539Y-12906996D01*
X14884539Y-12906996D02*
X14894063Y-12887948D01*
X14894063Y-12887948D02*
X14903587Y-12878424D01*
X14903587Y-12878424D02*
X14922634Y-12868900D01*
X14922634Y-12868900D02*
X14951206Y-12868900D01*
X14951206Y-12868900D02*
X14970253Y-12878424D01*
X14970253Y-12878424D02*
X14979777Y-12887948D01*
X14979777Y-12887948D02*
X14989301Y-12906996D01*
X14989301Y-12906996D02*
X14989301Y-12964138D01*
X14989301Y-12964138D02*
X14979777Y-12983186D01*
X14979777Y-12983186D02*
X14970253Y-12992710D01*
X14970253Y-12992710D02*
X14951206Y-13002234D01*
X14951206Y-13002234D02*
X14922634Y-13002234D01*
X15103587Y-13002234D02*
X15084539Y-12992710D01*
X15084539Y-12992710D02*
X15075015Y-12973662D01*
X15075015Y-12973662D02*
X15075015Y-12802234D01*
X15255968Y-12992710D02*
X15236920Y-13002234D01*
X15236920Y-13002234D02*
X15198825Y-13002234D01*
X15198825Y-13002234D02*
X15179777Y-12992710D01*
X15179777Y-12992710D02*
X15170253Y-12973662D01*
X15170253Y-12973662D02*
X15170253Y-12897472D01*
X15170253Y-12897472D02*
X15179777Y-12878424D01*
X15179777Y-12878424D02*
X15198825Y-12868900D01*
X15198825Y-12868900D02*
X15236920Y-12868900D01*
X15236920Y-12868900D02*
X15255968Y-12878424D01*
X15255968Y-12878424D02*
X15265491Y-12897472D01*
X15265491Y-12897472D02*
X15265491Y-12916519D01*
X15265491Y-12916519D02*
X15170253Y-12935567D01*
X15341682Y-12992710D02*
X15360730Y-13002234D01*
X15360730Y-13002234D02*
X15398825Y-13002234D01*
X15398825Y-13002234D02*
X15417872Y-12992710D01*
X15417872Y-12992710D02*
X15427396Y-12973662D01*
X15427396Y-12973662D02*
X15427396Y-12964138D01*
X15427396Y-12964138D02*
X15417872Y-12945091D01*
X15417872Y-12945091D02*
X15398825Y-12935567D01*
X15398825Y-12935567D02*
X15370253Y-12935567D01*
X15370253Y-12935567D02*
X15351206Y-12926043D01*
X15351206Y-12926043D02*
X15341682Y-12906996D01*
X15341682Y-12906996D02*
X15341682Y-12897472D01*
X15341682Y-12897472D02*
X15351206Y-12878424D01*
X15351206Y-12878424D02*
X15370253Y-12868900D01*
X15370253Y-12868900D02*
X15398825Y-12868900D01*
X15398825Y-12868900D02*
X15417872Y-12878424D01*
X15494063Y-13078424D02*
X15503587Y-13068900D01*
X15503587Y-13068900D02*
X15522634Y-13040329D01*
X15522634Y-13040329D02*
X15532158Y-13021281D01*
X15532158Y-13021281D02*
X15541682Y-12992710D01*
X15541682Y-12992710D02*
X15551206Y-12945091D01*
X15551206Y-12945091D02*
X15551206Y-12906996D01*
X15551206Y-12906996D02*
X15541682Y-12859377D01*
X15541682Y-12859377D02*
X15532158Y-12830805D01*
X15532158Y-12830805D02*
X15522634Y-12811758D01*
X15522634Y-12811758D02*
X15503587Y-12783186D01*
X15503587Y-12783186D02*
X15494063Y-12773662D01*
D10*
X10669000Y-13224750D02*
X10719000Y-13174750D01*
X10669000Y-13124750D01*
X10619000Y-13174750D01*
X10669000Y-13224750D01*
D11*
X11084539Y-13266234D02*
X10970253Y-13266234D01*
X11027396Y-13266234D02*
X11027396Y-13066234D01*
X11027396Y-13066234D02*
X11008348Y-13094805D01*
X11008348Y-13094805D02*
X10989301Y-13113853D01*
X10989301Y-13113853D02*
X10970253Y-13123377D01*
X11170253Y-13247186D02*
X11179777Y-13256710D01*
X11179777Y-13256710D02*
X11170253Y-13266234D01*
X11170253Y-13266234D02*
X11160729Y-13256710D01*
X11160729Y-13256710D02*
X11170253Y-13247186D01*
X11170253Y-13247186D02*
X11170253Y-13266234D01*
X11303586Y-13066234D02*
X11322634Y-13066234D01*
X11322634Y-13066234D02*
X11341682Y-13075758D01*
X11341682Y-13075758D02*
X11351205Y-13085281D01*
X11351205Y-13085281D02*
X11360729Y-13104329D01*
X11360729Y-13104329D02*
X11370253Y-13142424D01*
X11370253Y-13142424D02*
X11370253Y-13190043D01*
X11370253Y-13190043D02*
X11360729Y-13228138D01*
X11360729Y-13228138D02*
X11351205Y-13247186D01*
X11351205Y-13247186D02*
X11341682Y-13256710D01*
X11341682Y-13256710D02*
X11322634Y-13266234D01*
X11322634Y-13266234D02*
X11303586Y-13266234D01*
X11303586Y-13266234D02*
X11284539Y-13256710D01*
X11284539Y-13256710D02*
X11275015Y-13247186D01*
X11275015Y-13247186D02*
X11265491Y-13228138D01*
X11265491Y-13228138D02*
X11255967Y-13190043D01*
X11255967Y-13190043D02*
X11255967Y-13142424D01*
X11255967Y-13142424D02*
X11265491Y-13104329D01*
X11265491Y-13104329D02*
X11275015Y-13085281D01*
X11275015Y-13085281D02*
X11284539Y-13075758D01*
X11284539Y-13075758D02*
X11303586Y-13066234D01*
X11494062Y-13066234D02*
X11513110Y-13066234D01*
X11513110Y-13066234D02*
X11532158Y-13075758D01*
X11532158Y-13075758D02*
X11541682Y-13085281D01*
X11541682Y-13085281D02*
X11551205Y-13104329D01*
X11551205Y-13104329D02*
X11560729Y-13142424D01*
X11560729Y-13142424D02*
X11560729Y-13190043D01*
X11560729Y-13190043D02*
X11551205Y-13228138D01*
X11551205Y-13228138D02*
X11541682Y-13247186D01*
X11541682Y-13247186D02*
X11532158Y-13256710D01*
X11532158Y-13256710D02*
X11513110Y-13266234D01*
X11513110Y-13266234D02*
X11494062Y-13266234D01*
X11494062Y-13266234D02*
X11475015Y-13256710D01*
X11475015Y-13256710D02*
X11465491Y-13247186D01*
X11465491Y-13247186D02*
X11455967Y-13228138D01*
X11455967Y-13228138D02*
X11446443Y-13190043D01*
X11446443Y-13190043D02*
X11446443Y-13142424D01*
X11446443Y-13142424D02*
X11455967Y-13104329D01*
X11455967Y-13104329D02*
X11465491Y-13085281D01*
X11465491Y-13085281D02*
X11475015Y-13075758D01*
X11475015Y-13075758D02*
X11494062Y-13066234D01*
X11684539Y-13066234D02*
X11703586Y-13066234D01*
X11703586Y-13066234D02*
X11722634Y-13075758D01*
X11722634Y-13075758D02*
X11732158Y-13085281D01*
X11732158Y-13085281D02*
X11741682Y-13104329D01*
X11741682Y-13104329D02*
X11751205Y-13142424D01*
X11751205Y-13142424D02*
X11751205Y-13190043D01*
X11751205Y-13190043D02*
X11741682Y-13228138D01*
X11741682Y-13228138D02*
X11732158Y-13247186D01*
X11732158Y-13247186D02*
X11722634Y-13256710D01*
X11722634Y-13256710D02*
X11703586Y-13266234D01*
X11703586Y-13266234D02*
X11684539Y-13266234D01*
X11684539Y-13266234D02*
X11665491Y-13256710D01*
X11665491Y-13256710D02*
X11655967Y-13247186D01*
X11655967Y-13247186D02*
X11646443Y-13228138D01*
X11646443Y-13228138D02*
X11636920Y-13190043D01*
X11636920Y-13190043D02*
X11636920Y-13142424D01*
X11636920Y-13142424D02*
X11646443Y-13104329D01*
X11646443Y-13104329D02*
X11655967Y-13085281D01*
X11655967Y-13085281D02*
X11665491Y-13075758D01*
X11665491Y-13075758D02*
X11684539Y-13066234D01*
X11836920Y-13266234D02*
X11836920Y-13132900D01*
X11836920Y-13151948D02*
X11846443Y-13142424D01*
X11846443Y-13142424D02*
X11865491Y-13132900D01*
X11865491Y-13132900D02*
X11894063Y-13132900D01*
X11894063Y-13132900D02*
X11913110Y-13142424D01*
X11913110Y-13142424D02*
X11922634Y-13161472D01*
X11922634Y-13161472D02*
X11922634Y-13266234D01*
X11922634Y-13161472D02*
X11932158Y-13142424D01*
X11932158Y-13142424D02*
X11951205Y-13132900D01*
X11951205Y-13132900D02*
X11979777Y-13132900D01*
X11979777Y-13132900D02*
X11998824Y-13142424D01*
X11998824Y-13142424D02*
X12008348Y-13161472D01*
X12008348Y-13161472D02*
X12008348Y-13266234D01*
X12103586Y-13266234D02*
X12103586Y-13132900D01*
X12103586Y-13151948D02*
X12113110Y-13142424D01*
X12113110Y-13142424D02*
X12132158Y-13132900D01*
X12132158Y-13132900D02*
X12160729Y-13132900D01*
X12160729Y-13132900D02*
X12179777Y-13142424D01*
X12179777Y-13142424D02*
X12189301Y-13161472D01*
X12189301Y-13161472D02*
X12189301Y-13266234D01*
X12189301Y-13161472D02*
X12198824Y-13142424D01*
X12198824Y-13142424D02*
X12217872Y-13132900D01*
X12217872Y-13132900D02*
X12246443Y-13132900D01*
X12246443Y-13132900D02*
X12265491Y-13142424D01*
X12265491Y-13142424D02*
X12275015Y-13161472D01*
X12275015Y-13161472D02*
X12275015Y-13266234D01*
X12665491Y-13056710D02*
X12494063Y-13313853D01*
X12922634Y-13066234D02*
X12941682Y-13066234D01*
X12941682Y-13066234D02*
X12960729Y-13075758D01*
X12960729Y-13075758D02*
X12970253Y-13085281D01*
X12970253Y-13085281D02*
X12979777Y-13104329D01*
X12979777Y-13104329D02*
X12989301Y-13142424D01*
X12989301Y-13142424D02*
X12989301Y-13190043D01*
X12989301Y-13190043D02*
X12979777Y-13228138D01*
X12979777Y-13228138D02*
X12970253Y-13247186D01*
X12970253Y-13247186D02*
X12960729Y-13256710D01*
X12960729Y-13256710D02*
X12941682Y-13266234D01*
X12941682Y-13266234D02*
X12922634Y-13266234D01*
X12922634Y-13266234D02*
X12903586Y-13256710D01*
X12903586Y-13256710D02*
X12894063Y-13247186D01*
X12894063Y-13247186D02*
X12884539Y-13228138D01*
X12884539Y-13228138D02*
X12875015Y-13190043D01*
X12875015Y-13190043D02*
X12875015Y-13142424D01*
X12875015Y-13142424D02*
X12884539Y-13104329D01*
X12884539Y-13104329D02*
X12894063Y-13085281D01*
X12894063Y-13085281D02*
X12903586Y-13075758D01*
X12903586Y-13075758D02*
X12922634Y-13066234D01*
X13075015Y-13247186D02*
X13084539Y-13256710D01*
X13084539Y-13256710D02*
X13075015Y-13266234D01*
X13075015Y-13266234D02*
X13065491Y-13256710D01*
X13065491Y-13256710D02*
X13075015Y-13247186D01*
X13075015Y-13247186D02*
X13075015Y-13266234D01*
X13208348Y-13066234D02*
X13227396Y-13066234D01*
X13227396Y-13066234D02*
X13246444Y-13075758D01*
X13246444Y-13075758D02*
X13255967Y-13085281D01*
X13255967Y-13085281D02*
X13265491Y-13104329D01*
X13265491Y-13104329D02*
X13275015Y-13142424D01*
X13275015Y-13142424D02*
X13275015Y-13190043D01*
X13275015Y-13190043D02*
X13265491Y-13228138D01*
X13265491Y-13228138D02*
X13255967Y-13247186D01*
X13255967Y-13247186D02*
X13246444Y-13256710D01*
X13246444Y-13256710D02*
X13227396Y-13266234D01*
X13227396Y-13266234D02*
X13208348Y-13266234D01*
X13208348Y-13266234D02*
X13189301Y-13256710D01*
X13189301Y-13256710D02*
X13179777Y-13247186D01*
X13179777Y-13247186D02*
X13170253Y-13228138D01*
X13170253Y-13228138D02*
X13160729Y-13190043D01*
X13160729Y-13190043D02*
X13160729Y-13142424D01*
X13160729Y-13142424D02*
X13170253Y-13104329D01*
X13170253Y-13104329D02*
X13179777Y-13085281D01*
X13179777Y-13085281D02*
X13189301Y-13075758D01*
X13189301Y-13075758D02*
X13208348Y-13066234D01*
X13341682Y-13066234D02*
X13465491Y-13066234D01*
X13465491Y-13066234D02*
X13398825Y-13142424D01*
X13398825Y-13142424D02*
X13427396Y-13142424D01*
X13427396Y-13142424D02*
X13446444Y-13151948D01*
X13446444Y-13151948D02*
X13455967Y-13161472D01*
X13455967Y-13161472D02*
X13465491Y-13180519D01*
X13465491Y-13180519D02*
X13465491Y-13228138D01*
X13465491Y-13228138D02*
X13455967Y-13247186D01*
X13455967Y-13247186D02*
X13446444Y-13256710D01*
X13446444Y-13256710D02*
X13427396Y-13266234D01*
X13427396Y-13266234D02*
X13370253Y-13266234D01*
X13370253Y-13266234D02*
X13351206Y-13256710D01*
X13351206Y-13256710D02*
X13341682Y-13247186D01*
X13560729Y-13266234D02*
X13598825Y-13266234D01*
X13598825Y-13266234D02*
X13617872Y-13256710D01*
X13617872Y-13256710D02*
X13627396Y-13247186D01*
X13627396Y-13247186D02*
X13646444Y-13218615D01*
X13646444Y-13218615D02*
X13655967Y-13180519D01*
X13655967Y-13180519D02*
X13655967Y-13104329D01*
X13655967Y-13104329D02*
X13646444Y-13085281D01*
X13646444Y-13085281D02*
X13636920Y-13075758D01*
X13636920Y-13075758D02*
X13617872Y-13066234D01*
X13617872Y-13066234D02*
X13579777Y-13066234D01*
X13579777Y-13066234D02*
X13560729Y-13075758D01*
X13560729Y-13075758D02*
X13551206Y-13085281D01*
X13551206Y-13085281D02*
X13541682Y-13104329D01*
X13541682Y-13104329D02*
X13541682Y-13151948D01*
X13541682Y-13151948D02*
X13551206Y-13170996D01*
X13551206Y-13170996D02*
X13560729Y-13180519D01*
X13560729Y-13180519D02*
X13579777Y-13190043D01*
X13579777Y-13190043D02*
X13617872Y-13190043D01*
X13617872Y-13190043D02*
X13636920Y-13180519D01*
X13636920Y-13180519D02*
X13646444Y-13170996D01*
X13646444Y-13170996D02*
X13655967Y-13151948D01*
X13827396Y-13132900D02*
X13827396Y-13266234D01*
X13779777Y-13056710D02*
X13732158Y-13199567D01*
X13732158Y-13199567D02*
X13855967Y-13199567D01*
X13922634Y-13066234D02*
X13922634Y-13104329D01*
X13998825Y-13066234D02*
X13998825Y-13104329D01*
X14294063Y-13342424D02*
X14284539Y-13332900D01*
X14284539Y-13332900D02*
X14265491Y-13304329D01*
X14265491Y-13304329D02*
X14255968Y-13285281D01*
X14255968Y-13285281D02*
X14246444Y-13256710D01*
X14246444Y-13256710D02*
X14236920Y-13209091D01*
X14236920Y-13209091D02*
X14236920Y-13170996D01*
X14236920Y-13170996D02*
X14246444Y-13123377D01*
X14246444Y-13123377D02*
X14255968Y-13094805D01*
X14255968Y-13094805D02*
X14265491Y-13075758D01*
X14265491Y-13075758D02*
X14284539Y-13047186D01*
X14284539Y-13047186D02*
X14294063Y-13037662D01*
X14455968Y-13066234D02*
X14417872Y-13066234D01*
X14417872Y-13066234D02*
X14398825Y-13075758D01*
X14398825Y-13075758D02*
X14389301Y-13085281D01*
X14389301Y-13085281D02*
X14370253Y-13113853D01*
X14370253Y-13113853D02*
X14360729Y-13151948D01*
X14360729Y-13151948D02*
X14360729Y-13228138D01*
X14360729Y-13228138D02*
X14370253Y-13247186D01*
X14370253Y-13247186D02*
X14379777Y-13256710D01*
X14379777Y-13256710D02*
X14398825Y-13266234D01*
X14398825Y-13266234D02*
X14436920Y-13266234D01*
X14436920Y-13266234D02*
X14455968Y-13256710D01*
X14455968Y-13256710D02*
X14465491Y-13247186D01*
X14465491Y-13247186D02*
X14475015Y-13228138D01*
X14475015Y-13228138D02*
X14475015Y-13180519D01*
X14475015Y-13180519D02*
X14465491Y-13161472D01*
X14465491Y-13161472D02*
X14455968Y-13151948D01*
X14455968Y-13151948D02*
X14436920Y-13142424D01*
X14436920Y-13142424D02*
X14398825Y-13142424D01*
X14398825Y-13142424D02*
X14379777Y-13151948D01*
X14379777Y-13151948D02*
X14370253Y-13161472D01*
X14370253Y-13161472D02*
X14360729Y-13180519D01*
X14598825Y-13066234D02*
X14617872Y-13066234D01*
X14617872Y-13066234D02*
X14636920Y-13075758D01*
X14636920Y-13075758D02*
X14646444Y-13085281D01*
X14646444Y-13085281D02*
X14655968Y-13104329D01*
X14655968Y-13104329D02*
X14665491Y-13142424D01*
X14665491Y-13142424D02*
X14665491Y-13190043D01*
X14665491Y-13190043D02*
X14655968Y-13228138D01*
X14655968Y-13228138D02*
X14646444Y-13247186D01*
X14646444Y-13247186D02*
X14636920Y-13256710D01*
X14636920Y-13256710D02*
X14617872Y-13266234D01*
X14617872Y-13266234D02*
X14598825Y-13266234D01*
X14598825Y-13266234D02*
X14579777Y-13256710D01*
X14579777Y-13256710D02*
X14570253Y-13247186D01*
X14570253Y-13247186D02*
X14560729Y-13228138D01*
X14560729Y-13228138D02*
X14551206Y-13190043D01*
X14551206Y-13190043D02*
X14551206Y-13142424D01*
X14551206Y-13142424D02*
X14560729Y-13104329D01*
X14560729Y-13104329D02*
X14570253Y-13085281D01*
X14570253Y-13085281D02*
X14579777Y-13075758D01*
X14579777Y-13075758D02*
X14598825Y-13066234D01*
X14903587Y-13266234D02*
X14903587Y-13066234D01*
X14989301Y-13266234D02*
X14989301Y-13161472D01*
X14989301Y-13161472D02*
X14979777Y-13142424D01*
X14979777Y-13142424D02*
X14960730Y-13132900D01*
X14960730Y-13132900D02*
X14932158Y-13132900D01*
X14932158Y-13132900D02*
X14913110Y-13142424D01*
X14913110Y-13142424D02*
X14903587Y-13151948D01*
X15113110Y-13266234D02*
X15094063Y-13256710D01*
X15094063Y-13256710D02*
X15084539Y-13247186D01*
X15084539Y-13247186D02*
X15075015Y-13228138D01*
X15075015Y-13228138D02*
X15075015Y-13170996D01*
X15075015Y-13170996D02*
X15084539Y-13151948D01*
X15084539Y-13151948D02*
X15094063Y-13142424D01*
X15094063Y-13142424D02*
X15113110Y-13132900D01*
X15113110Y-13132900D02*
X15141682Y-13132900D01*
X15141682Y-13132900D02*
X15160730Y-13142424D01*
X15160730Y-13142424D02*
X15170253Y-13151948D01*
X15170253Y-13151948D02*
X15179777Y-13170996D01*
X15179777Y-13170996D02*
X15179777Y-13228138D01*
X15179777Y-13228138D02*
X15170253Y-13247186D01*
X15170253Y-13247186D02*
X15160730Y-13256710D01*
X15160730Y-13256710D02*
X15141682Y-13266234D01*
X15141682Y-13266234D02*
X15113110Y-13266234D01*
X15294063Y-13266234D02*
X15275015Y-13256710D01*
X15275015Y-13256710D02*
X15265491Y-13237662D01*
X15265491Y-13237662D02*
X15265491Y-13066234D01*
X15446444Y-13256710D02*
X15427396Y-13266234D01*
X15427396Y-13266234D02*
X15389301Y-13266234D01*
X15389301Y-13266234D02*
X15370253Y-13256710D01*
X15370253Y-13256710D02*
X15360730Y-13237662D01*
X15360730Y-13237662D02*
X15360730Y-13161472D01*
X15360730Y-13161472D02*
X15370253Y-13142424D01*
X15370253Y-13142424D02*
X15389301Y-13132900D01*
X15389301Y-13132900D02*
X15427396Y-13132900D01*
X15427396Y-13132900D02*
X15446444Y-13142424D01*
X15446444Y-13142424D02*
X15455968Y-13161472D01*
X15455968Y-13161472D02*
X15455968Y-13180519D01*
X15455968Y-13180519D02*
X15360730Y-13199567D01*
X15532158Y-13256710D02*
X15551206Y-13266234D01*
X15551206Y-13266234D02*
X15589301Y-13266234D01*
X15589301Y-13266234D02*
X15608349Y-13256710D01*
X15608349Y-13256710D02*
X15617872Y-13237662D01*
X15617872Y-13237662D02*
X15617872Y-13228138D01*
X15617872Y-13228138D02*
X15608349Y-13209091D01*
X15608349Y-13209091D02*
X15589301Y-13199567D01*
X15589301Y-13199567D02*
X15560730Y-13199567D01*
X15560730Y-13199567D02*
X15541682Y-13190043D01*
X15541682Y-13190043D02*
X15532158Y-13170996D01*
X15532158Y-13170996D02*
X15532158Y-13161472D01*
X15532158Y-13161472D02*
X15541682Y-13142424D01*
X15541682Y-13142424D02*
X15560730Y-13132900D01*
X15560730Y-13132900D02*
X15589301Y-13132900D01*
X15589301Y-13132900D02*
X15608349Y-13142424D01*
X15684539Y-13342424D02*
X15694063Y-13332900D01*
X15694063Y-13332900D02*
X15713111Y-13304329D01*
X15713111Y-13304329D02*
X15722634Y-13285281D01*
X15722634Y-13285281D02*
X15732158Y-13256710D01*
X15732158Y-13256710D02*
X15741682Y-13209091D01*
X15741682Y-13209091D02*
X15741682Y-13170996D01*
X15741682Y-13170996D02*
X15732158Y-13123377D01*
X15732158Y-13123377D02*
X15722634Y-13094805D01*
X15722634Y-13094805D02*
X15713111Y-13075758D01*
X15713111Y-13075758D02*
X15694063Y-13047186D01*
X15694063Y-13047186D02*
X15684539Y-13037662D01*
D12*
X10609000Y-13383750D02*
X10719000Y-13493750D01*
X10719000Y-13383750D02*
X10609000Y-13493750D01*
X10719000Y-13438750D02*
G75*
G02*
X10609000Y-13438750I-55000J0D01*
G01*
X10609000Y-13438750D02*
G75*
G02*
X10719000Y-13438750I55000J0D01*
G01*
D11*
X11084539Y-13530234D02*
X10970253Y-13530234D01*
X11027396Y-13530234D02*
X11027396Y-13330234D01*
X11027396Y-13330234D02*
X11008348Y-13358805D01*
X11008348Y-13358805D02*
X10989301Y-13377853D01*
X10989301Y-13377853D02*
X10970253Y-13387377D01*
X11170253Y-13511186D02*
X11179777Y-13520710D01*
X11179777Y-13520710D02*
X11170253Y-13530234D01*
X11170253Y-13530234D02*
X11160729Y-13520710D01*
X11160729Y-13520710D02*
X11170253Y-13511186D01*
X11170253Y-13511186D02*
X11170253Y-13530234D01*
X11370253Y-13530234D02*
X11255967Y-13530234D01*
X11313110Y-13530234D02*
X11313110Y-13330234D01*
X11313110Y-13330234D02*
X11294062Y-13358805D01*
X11294062Y-13358805D02*
X11275015Y-13377853D01*
X11275015Y-13377853D02*
X11255967Y-13387377D01*
X11494062Y-13330234D02*
X11513110Y-13330234D01*
X11513110Y-13330234D02*
X11532158Y-13339758D01*
X11532158Y-13339758D02*
X11541682Y-13349281D01*
X11541682Y-13349281D02*
X11551205Y-13368329D01*
X11551205Y-13368329D02*
X11560729Y-13406424D01*
X11560729Y-13406424D02*
X11560729Y-13454043D01*
X11560729Y-13454043D02*
X11551205Y-13492138D01*
X11551205Y-13492138D02*
X11541682Y-13511186D01*
X11541682Y-13511186D02*
X11532158Y-13520710D01*
X11532158Y-13520710D02*
X11513110Y-13530234D01*
X11513110Y-13530234D02*
X11494062Y-13530234D01*
X11494062Y-13530234D02*
X11475015Y-13520710D01*
X11475015Y-13520710D02*
X11465491Y-13511186D01*
X11465491Y-13511186D02*
X11455967Y-13492138D01*
X11455967Y-13492138D02*
X11446443Y-13454043D01*
X11446443Y-13454043D02*
X11446443Y-13406424D01*
X11446443Y-13406424D02*
X11455967Y-13368329D01*
X11455967Y-13368329D02*
X11465491Y-13349281D01*
X11465491Y-13349281D02*
X11475015Y-13339758D01*
X11475015Y-13339758D02*
X11494062Y-13330234D01*
X11684539Y-13330234D02*
X11703586Y-13330234D01*
X11703586Y-13330234D02*
X11722634Y-13339758D01*
X11722634Y-13339758D02*
X11732158Y-13349281D01*
X11732158Y-13349281D02*
X11741682Y-13368329D01*
X11741682Y-13368329D02*
X11751205Y-13406424D01*
X11751205Y-13406424D02*
X11751205Y-13454043D01*
X11751205Y-13454043D02*
X11741682Y-13492138D01*
X11741682Y-13492138D02*
X11732158Y-13511186D01*
X11732158Y-13511186D02*
X11722634Y-13520710D01*
X11722634Y-13520710D02*
X11703586Y-13530234D01*
X11703586Y-13530234D02*
X11684539Y-13530234D01*
X11684539Y-13530234D02*
X11665491Y-13520710D01*
X11665491Y-13520710D02*
X11655967Y-13511186D01*
X11655967Y-13511186D02*
X11646443Y-13492138D01*
X11646443Y-13492138D02*
X11636920Y-13454043D01*
X11636920Y-13454043D02*
X11636920Y-13406424D01*
X11636920Y-13406424D02*
X11646443Y-13368329D01*
X11646443Y-13368329D02*
X11655967Y-13349281D01*
X11655967Y-13349281D02*
X11665491Y-13339758D01*
X11665491Y-13339758D02*
X11684539Y-13330234D01*
X11836920Y-13530234D02*
X11836920Y-13396900D01*
X11836920Y-13415948D02*
X11846443Y-13406424D01*
X11846443Y-13406424D02*
X11865491Y-13396900D01*
X11865491Y-13396900D02*
X11894063Y-13396900D01*
X11894063Y-13396900D02*
X11913110Y-13406424D01*
X11913110Y-13406424D02*
X11922634Y-13425472D01*
X11922634Y-13425472D02*
X11922634Y-13530234D01*
X11922634Y-13425472D02*
X11932158Y-13406424D01*
X11932158Y-13406424D02*
X11951205Y-13396900D01*
X11951205Y-13396900D02*
X11979777Y-13396900D01*
X11979777Y-13396900D02*
X11998824Y-13406424D01*
X11998824Y-13406424D02*
X12008348Y-13425472D01*
X12008348Y-13425472D02*
X12008348Y-13530234D01*
X12103586Y-13530234D02*
X12103586Y-13396900D01*
X12103586Y-13415948D02*
X12113110Y-13406424D01*
X12113110Y-13406424D02*
X12132158Y-13396900D01*
X12132158Y-13396900D02*
X12160729Y-13396900D01*
X12160729Y-13396900D02*
X12179777Y-13406424D01*
X12179777Y-13406424D02*
X12189301Y-13425472D01*
X12189301Y-13425472D02*
X12189301Y-13530234D01*
X12189301Y-13425472D02*
X12198824Y-13406424D01*
X12198824Y-13406424D02*
X12217872Y-13396900D01*
X12217872Y-13396900D02*
X12246443Y-13396900D01*
X12246443Y-13396900D02*
X12265491Y-13406424D01*
X12265491Y-13406424D02*
X12275015Y-13425472D01*
X12275015Y-13425472D02*
X12275015Y-13530234D01*
X12665491Y-13320710D02*
X12494063Y-13577853D01*
X12922634Y-13330234D02*
X12941682Y-13330234D01*
X12941682Y-13330234D02*
X12960729Y-13339758D01*
X12960729Y-13339758D02*
X12970253Y-13349281D01*
X12970253Y-13349281D02*
X12979777Y-13368329D01*
X12979777Y-13368329D02*
X12989301Y-13406424D01*
X12989301Y-13406424D02*
X12989301Y-13454043D01*
X12989301Y-13454043D02*
X12979777Y-13492138D01*
X12979777Y-13492138D02*
X12970253Y-13511186D01*
X12970253Y-13511186D02*
X12960729Y-13520710D01*
X12960729Y-13520710D02*
X12941682Y-13530234D01*
X12941682Y-13530234D02*
X12922634Y-13530234D01*
X12922634Y-13530234D02*
X12903586Y-13520710D01*
X12903586Y-13520710D02*
X12894063Y-13511186D01*
X12894063Y-13511186D02*
X12884539Y-13492138D01*
X12884539Y-13492138D02*
X12875015Y-13454043D01*
X12875015Y-13454043D02*
X12875015Y-13406424D01*
X12875015Y-13406424D02*
X12884539Y-13368329D01*
X12884539Y-13368329D02*
X12894063Y-13349281D01*
X12894063Y-13349281D02*
X12903586Y-13339758D01*
X12903586Y-13339758D02*
X12922634Y-13330234D01*
X13075015Y-13511186D02*
X13084539Y-13520710D01*
X13084539Y-13520710D02*
X13075015Y-13530234D01*
X13075015Y-13530234D02*
X13065491Y-13520710D01*
X13065491Y-13520710D02*
X13075015Y-13511186D01*
X13075015Y-13511186D02*
X13075015Y-13530234D01*
X13208348Y-13330234D02*
X13227396Y-13330234D01*
X13227396Y-13330234D02*
X13246444Y-13339758D01*
X13246444Y-13339758D02*
X13255967Y-13349281D01*
X13255967Y-13349281D02*
X13265491Y-13368329D01*
X13265491Y-13368329D02*
X13275015Y-13406424D01*
X13275015Y-13406424D02*
X13275015Y-13454043D01*
X13275015Y-13454043D02*
X13265491Y-13492138D01*
X13265491Y-13492138D02*
X13255967Y-13511186D01*
X13255967Y-13511186D02*
X13246444Y-13520710D01*
X13246444Y-13520710D02*
X13227396Y-13530234D01*
X13227396Y-13530234D02*
X13208348Y-13530234D01*
X13208348Y-13530234D02*
X13189301Y-13520710D01*
X13189301Y-13520710D02*
X13179777Y-13511186D01*
X13179777Y-13511186D02*
X13170253Y-13492138D01*
X13170253Y-13492138D02*
X13160729Y-13454043D01*
X13160729Y-13454043D02*
X13160729Y-13406424D01*
X13160729Y-13406424D02*
X13170253Y-13368329D01*
X13170253Y-13368329D02*
X13179777Y-13349281D01*
X13179777Y-13349281D02*
X13189301Y-13339758D01*
X13189301Y-13339758D02*
X13208348Y-13330234D01*
X13446444Y-13396900D02*
X13446444Y-13530234D01*
X13398825Y-13320710D02*
X13351206Y-13463567D01*
X13351206Y-13463567D02*
X13475015Y-13463567D01*
X13532158Y-13330234D02*
X13655967Y-13330234D01*
X13655967Y-13330234D02*
X13589301Y-13406424D01*
X13589301Y-13406424D02*
X13617872Y-13406424D01*
X13617872Y-13406424D02*
X13636920Y-13415948D01*
X13636920Y-13415948D02*
X13646444Y-13425472D01*
X13646444Y-13425472D02*
X13655967Y-13444519D01*
X13655967Y-13444519D02*
X13655967Y-13492138D01*
X13655967Y-13492138D02*
X13646444Y-13511186D01*
X13646444Y-13511186D02*
X13636920Y-13520710D01*
X13636920Y-13520710D02*
X13617872Y-13530234D01*
X13617872Y-13530234D02*
X13560729Y-13530234D01*
X13560729Y-13530234D02*
X13541682Y-13520710D01*
X13541682Y-13520710D02*
X13532158Y-13511186D01*
X13722634Y-13330234D02*
X13846444Y-13330234D01*
X13846444Y-13330234D02*
X13779777Y-13406424D01*
X13779777Y-13406424D02*
X13808348Y-13406424D01*
X13808348Y-13406424D02*
X13827396Y-13415948D01*
X13827396Y-13415948D02*
X13836920Y-13425472D01*
X13836920Y-13425472D02*
X13846444Y-13444519D01*
X13846444Y-13444519D02*
X13846444Y-13492138D01*
X13846444Y-13492138D02*
X13836920Y-13511186D01*
X13836920Y-13511186D02*
X13827396Y-13520710D01*
X13827396Y-13520710D02*
X13808348Y-13530234D01*
X13808348Y-13530234D02*
X13751206Y-13530234D01*
X13751206Y-13530234D02*
X13732158Y-13520710D01*
X13732158Y-13520710D02*
X13722634Y-13511186D01*
X13922634Y-13330234D02*
X13922634Y-13368329D01*
X13998825Y-13330234D02*
X13998825Y-13368329D01*
X14294063Y-13606424D02*
X14284539Y-13596900D01*
X14284539Y-13596900D02*
X14265491Y-13568329D01*
X14265491Y-13568329D02*
X14255968Y-13549281D01*
X14255968Y-13549281D02*
X14246444Y-13520710D01*
X14246444Y-13520710D02*
X14236920Y-13473091D01*
X14236920Y-13473091D02*
X14236920Y-13434996D01*
X14236920Y-13434996D02*
X14246444Y-13387377D01*
X14246444Y-13387377D02*
X14255968Y-13358805D01*
X14255968Y-13358805D02*
X14265491Y-13339758D01*
X14265491Y-13339758D02*
X14284539Y-13311186D01*
X14284539Y-13311186D02*
X14294063Y-13301662D01*
X14465491Y-13330234D02*
X14370253Y-13330234D01*
X14370253Y-13330234D02*
X14360729Y-13425472D01*
X14360729Y-13425472D02*
X14370253Y-13415948D01*
X14370253Y-13415948D02*
X14389301Y-13406424D01*
X14389301Y-13406424D02*
X14436920Y-13406424D01*
X14436920Y-13406424D02*
X14455968Y-13415948D01*
X14455968Y-13415948D02*
X14465491Y-13425472D01*
X14465491Y-13425472D02*
X14475015Y-13444519D01*
X14475015Y-13444519D02*
X14475015Y-13492138D01*
X14475015Y-13492138D02*
X14465491Y-13511186D01*
X14465491Y-13511186D02*
X14455968Y-13520710D01*
X14455968Y-13520710D02*
X14436920Y-13530234D01*
X14436920Y-13530234D02*
X14389301Y-13530234D01*
X14389301Y-13530234D02*
X14370253Y-13520710D01*
X14370253Y-13520710D02*
X14360729Y-13511186D01*
X14713110Y-13530234D02*
X14713110Y-13330234D01*
X14798825Y-13530234D02*
X14798825Y-13425472D01*
X14798825Y-13425472D02*
X14789301Y-13406424D01*
X14789301Y-13406424D02*
X14770253Y-13396900D01*
X14770253Y-13396900D02*
X14741682Y-13396900D01*
X14741682Y-13396900D02*
X14722634Y-13406424D01*
X14722634Y-13406424D02*
X14713110Y-13415948D01*
X14922634Y-13530234D02*
X14903587Y-13520710D01*
X14903587Y-13520710D02*
X14894063Y-13511186D01*
X14894063Y-13511186D02*
X14884539Y-13492138D01*
X14884539Y-13492138D02*
X14884539Y-13434996D01*
X14884539Y-13434996D02*
X14894063Y-13415948D01*
X14894063Y-13415948D02*
X14903587Y-13406424D01*
X14903587Y-13406424D02*
X14922634Y-13396900D01*
X14922634Y-13396900D02*
X14951206Y-13396900D01*
X14951206Y-13396900D02*
X14970253Y-13406424D01*
X14970253Y-13406424D02*
X14979777Y-13415948D01*
X14979777Y-13415948D02*
X14989301Y-13434996D01*
X14989301Y-13434996D02*
X14989301Y-13492138D01*
X14989301Y-13492138D02*
X14979777Y-13511186D01*
X14979777Y-13511186D02*
X14970253Y-13520710D01*
X14970253Y-13520710D02*
X14951206Y-13530234D01*
X14951206Y-13530234D02*
X14922634Y-13530234D01*
X15103587Y-13530234D02*
X15084539Y-13520710D01*
X15084539Y-13520710D02*
X15075015Y-13501662D01*
X15075015Y-13501662D02*
X15075015Y-13330234D01*
X15255968Y-13520710D02*
X15236920Y-13530234D01*
X15236920Y-13530234D02*
X15198825Y-13530234D01*
X15198825Y-13530234D02*
X15179777Y-13520710D01*
X15179777Y-13520710D02*
X15170253Y-13501662D01*
X15170253Y-13501662D02*
X15170253Y-13425472D01*
X15170253Y-13425472D02*
X15179777Y-13406424D01*
X15179777Y-13406424D02*
X15198825Y-13396900D01*
X15198825Y-13396900D02*
X15236920Y-13396900D01*
X15236920Y-13396900D02*
X15255968Y-13406424D01*
X15255968Y-13406424D02*
X15265491Y-13425472D01*
X15265491Y-13425472D02*
X15265491Y-13444519D01*
X15265491Y-13444519D02*
X15170253Y-13463567D01*
X15341682Y-13520710D02*
X15360730Y-13530234D01*
X15360730Y-13530234D02*
X15398825Y-13530234D01*
X15398825Y-13530234D02*
X15417872Y-13520710D01*
X15417872Y-13520710D02*
X15427396Y-13501662D01*
X15427396Y-13501662D02*
X15427396Y-13492138D01*
X15427396Y-13492138D02*
X15417872Y-13473091D01*
X15417872Y-13473091D02*
X15398825Y-13463567D01*
X15398825Y-13463567D02*
X15370253Y-13463567D01*
X15370253Y-13463567D02*
X15351206Y-13454043D01*
X15351206Y-13454043D02*
X15341682Y-13434996D01*
X15341682Y-13434996D02*
X15341682Y-13425472D01*
X15341682Y-13425472D02*
X15351206Y-13406424D01*
X15351206Y-13406424D02*
X15370253Y-13396900D01*
X15370253Y-13396900D02*
X15398825Y-13396900D01*
X15398825Y-13396900D02*
X15417872Y-13406424D01*
X15494063Y-13606424D02*
X15503587Y-13596900D01*
X15503587Y-13596900D02*
X15522634Y-13568329D01*
X15522634Y-13568329D02*
X15532158Y-13549281D01*
X15532158Y-13549281D02*
X15541682Y-13520710D01*
X15541682Y-13520710D02*
X15551206Y-13473091D01*
X15551206Y-13473091D02*
X15551206Y-13434996D01*
X15551206Y-13434996D02*
X15541682Y-13387377D01*
X15541682Y-13387377D02*
X15532158Y-13358805D01*
X15532158Y-13358805D02*
X15522634Y-13339758D01*
X15522634Y-13339758D02*
X15503587Y-13311186D01*
X15503587Y-13311186D02*
X15494063Y-13301662D01*
D13*
X10599000Y-13642750D02*
X10719000Y-13762750D01*
X10719000Y-13642750D02*
X10599000Y-13762750D01*
X10659000Y-13642750D02*
X10659000Y-13762750D01*
X10599000Y-13702750D02*
X10719000Y-13702750D01*
D11*
X11084539Y-13794234D02*
X10970253Y-13794234D01*
X11027396Y-13794234D02*
X11027396Y-13594234D01*
X11027396Y-13594234D02*
X11008348Y-13622805D01*
X11008348Y-13622805D02*
X10989301Y-13641853D01*
X10989301Y-13641853D02*
X10970253Y-13651377D01*
X11170253Y-13775186D02*
X11179777Y-13784710D01*
X11179777Y-13784710D02*
X11170253Y-13794234D01*
X11170253Y-13794234D02*
X11160729Y-13784710D01*
X11160729Y-13784710D02*
X11170253Y-13775186D01*
X11170253Y-13775186D02*
X11170253Y-13794234D01*
X11255967Y-13613281D02*
X11265491Y-13603758D01*
X11265491Y-13603758D02*
X11284539Y-13594234D01*
X11284539Y-13594234D02*
X11332158Y-13594234D01*
X11332158Y-13594234D02*
X11351205Y-13603758D01*
X11351205Y-13603758D02*
X11360729Y-13613281D01*
X11360729Y-13613281D02*
X11370253Y-13632329D01*
X11370253Y-13632329D02*
X11370253Y-13651377D01*
X11370253Y-13651377D02*
X11360729Y-13679948D01*
X11360729Y-13679948D02*
X11246443Y-13794234D01*
X11246443Y-13794234D02*
X11370253Y-13794234D01*
X11494062Y-13594234D02*
X11513110Y-13594234D01*
X11513110Y-13594234D02*
X11532158Y-13603758D01*
X11532158Y-13603758D02*
X11541682Y-13613281D01*
X11541682Y-13613281D02*
X11551205Y-13632329D01*
X11551205Y-13632329D02*
X11560729Y-13670424D01*
X11560729Y-13670424D02*
X11560729Y-13718043D01*
X11560729Y-13718043D02*
X11551205Y-13756138D01*
X11551205Y-13756138D02*
X11541682Y-13775186D01*
X11541682Y-13775186D02*
X11532158Y-13784710D01*
X11532158Y-13784710D02*
X11513110Y-13794234D01*
X11513110Y-13794234D02*
X11494062Y-13794234D01*
X11494062Y-13794234D02*
X11475015Y-13784710D01*
X11475015Y-13784710D02*
X11465491Y-13775186D01*
X11465491Y-13775186D02*
X11455967Y-13756138D01*
X11455967Y-13756138D02*
X11446443Y-13718043D01*
X11446443Y-13718043D02*
X11446443Y-13670424D01*
X11446443Y-13670424D02*
X11455967Y-13632329D01*
X11455967Y-13632329D02*
X11465491Y-13613281D01*
X11465491Y-13613281D02*
X11475015Y-13603758D01*
X11475015Y-13603758D02*
X11494062Y-13594234D01*
X11684539Y-13594234D02*
X11703586Y-13594234D01*
X11703586Y-13594234D02*
X11722634Y-13603758D01*
X11722634Y-13603758D02*
X11732158Y-13613281D01*
X11732158Y-13613281D02*
X11741682Y-13632329D01*
X11741682Y-13632329D02*
X11751205Y-13670424D01*
X11751205Y-13670424D02*
X11751205Y-13718043D01*
X11751205Y-13718043D02*
X11741682Y-13756138D01*
X11741682Y-13756138D02*
X11732158Y-13775186D01*
X11732158Y-13775186D02*
X11722634Y-13784710D01*
X11722634Y-13784710D02*
X11703586Y-13794234D01*
X11703586Y-13794234D02*
X11684539Y-13794234D01*
X11684539Y-13794234D02*
X11665491Y-13784710D01*
X11665491Y-13784710D02*
X11655967Y-13775186D01*
X11655967Y-13775186D02*
X11646443Y-13756138D01*
X11646443Y-13756138D02*
X11636920Y-13718043D01*
X11636920Y-13718043D02*
X11636920Y-13670424D01*
X11636920Y-13670424D02*
X11646443Y-13632329D01*
X11646443Y-13632329D02*
X11655967Y-13613281D01*
X11655967Y-13613281D02*
X11665491Y-13603758D01*
X11665491Y-13603758D02*
X11684539Y-13594234D01*
X11836920Y-13794234D02*
X11836920Y-13660900D01*
X11836920Y-13679948D02*
X11846443Y-13670424D01*
X11846443Y-13670424D02*
X11865491Y-13660900D01*
X11865491Y-13660900D02*
X11894063Y-13660900D01*
X11894063Y-13660900D02*
X11913110Y-13670424D01*
X11913110Y-13670424D02*
X11922634Y-13689472D01*
X11922634Y-13689472D02*
X11922634Y-13794234D01*
X11922634Y-13689472D02*
X11932158Y-13670424D01*
X11932158Y-13670424D02*
X11951205Y-13660900D01*
X11951205Y-13660900D02*
X11979777Y-13660900D01*
X11979777Y-13660900D02*
X11998824Y-13670424D01*
X11998824Y-13670424D02*
X12008348Y-13689472D01*
X12008348Y-13689472D02*
X12008348Y-13794234D01*
X12103586Y-13794234D02*
X12103586Y-13660900D01*
X12103586Y-13679948D02*
X12113110Y-13670424D01*
X12113110Y-13670424D02*
X12132158Y-13660900D01*
X12132158Y-13660900D02*
X12160729Y-13660900D01*
X12160729Y-13660900D02*
X12179777Y-13670424D01*
X12179777Y-13670424D02*
X12189301Y-13689472D01*
X12189301Y-13689472D02*
X12189301Y-13794234D01*
X12189301Y-13689472D02*
X12198824Y-13670424D01*
X12198824Y-13670424D02*
X12217872Y-13660900D01*
X12217872Y-13660900D02*
X12246443Y-13660900D01*
X12246443Y-13660900D02*
X12265491Y-13670424D01*
X12265491Y-13670424D02*
X12275015Y-13689472D01*
X12275015Y-13689472D02*
X12275015Y-13794234D01*
X12665491Y-13584710D02*
X12494063Y-13841853D01*
X12922634Y-13594234D02*
X12941682Y-13594234D01*
X12941682Y-13594234D02*
X12960729Y-13603758D01*
X12960729Y-13603758D02*
X12970253Y-13613281D01*
X12970253Y-13613281D02*
X12979777Y-13632329D01*
X12979777Y-13632329D02*
X12989301Y-13670424D01*
X12989301Y-13670424D02*
X12989301Y-13718043D01*
X12989301Y-13718043D02*
X12979777Y-13756138D01*
X12979777Y-13756138D02*
X12970253Y-13775186D01*
X12970253Y-13775186D02*
X12960729Y-13784710D01*
X12960729Y-13784710D02*
X12941682Y-13794234D01*
X12941682Y-13794234D02*
X12922634Y-13794234D01*
X12922634Y-13794234D02*
X12903586Y-13784710D01*
X12903586Y-13784710D02*
X12894063Y-13775186D01*
X12894063Y-13775186D02*
X12884539Y-13756138D01*
X12884539Y-13756138D02*
X12875015Y-13718043D01*
X12875015Y-13718043D02*
X12875015Y-13670424D01*
X12875015Y-13670424D02*
X12884539Y-13632329D01*
X12884539Y-13632329D02*
X12894063Y-13613281D01*
X12894063Y-13613281D02*
X12903586Y-13603758D01*
X12903586Y-13603758D02*
X12922634Y-13594234D01*
X13075015Y-13775186D02*
X13084539Y-13784710D01*
X13084539Y-13784710D02*
X13075015Y-13794234D01*
X13075015Y-13794234D02*
X13065491Y-13784710D01*
X13065491Y-13784710D02*
X13075015Y-13775186D01*
X13075015Y-13775186D02*
X13075015Y-13794234D01*
X13208348Y-13594234D02*
X13227396Y-13594234D01*
X13227396Y-13594234D02*
X13246444Y-13603758D01*
X13246444Y-13603758D02*
X13255967Y-13613281D01*
X13255967Y-13613281D02*
X13265491Y-13632329D01*
X13265491Y-13632329D02*
X13275015Y-13670424D01*
X13275015Y-13670424D02*
X13275015Y-13718043D01*
X13275015Y-13718043D02*
X13265491Y-13756138D01*
X13265491Y-13756138D02*
X13255967Y-13775186D01*
X13255967Y-13775186D02*
X13246444Y-13784710D01*
X13246444Y-13784710D02*
X13227396Y-13794234D01*
X13227396Y-13794234D02*
X13208348Y-13794234D01*
X13208348Y-13794234D02*
X13189301Y-13784710D01*
X13189301Y-13784710D02*
X13179777Y-13775186D01*
X13179777Y-13775186D02*
X13170253Y-13756138D01*
X13170253Y-13756138D02*
X13160729Y-13718043D01*
X13160729Y-13718043D02*
X13160729Y-13670424D01*
X13160729Y-13670424D02*
X13170253Y-13632329D01*
X13170253Y-13632329D02*
X13179777Y-13613281D01*
X13179777Y-13613281D02*
X13189301Y-13603758D01*
X13189301Y-13603758D02*
X13208348Y-13594234D01*
X13446444Y-13660900D02*
X13446444Y-13794234D01*
X13398825Y-13584710D02*
X13351206Y-13727567D01*
X13351206Y-13727567D02*
X13475015Y-13727567D01*
X13532158Y-13594234D02*
X13665491Y-13594234D01*
X13665491Y-13594234D02*
X13579777Y-13794234D01*
X13732158Y-13613281D02*
X13741682Y-13603758D01*
X13741682Y-13603758D02*
X13760729Y-13594234D01*
X13760729Y-13594234D02*
X13808348Y-13594234D01*
X13808348Y-13594234D02*
X13827396Y-13603758D01*
X13827396Y-13603758D02*
X13836920Y-13613281D01*
X13836920Y-13613281D02*
X13846444Y-13632329D01*
X13846444Y-13632329D02*
X13846444Y-13651377D01*
X13846444Y-13651377D02*
X13836920Y-13679948D01*
X13836920Y-13679948D02*
X13722634Y-13794234D01*
X13722634Y-13794234D02*
X13846444Y-13794234D01*
X13922634Y-13594234D02*
X13922634Y-13632329D01*
X13998825Y-13594234D02*
X13998825Y-13632329D01*
X14294063Y-13870424D02*
X14284539Y-13860900D01*
X14284539Y-13860900D02*
X14265491Y-13832329D01*
X14265491Y-13832329D02*
X14255968Y-13813281D01*
X14255968Y-13813281D02*
X14246444Y-13784710D01*
X14246444Y-13784710D02*
X14236920Y-13737091D01*
X14236920Y-13737091D02*
X14236920Y-13698996D01*
X14236920Y-13698996D02*
X14246444Y-13651377D01*
X14246444Y-13651377D02*
X14255968Y-13622805D01*
X14255968Y-13622805D02*
X14265491Y-13603758D01*
X14265491Y-13603758D02*
X14284539Y-13575186D01*
X14284539Y-13575186D02*
X14294063Y-13565662D01*
X14455968Y-13660900D02*
X14455968Y-13794234D01*
X14408348Y-13584710D02*
X14360729Y-13727567D01*
X14360729Y-13727567D02*
X14484539Y-13727567D01*
X14713110Y-13794234D02*
X14713110Y-13594234D01*
X14798825Y-13794234D02*
X14798825Y-13689472D01*
X14798825Y-13689472D02*
X14789301Y-13670424D01*
X14789301Y-13670424D02*
X14770253Y-13660900D01*
X14770253Y-13660900D02*
X14741682Y-13660900D01*
X14741682Y-13660900D02*
X14722634Y-13670424D01*
X14722634Y-13670424D02*
X14713110Y-13679948D01*
X14922634Y-13794234D02*
X14903587Y-13784710D01*
X14903587Y-13784710D02*
X14894063Y-13775186D01*
X14894063Y-13775186D02*
X14884539Y-13756138D01*
X14884539Y-13756138D02*
X14884539Y-13698996D01*
X14884539Y-13698996D02*
X14894063Y-13679948D01*
X14894063Y-13679948D02*
X14903587Y-13670424D01*
X14903587Y-13670424D02*
X14922634Y-13660900D01*
X14922634Y-13660900D02*
X14951206Y-13660900D01*
X14951206Y-13660900D02*
X14970253Y-13670424D01*
X14970253Y-13670424D02*
X14979777Y-13679948D01*
X14979777Y-13679948D02*
X14989301Y-13698996D01*
X14989301Y-13698996D02*
X14989301Y-13756138D01*
X14989301Y-13756138D02*
X14979777Y-13775186D01*
X14979777Y-13775186D02*
X14970253Y-13784710D01*
X14970253Y-13784710D02*
X14951206Y-13794234D01*
X14951206Y-13794234D02*
X14922634Y-13794234D01*
X15103587Y-13794234D02*
X15084539Y-13784710D01*
X15084539Y-13784710D02*
X15075015Y-13765662D01*
X15075015Y-13765662D02*
X15075015Y-13594234D01*
X15255968Y-13784710D02*
X15236920Y-13794234D01*
X15236920Y-13794234D02*
X15198825Y-13794234D01*
X15198825Y-13794234D02*
X15179777Y-13784710D01*
X15179777Y-13784710D02*
X15170253Y-13765662D01*
X15170253Y-13765662D02*
X15170253Y-13689472D01*
X15170253Y-13689472D02*
X15179777Y-13670424D01*
X15179777Y-13670424D02*
X15198825Y-13660900D01*
X15198825Y-13660900D02*
X15236920Y-13660900D01*
X15236920Y-13660900D02*
X15255968Y-13670424D01*
X15255968Y-13670424D02*
X15265491Y-13689472D01*
X15265491Y-13689472D02*
X15265491Y-13708519D01*
X15265491Y-13708519D02*
X15170253Y-13727567D01*
X15341682Y-13784710D02*
X15360730Y-13794234D01*
X15360730Y-13794234D02*
X15398825Y-13794234D01*
X15398825Y-13794234D02*
X15417872Y-13784710D01*
X15417872Y-13784710D02*
X15427396Y-13765662D01*
X15427396Y-13765662D02*
X15427396Y-13756138D01*
X15427396Y-13756138D02*
X15417872Y-13737091D01*
X15417872Y-13737091D02*
X15398825Y-13727567D01*
X15398825Y-13727567D02*
X15370253Y-13727567D01*
X15370253Y-13727567D02*
X15351206Y-13718043D01*
X15351206Y-13718043D02*
X15341682Y-13698996D01*
X15341682Y-13698996D02*
X15341682Y-13689472D01*
X15341682Y-13689472D02*
X15351206Y-13670424D01*
X15351206Y-13670424D02*
X15370253Y-13660900D01*
X15370253Y-13660900D02*
X15398825Y-13660900D01*
X15398825Y-13660900D02*
X15417872Y-13670424D01*
X15494063Y-13870424D02*
X15503587Y-13860900D01*
X15503587Y-13860900D02*
X15522634Y-13832329D01*
X15522634Y-13832329D02*
X15532158Y-13813281D01*
X15532158Y-13813281D02*
X15541682Y-13784710D01*
X15541682Y-13784710D02*
X15551206Y-13737091D01*
X15551206Y-13737091D02*
X15551206Y-13698996D01*
X15551206Y-13698996D02*
X15541682Y-13651377D01*
X15541682Y-13651377D02*
X15532158Y-13622805D01*
X15532158Y-13622805D02*
X15522634Y-13603758D01*
X15522634Y-13603758D02*
X15503587Y-13575186D01*
X15503587Y-13575186D02*
X15494063Y-13565662D01*
X10519000Y-13866750D02*
X10719000Y-14066750D01*
X10719000Y-13866750D02*
X10519000Y-14066750D01*
X10689711Y-14037461D02*
X10689711Y-13896039D01*
X10548289Y-13896039D01*
X10548289Y-14037461D01*
X10689711Y-14037461D01*
X10970253Y-13877281D02*
X10979777Y-13867758D01*
X10979777Y-13867758D02*
X10998824Y-13858234D01*
X10998824Y-13858234D02*
X11046444Y-13858234D01*
X11046444Y-13858234D02*
X11065491Y-13867758D01*
X11065491Y-13867758D02*
X11075015Y-13877281D01*
X11075015Y-13877281D02*
X11084539Y-13896329D01*
X11084539Y-13896329D02*
X11084539Y-13915377D01*
X11084539Y-13915377D02*
X11075015Y-13943948D01*
X11075015Y-13943948D02*
X10960729Y-14058234D01*
X10960729Y-14058234D02*
X11084539Y-14058234D01*
X11170253Y-14039186D02*
X11179777Y-14048710D01*
X11179777Y-14048710D02*
X11170253Y-14058234D01*
X11170253Y-14058234D02*
X11160729Y-14048710D01*
X11160729Y-14048710D02*
X11170253Y-14039186D01*
X11170253Y-14039186D02*
X11170253Y-14058234D01*
X11246443Y-13858234D02*
X11370253Y-13858234D01*
X11370253Y-13858234D02*
X11303586Y-13934424D01*
X11303586Y-13934424D02*
X11332158Y-13934424D01*
X11332158Y-13934424D02*
X11351205Y-13943948D01*
X11351205Y-13943948D02*
X11360729Y-13953472D01*
X11360729Y-13953472D02*
X11370253Y-13972519D01*
X11370253Y-13972519D02*
X11370253Y-14020138D01*
X11370253Y-14020138D02*
X11360729Y-14039186D01*
X11360729Y-14039186D02*
X11351205Y-14048710D01*
X11351205Y-14048710D02*
X11332158Y-14058234D01*
X11332158Y-14058234D02*
X11275015Y-14058234D01*
X11275015Y-14058234D02*
X11255967Y-14048710D01*
X11255967Y-14048710D02*
X11246443Y-14039186D01*
X11494062Y-13858234D02*
X11513110Y-13858234D01*
X11513110Y-13858234D02*
X11532158Y-13867758D01*
X11532158Y-13867758D02*
X11541682Y-13877281D01*
X11541682Y-13877281D02*
X11551205Y-13896329D01*
X11551205Y-13896329D02*
X11560729Y-13934424D01*
X11560729Y-13934424D02*
X11560729Y-13982043D01*
X11560729Y-13982043D02*
X11551205Y-14020138D01*
X11551205Y-14020138D02*
X11541682Y-14039186D01*
X11541682Y-14039186D02*
X11532158Y-14048710D01*
X11532158Y-14048710D02*
X11513110Y-14058234D01*
X11513110Y-14058234D02*
X11494062Y-14058234D01*
X11494062Y-14058234D02*
X11475015Y-14048710D01*
X11475015Y-14048710D02*
X11465491Y-14039186D01*
X11465491Y-14039186D02*
X11455967Y-14020138D01*
X11455967Y-14020138D02*
X11446443Y-13982043D01*
X11446443Y-13982043D02*
X11446443Y-13934424D01*
X11446443Y-13934424D02*
X11455967Y-13896329D01*
X11455967Y-13896329D02*
X11465491Y-13877281D01*
X11465491Y-13877281D02*
X11475015Y-13867758D01*
X11475015Y-13867758D02*
X11494062Y-13858234D01*
X11684539Y-13858234D02*
X11703586Y-13858234D01*
X11703586Y-13858234D02*
X11722634Y-13867758D01*
X11722634Y-13867758D02*
X11732158Y-13877281D01*
X11732158Y-13877281D02*
X11741682Y-13896329D01*
X11741682Y-13896329D02*
X11751205Y-13934424D01*
X11751205Y-13934424D02*
X11751205Y-13982043D01*
X11751205Y-13982043D02*
X11741682Y-14020138D01*
X11741682Y-14020138D02*
X11732158Y-14039186D01*
X11732158Y-14039186D02*
X11722634Y-14048710D01*
X11722634Y-14048710D02*
X11703586Y-14058234D01*
X11703586Y-14058234D02*
X11684539Y-14058234D01*
X11684539Y-14058234D02*
X11665491Y-14048710D01*
X11665491Y-14048710D02*
X11655967Y-14039186D01*
X11655967Y-14039186D02*
X11646443Y-14020138D01*
X11646443Y-14020138D02*
X11636920Y-13982043D01*
X11636920Y-13982043D02*
X11636920Y-13934424D01*
X11636920Y-13934424D02*
X11646443Y-13896329D01*
X11646443Y-13896329D02*
X11655967Y-13877281D01*
X11655967Y-13877281D02*
X11665491Y-13867758D01*
X11665491Y-13867758D02*
X11684539Y-13858234D01*
X11836920Y-14058234D02*
X11836920Y-13924900D01*
X11836920Y-13943948D02*
X11846443Y-13934424D01*
X11846443Y-13934424D02*
X11865491Y-13924900D01*
X11865491Y-13924900D02*
X11894063Y-13924900D01*
X11894063Y-13924900D02*
X11913110Y-13934424D01*
X11913110Y-13934424D02*
X11922634Y-13953472D01*
X11922634Y-13953472D02*
X11922634Y-14058234D01*
X11922634Y-13953472D02*
X11932158Y-13934424D01*
X11932158Y-13934424D02*
X11951205Y-13924900D01*
X11951205Y-13924900D02*
X11979777Y-13924900D01*
X11979777Y-13924900D02*
X11998824Y-13934424D01*
X11998824Y-13934424D02*
X12008348Y-13953472D01*
X12008348Y-13953472D02*
X12008348Y-14058234D01*
X12103586Y-14058234D02*
X12103586Y-13924900D01*
X12103586Y-13943948D02*
X12113110Y-13934424D01*
X12113110Y-13934424D02*
X12132158Y-13924900D01*
X12132158Y-13924900D02*
X12160729Y-13924900D01*
X12160729Y-13924900D02*
X12179777Y-13934424D01*
X12179777Y-13934424D02*
X12189301Y-13953472D01*
X12189301Y-13953472D02*
X12189301Y-14058234D01*
X12189301Y-13953472D02*
X12198824Y-13934424D01*
X12198824Y-13934424D02*
X12217872Y-13924900D01*
X12217872Y-13924900D02*
X12246443Y-13924900D01*
X12246443Y-13924900D02*
X12265491Y-13934424D01*
X12265491Y-13934424D02*
X12275015Y-13953472D01*
X12275015Y-13953472D02*
X12275015Y-14058234D01*
X12665491Y-13848710D02*
X12494063Y-14105853D01*
X12922634Y-13858234D02*
X12941682Y-13858234D01*
X12941682Y-13858234D02*
X12960729Y-13867758D01*
X12960729Y-13867758D02*
X12970253Y-13877281D01*
X12970253Y-13877281D02*
X12979777Y-13896329D01*
X12979777Y-13896329D02*
X12989301Y-13934424D01*
X12989301Y-13934424D02*
X12989301Y-13982043D01*
X12989301Y-13982043D02*
X12979777Y-14020138D01*
X12979777Y-14020138D02*
X12970253Y-14039186D01*
X12970253Y-14039186D02*
X12960729Y-14048710D01*
X12960729Y-14048710D02*
X12941682Y-14058234D01*
X12941682Y-14058234D02*
X12922634Y-14058234D01*
X12922634Y-14058234D02*
X12903586Y-14048710D01*
X12903586Y-14048710D02*
X12894063Y-14039186D01*
X12894063Y-14039186D02*
X12884539Y-14020138D01*
X12884539Y-14020138D02*
X12875015Y-13982043D01*
X12875015Y-13982043D02*
X12875015Y-13934424D01*
X12875015Y-13934424D02*
X12884539Y-13896329D01*
X12884539Y-13896329D02*
X12894063Y-13877281D01*
X12894063Y-13877281D02*
X12903586Y-13867758D01*
X12903586Y-13867758D02*
X12922634Y-13858234D01*
X13075015Y-14039186D02*
X13084539Y-14048710D01*
X13084539Y-14048710D02*
X13075015Y-14058234D01*
X13075015Y-14058234D02*
X13065491Y-14048710D01*
X13065491Y-14048710D02*
X13075015Y-14039186D01*
X13075015Y-14039186D02*
X13075015Y-14058234D01*
X13208348Y-13858234D02*
X13227396Y-13858234D01*
X13227396Y-13858234D02*
X13246444Y-13867758D01*
X13246444Y-13867758D02*
X13255967Y-13877281D01*
X13255967Y-13877281D02*
X13265491Y-13896329D01*
X13265491Y-13896329D02*
X13275015Y-13934424D01*
X13275015Y-13934424D02*
X13275015Y-13982043D01*
X13275015Y-13982043D02*
X13265491Y-14020138D01*
X13265491Y-14020138D02*
X13255967Y-14039186D01*
X13255967Y-14039186D02*
X13246444Y-14048710D01*
X13246444Y-14048710D02*
X13227396Y-14058234D01*
X13227396Y-14058234D02*
X13208348Y-14058234D01*
X13208348Y-14058234D02*
X13189301Y-14048710D01*
X13189301Y-14048710D02*
X13179777Y-14039186D01*
X13179777Y-14039186D02*
X13170253Y-14020138D01*
X13170253Y-14020138D02*
X13160729Y-13982043D01*
X13160729Y-13982043D02*
X13160729Y-13934424D01*
X13160729Y-13934424D02*
X13170253Y-13896329D01*
X13170253Y-13896329D02*
X13179777Y-13877281D01*
X13179777Y-13877281D02*
X13189301Y-13867758D01*
X13189301Y-13867758D02*
X13208348Y-13858234D01*
X13370253Y-14058234D02*
X13408348Y-14058234D01*
X13408348Y-14058234D02*
X13427396Y-14048710D01*
X13427396Y-14048710D02*
X13436920Y-14039186D01*
X13436920Y-14039186D02*
X13455967Y-14010615D01*
X13455967Y-14010615D02*
X13465491Y-13972519D01*
X13465491Y-13972519D02*
X13465491Y-13896329D01*
X13465491Y-13896329D02*
X13455967Y-13877281D01*
X13455967Y-13877281D02*
X13446444Y-13867758D01*
X13446444Y-13867758D02*
X13427396Y-13858234D01*
X13427396Y-13858234D02*
X13389301Y-13858234D01*
X13389301Y-13858234D02*
X13370253Y-13867758D01*
X13370253Y-13867758D02*
X13360729Y-13877281D01*
X13360729Y-13877281D02*
X13351206Y-13896329D01*
X13351206Y-13896329D02*
X13351206Y-13943948D01*
X13351206Y-13943948D02*
X13360729Y-13962996D01*
X13360729Y-13962996D02*
X13370253Y-13972519D01*
X13370253Y-13972519D02*
X13389301Y-13982043D01*
X13389301Y-13982043D02*
X13427396Y-13982043D01*
X13427396Y-13982043D02*
X13446444Y-13972519D01*
X13446444Y-13972519D02*
X13455967Y-13962996D01*
X13455967Y-13962996D02*
X13465491Y-13943948D01*
X13589301Y-13858234D02*
X13608348Y-13858234D01*
X13608348Y-13858234D02*
X13627396Y-13867758D01*
X13627396Y-13867758D02*
X13636920Y-13877281D01*
X13636920Y-13877281D02*
X13646444Y-13896329D01*
X13646444Y-13896329D02*
X13655967Y-13934424D01*
X13655967Y-13934424D02*
X13655967Y-13982043D01*
X13655967Y-13982043D02*
X13646444Y-14020138D01*
X13646444Y-14020138D02*
X13636920Y-14039186D01*
X13636920Y-14039186D02*
X13627396Y-14048710D01*
X13627396Y-14048710D02*
X13608348Y-14058234D01*
X13608348Y-14058234D02*
X13589301Y-14058234D01*
X13589301Y-14058234D02*
X13570253Y-14048710D01*
X13570253Y-14048710D02*
X13560729Y-14039186D01*
X13560729Y-14039186D02*
X13551206Y-14020138D01*
X13551206Y-14020138D02*
X13541682Y-13982043D01*
X13541682Y-13982043D02*
X13541682Y-13934424D01*
X13541682Y-13934424D02*
X13551206Y-13896329D01*
X13551206Y-13896329D02*
X13560729Y-13877281D01*
X13560729Y-13877281D02*
X13570253Y-13867758D01*
X13570253Y-13867758D02*
X13589301Y-13858234D01*
X13827396Y-13858234D02*
X13789301Y-13858234D01*
X13789301Y-13858234D02*
X13770253Y-13867758D01*
X13770253Y-13867758D02*
X13760729Y-13877281D01*
X13760729Y-13877281D02*
X13741682Y-13905853D01*
X13741682Y-13905853D02*
X13732158Y-13943948D01*
X13732158Y-13943948D02*
X13732158Y-14020138D01*
X13732158Y-14020138D02*
X13741682Y-14039186D01*
X13741682Y-14039186D02*
X13751206Y-14048710D01*
X13751206Y-14048710D02*
X13770253Y-14058234D01*
X13770253Y-14058234D02*
X13808348Y-14058234D01*
X13808348Y-14058234D02*
X13827396Y-14048710D01*
X13827396Y-14048710D02*
X13836920Y-14039186D01*
X13836920Y-14039186D02*
X13846444Y-14020138D01*
X13846444Y-14020138D02*
X13846444Y-13972519D01*
X13846444Y-13972519D02*
X13836920Y-13953472D01*
X13836920Y-13953472D02*
X13827396Y-13943948D01*
X13827396Y-13943948D02*
X13808348Y-13934424D01*
X13808348Y-13934424D02*
X13770253Y-13934424D01*
X13770253Y-13934424D02*
X13751206Y-13943948D01*
X13751206Y-13943948D02*
X13741682Y-13953472D01*
X13741682Y-13953472D02*
X13732158Y-13972519D01*
X13922634Y-13858234D02*
X13922634Y-13896329D01*
X13998825Y-13858234D02*
X13998825Y-13896329D01*
X14294063Y-14134424D02*
X14284539Y-14124900D01*
X14284539Y-14124900D02*
X14265491Y-14096329D01*
X14265491Y-14096329D02*
X14255968Y-14077281D01*
X14255968Y-14077281D02*
X14246444Y-14048710D01*
X14246444Y-14048710D02*
X14236920Y-14001091D01*
X14236920Y-14001091D02*
X14236920Y-13962996D01*
X14236920Y-13962996D02*
X14246444Y-13915377D01*
X14246444Y-13915377D02*
X14255968Y-13886805D01*
X14255968Y-13886805D02*
X14265491Y-13867758D01*
X14265491Y-13867758D02*
X14284539Y-13839186D01*
X14284539Y-13839186D02*
X14294063Y-13829662D01*
X14360729Y-13877281D02*
X14370253Y-13867758D01*
X14370253Y-13867758D02*
X14389301Y-13858234D01*
X14389301Y-13858234D02*
X14436920Y-13858234D01*
X14436920Y-13858234D02*
X14455968Y-13867758D01*
X14455968Y-13867758D02*
X14465491Y-13877281D01*
X14465491Y-13877281D02*
X14475015Y-13896329D01*
X14475015Y-13896329D02*
X14475015Y-13915377D01*
X14475015Y-13915377D02*
X14465491Y-13943948D01*
X14465491Y-13943948D02*
X14351206Y-14058234D01*
X14351206Y-14058234D02*
X14475015Y-14058234D01*
X14713110Y-14058234D02*
X14713110Y-13858234D01*
X14798825Y-14058234D02*
X14798825Y-13953472D01*
X14798825Y-13953472D02*
X14789301Y-13934424D01*
X14789301Y-13934424D02*
X14770253Y-13924900D01*
X14770253Y-13924900D02*
X14741682Y-13924900D01*
X14741682Y-13924900D02*
X14722634Y-13934424D01*
X14722634Y-13934424D02*
X14713110Y-13943948D01*
X14922634Y-14058234D02*
X14903587Y-14048710D01*
X14903587Y-14048710D02*
X14894063Y-14039186D01*
X14894063Y-14039186D02*
X14884539Y-14020138D01*
X14884539Y-14020138D02*
X14884539Y-13962996D01*
X14884539Y-13962996D02*
X14894063Y-13943948D01*
X14894063Y-13943948D02*
X14903587Y-13934424D01*
X14903587Y-13934424D02*
X14922634Y-13924900D01*
X14922634Y-13924900D02*
X14951206Y-13924900D01*
X14951206Y-13924900D02*
X14970253Y-13934424D01*
X14970253Y-13934424D02*
X14979777Y-13943948D01*
X14979777Y-13943948D02*
X14989301Y-13962996D01*
X14989301Y-13962996D02*
X14989301Y-14020138D01*
X14989301Y-14020138D02*
X14979777Y-14039186D01*
X14979777Y-14039186D02*
X14970253Y-14048710D01*
X14970253Y-14048710D02*
X14951206Y-14058234D01*
X14951206Y-14058234D02*
X14922634Y-14058234D01*
X15103587Y-14058234D02*
X15084539Y-14048710D01*
X15084539Y-14048710D02*
X15075015Y-14029662D01*
X15075015Y-14029662D02*
X15075015Y-13858234D01*
X15255968Y-14048710D02*
X15236920Y-14058234D01*
X15236920Y-14058234D02*
X15198825Y-14058234D01*
X15198825Y-14058234D02*
X15179777Y-14048710D01*
X15179777Y-14048710D02*
X15170253Y-14029662D01*
X15170253Y-14029662D02*
X15170253Y-13953472D01*
X15170253Y-13953472D02*
X15179777Y-13934424D01*
X15179777Y-13934424D02*
X15198825Y-13924900D01*
X15198825Y-13924900D02*
X15236920Y-13924900D01*
X15236920Y-13924900D02*
X15255968Y-13934424D01*
X15255968Y-13934424D02*
X15265491Y-13953472D01*
X15265491Y-13953472D02*
X15265491Y-13972519D01*
X15265491Y-13972519D02*
X15170253Y-13991567D01*
X15341682Y-14048710D02*
X15360730Y-14058234D01*
X15360730Y-14058234D02*
X15398825Y-14058234D01*
X15398825Y-14058234D02*
X15417872Y-14048710D01*
X15417872Y-14048710D02*
X15427396Y-14029662D01*
X15427396Y-14029662D02*
X15427396Y-14020138D01*
X15427396Y-14020138D02*
X15417872Y-14001091D01*
X15417872Y-14001091D02*
X15398825Y-13991567D01*
X15398825Y-13991567D02*
X15370253Y-13991567D01*
X15370253Y-13991567D02*
X15351206Y-13982043D01*
X15351206Y-13982043D02*
X15341682Y-13962996D01*
X15341682Y-13962996D02*
X15341682Y-13953472D01*
X15341682Y-13953472D02*
X15351206Y-13934424D01*
X15351206Y-13934424D02*
X15370253Y-13924900D01*
X15370253Y-13924900D02*
X15398825Y-13924900D01*
X15398825Y-13924900D02*
X15417872Y-13934424D01*
X15494063Y-14134424D02*
X15503587Y-14124900D01*
X15503587Y-14124900D02*
X15522634Y-14096329D01*
X15522634Y-14096329D02*
X15532158Y-14077281D01*
X15532158Y-14077281D02*
X15541682Y-14048710D01*
X15541682Y-14048710D02*
X15551206Y-14001091D01*
X15551206Y-14001091D02*
X15551206Y-13962996D01*
X15551206Y-13962996D02*
X15541682Y-13915377D01*
X15541682Y-13915377D02*
X15532158Y-13886805D01*
X15532158Y-13886805D02*
X15522634Y-13867758D01*
X15522634Y-13867758D02*
X15503587Y-13839186D01*
X15503587Y-13839186D02*
X15494063Y-13829662D01*
M02*
